<mxfile host="65bd71144e">
    <diagram id="m0LWuMldsO2H3S_7pOrR" name="Page-1">
        <mxGraphModel dx="595" dy="359" grid="1" gridSize="10" guides="1" tooltips="1" connect="1" arrows="1" fold="1" page="1" pageScale="1" pageWidth="827" pageHeight="1169" math="0" shadow="0">
            <root>
                <mxCell id="0"/>
                <mxCell id="1" parent="0"/>
                <mxCell id="2" value="" style="shape=image;verticalLabelPosition=bottom;labelBackgroundColor=default;verticalAlign=top;aspect=fixed;imageAspect=0;image=data:image/png,iVBORw0KGgoAAAANSUhEUgAAAggAAAE9CAYAAABuo5rgAAAAAXNSR0IArs4c6QAAIABJREFUeF7sfQecnVWZ/nvvtMykZ1IJhF4SQEBBQANSEggBV6XYgIU/SLclYX/uuopSVNa2CISWhKAURdi1oAhYVkXpRRBIIL33OpNMu+X/e873vXfOfHPOed+buZnMJPe6bJKZc893vlPe93nbc1LZbDZP1iefj/7Z0tJC6XSaqqur7V93+Hs2myW0r6ys9LbJ5XKE/0Jt0EcmkzFtUqmUsy+0aW5uNmOqqanxtsGY8JHGhDboy/fB89BXRUWFaZIcF37PY8IchZ6HflKUonSF/3k8bn6ea1yaecL3ME/op6qqyvt+mG9pnvgd8e6+dcHaYuyhtUMbjEmap9bWVjPuyopKylOHbVl4j1w2Z34nzZMZU0UlkXs7RWvXFI2J+0K/yffEPGGfhPaKZo/zHPA68zmzFwht2trazFzieb455zFh3K5+0Cf60uxxtKtIV3jnKRpThqowJs/+xRiwLpjr0LqYc5BKFc6wfY75PfA8SaagH8gnfN/3PD6/0tphLjEmaT+ZeYplgetQacaELZ3Ntc+B73DymFim+PYKfh4aE/rBmZLmCe2wB0LySToHZg/Ee06aJx6T70zZstd3BjB39n7yzSWfTYwpdJ6wn2praymdSjvPAvfD59LXF84v2khzwGsX6gd9YUwhnRjSUTwnLFdDZ8W3dqnW1ta8S/kxQAgpGT7MXT1cvLnsRUweCvwbL4qxJkELfsbKzH7RkFJDewkgoC9uYytJfhaPCQeZx87PtMdvb2T75/b4kgKd2yXb4OcsZH0gAmuHMYXWLpvJRgLdoxz4HRkcuebSnnN7DyTb4v2xdlWVVVRZ5QaTDH7M4cKYPB+z5wAQAm3MfsrnzGH37oF8zigZAxDivtBvct/heUaBxPPE84/h8d9tIeQbNw77Sy+9RH979llqbW2BeAMcSTS3QBGAshsj4clArGZc+Zy3kXcOi/tFPhqHGSqPt/CDGDxj3qJhtbfjceE79hgx7go6+uhjaMKECVRXV2f64P3v2vfJ8aKtrfh8IEmj/O1zBxDPH7tP7CWNvOD9ZICpeevOa6NVavh+SKDz2dMCBFuO2e9oA6mkIWCvhW/cdhtbjrvmEf3z2uHc2fLXde5CINnsmWyOUumUV6nboEUC3AXQAoDg+GAP2CDR3iuFd6UIJIVAhBZIQV5g//bp00cECNI88dpBhrlkHJ8/lyGYyuVyToDA1jqUjE/Iaq1eRjlBJJTJepUHC2OfB8FWyphULAKP2yU8NOPGM9mrwRsgqfzRNyvjkAdBI6g03hhWoiFrHWPFPIUAAgsFtA1Z2TymEPq2PQgMJpLnC/2wB8EHWjAmHAo8KwTctPOk2XM8ppCQLcYiCO2BpqYmmnHvvfTXPz9O+x3QSH1qtlOKYu+UpUKNOrX1sE+bF9p0VNZRc/tnrt9rIUJSybsAgq5/tMql4G2qpvnz+tDo0cfT12/4Bg0bNqzDYFxKxgUQ2IMQ2iuS1Yt+sb4415LHkZVDyOiAR6qmj9+rwTJF8mok5ZPLgLONM8kyhpLxKRGWKaEzvqPjdu0yNhZCio+fB4UGAOD7FDwf8AQ7mvFeYg92aJ4gC4wHweNVZjkneQfsPeczqgwozRNVVPoNIQAW9iCExmTmQJCZ6Iu9kr659OnEVN6hQfEjCDRWMl0BCLYCCQGEUoQY+MDjz6D1HIchJM+HdkywjLHYXXE7AQ0DpWqVse9ZNkCQQIsBCN0QHsIewH6C1SABBM1Gxv6U5kkj0AseBI/rmEGLNCYblPoO4Pbt2+neu6fTimWP0OevnUOj+rW0y7TYSCcYL7FONvIu9HM0YOM8/jMFuYO/2/3E/RVARzzAlP1zy8gP/hzjSRhYHdobhBg7OOyxx6+VSxE1NKfo3vvH0Io1E+imm75Fw4cPNyPi/czeGGlfQqCz4vPNuQZwakJtGhmGNhhTyJ3P8kmjZDRnk70aEkAIKT6t0aGZS43hxaGY0NoVxlRRGQQImjFp1o4NGAkgsDKWvDbFAkDX/tUABBvchYAy5BzkrmR4YRzJd/MCBDuO3VWAIAlrFsQhbwXaSDkIRQEEAcFpDg4Dqeqq6i4DhIJlHIibazZ7GSBE7moArhBoQ5tSAgT0F8rXAUC45+7ptHbFQzTturk0rF9rZ6vHtoI6euXbHQO2NJHaszOBv+PzTEg/70o/iTFuaSK64/4xtGzVRLr5lm8XAAIPUQsQADihZCTvj2Rd7QqAUIoxsTKWXOeF2LrHMtbIOZar0rh7IkDAmDQeBO08acBdrwQIHHJOGEtBDwI2hC8hEJtGuyGwCSWLAAe1OwGCZIWyG16yVAFaMO6Qx0LrpsZGhjfCl1hXUoDQljHPkdaFD5fPStMIGLauNPMkCaFSeVoKFl91jdfVV4wHQQMQ7r57Oq1Z8TD927VzaNiAGCD4Pahe12qv/UWeaCsAwqwxtHTlBLr5W9/ZIYCgsfi01hWHGKRzbpJeA0nUDDhrqmvCyX5tGfN7KTQieRA04T/IVI3iwxyEZG8xAEGS9UV5EALzXcyYNAABFrvk1cDYJeWvCWuZnAAhaV3tQWjLGPnVJQ9CniiTdSet9wiAgAnDxMICC4UhtB4EKaaoOVzdDRBY+ZcBQniz93aAsHbFw3T9NXNp2MCWCAjuSQCBYoAwcw8GCIqqiYwSvEugpTcDhFKCljJA0IUYXOCuWwCCsYwDJXf4PTaEBBDgVpS8GhqXYU8ECOwKKwMEXZJiyOIrxqsBi8+XLFSMBwFtQ3ucQwxrVjwUA4Q90IPQ3QBBYV2xMpY8CJqQlSYHQZOwLAGEYpLveqsHoQwQ5CRFrZdsp+QgaJSxNsQgAQRNDgK7hCWAoMly7ypA4LxOzovQuM6l2FUpAQLWDmMKJikqrZSeFmJQr10mK+cgNMdljp5s4p0BENaueJCmXfMuDRtYBgg3WTkIxSYpYo+LyXcagBDzgfQEgMByJcmDYIeUuI2dq9GTkhQ1IQYND0KpAIImLMt8Eb0yxFCiKgbME4fdO6Q5ocwxGdPk5DtJGfs6tftLJh3xBk/W93OIwRdftQGCKxmM+9OCFlfGZvLZyTLH5EHFuzA6k4gxTC29QLQiHS6NZcygRc2DEBgTr50oPGMSmWAJmIIoSZurIc0T1im0dibnLk56BZByrQu/S6nGBIWGHIR1ZYBAd8QhBgAElDna+4at49BZYVkQrGLIRyWMUnxWY1BolExhTDV9ukw4ZGLUHnlhAwTpHGgUH58VqcxRUzGglb0agCBVkPG4JbmqSXrl0kvk24XImzQlheochJgwzKfvOAcBPCFS9Z+Ut6VZOy9AaGtrcwIETRVDoVOBiQ0bOTnxPqHgnIw8mRLAUA4CE1dwsoU3uxd9oQ41FTEpaiYfbZLjZSUj8SBwLoN2I0uuc2xmqY3Eg6BldOP1NYk5SoYx14bnBC7Rq6FgLdRkb/Oci0llzS1UVe0GCLy+GDvWLpQE1OEc4IuO6oKm5ia67767aR2qGPZwD8KPZo6hZSsn0I033VLgQTDnKz7nWL/kmUsaHTh3mlp6KalMq9TYugqBYKkqhhO7nbLAlIVGopg9CEY+4X+Ym7h8lIlujAwTeEwQqmhpbaHaPrURaHFQVrDREZynOIlNmktbXoQq3zic7NIJGA+DxA7PS47dSqzTkL355BevCRSyzarayWjO5Q0LpjQHIkBI6B8fQJCIknieWB+EgI0muZJBaac1samWsaiMUFkZh0q3tB4EbEwXjaftVjQJN6h79VAtAyDY9M8+IGFc9QKfgL0BuR8GGHxI7fgOCytXG40HQdw0MZMc5pOVP69DcgNpAYKkjFkw2nSuSRCUFJ4sxM2YIM/jw8xjMj9mhr/4d/gZ3qu1pdUo4xAPAlOC+jY75h+HVCOseS59fXE2tV2ianu3WACzJePqxxZmeM8k4LTPEzwI99wDD0IZINw2cx9atgJljhYPQoyqcHY7CD1LMfCa8H7qUxsRACU9e5h3tEm66nk9eJ/zGWeF7ZIp7D1ga52fxyCG9zd7E22GQJdhUfAOOJhAWfZ0Onfx3NjMjLbnowOrn8VpYZIUARCYAMhBbok+NRZmsTIM82SfJ/47xo3nwVr3yXpW2kYW4t0d/FwSsLE9LZK3mD0tEoeFpGhdY7JlAO9Tmy7eNQfoB3OE57m8Gix3bB0lcRxIwIbPFubcXjcVDwILfpeyktxc2pixFHPS5iBoSGts1zm/U1I52pPvc3eiDZc5SqREkgfBAJtsTmSTNEBKKLfSlF5qkjl5Ll3Psw+gPSaXp4XXTiJKsr0xPoBkg1Lf4cJ3NfPUEnsQXGvHz2fhGdoDTiCVOCztPAjlHIQ7Zu5DS1Z25EHgtcRc8tq5lL9t8UkxYwBO9OE7LzZAkO5Swb4L9cNeMtsK7bQ/EfbIKLj6PTXp9pYKnU1uV0wVA/Z3VzkljFwF/wgUu4MBkc8lAwTJnS8xxobCf7Z8Cq0de2w0d1YUAxA04WSfJ1gCCOzdxJ+23vTJTAZ30phcQEoFEELuIi1ACB1AnpBS8CBoFF8SICTfjxFayHrkRZJCDLbLUFogaSNrYqEYO7MWSqDFuCgDTIrFAAT2DPgAAntaQh4EzVxqAKdmnoxAR5JiTftlTZ3cijGSDzEpstCzD5frvLRXMTxI11/77p7Jg9ChimEi3WR7EGLPIRSM8SA4arttoc8hhpCSkQACC1isl8QHEgKcGBeDYNsKde0DTRVD4Z4UIWdJkhfFAASJLVTjZdAABOP9iS+QKgVA8MXfdwpAyGRFDgttzhJ71X26FXOE9ZNAMMJIuN/G1w/rVgkA2h4pWw52ucyxNwIEjZLhiZWUQ0k9CAErhV2ZkmWMdqoqBsVtjjaQ8oZ+irjNMVTtgfku3OYYAC2atWOAEErecQn0HQEIDAAxfqnMEUmKYFL8t2vn0tA9nCgJTIp2FQPPPXsQQsYCr50kPI1SS1cEOe+1dzFgXBJ9O9M/hwyBUgEEDQguBiCUgihJAgjs/dGAO02Soha0SDITz8LaISHQB1o0MoUBp6ZizRWStOWPligJcyDpKMkLyuvi0uV7LECQ4lJlgBBTFgsVCuymlXgupLAHAwRsdsnTgrZSoqaUcbyrAELEpDiXhg0oEVGScVsjiZeoGiSccQwaXmqksSFCj3w2XKLpuaguiYt23r8tJsVlqyfSTTd3plouAwQijQehDBDiKhXhoiLtPGkBQlfCHjYILgOEeDZ8rgtbCmlDDBpuBk2IoZgxSehsT/cg9GaAIGWdF0BiRaVYuqbxIOAuhjUrHqR/u/bdknkQWpuJXn2lHy1fX0Onn76BhgwgyueIXnytL23cUkejRq2n1cv703HHNNDQoTv7amgZW2zdHlEthzwIkuu8KA+CIrauDTGUPQgCy6mQg1CMB0HKSWNrHR4iVwI878QyQGhPQtUYXslQ2073IPAChQ4XKxlN8h3cN3At+j7FAATJCtW4bzQAQRuX0ghGyV3W3SGGngwQNPsplLnM7ybVGWsAp52DUGqA8NvfjaGf/mIgXX/9HDruqAw1b03RD+4ZR7V9K+nk8f+kOQsH0IQTNtNeI7n6JPY0mESauPotzhTP5+Okcd/NzjIG8LeIPQg/un8MLV91Bt18c3sVg21dac6BdJujxgPI4SH8KeUg8Jh8L4c90B0hBo6tc+5LaI9rQwyldOeHkhSLAQjqMZUIIEh3MWD9pZy0AmgpwZX12hBDqXIQOJzcCSBIREkh+mM7Huw7OLyRgwAhlzeXRUgCXeNBwItKLmged6j0w445hRJAOPnOJ2BYyWjKTDSCUQIIeB7zIEjCQxNmwZhEoqT45kTfHjAJgfGVo9J1z1L8zqxvLh+MK7MgCiFmnqdQ7TMrEM3a8Z7zzUFU5niXIUpCkmKpchDgLXh7fj/65vdG0dkTt9JnPr6GFs2rpnseOYDO+MgmGnvIWpq7uIY+eEQr9e2Xp7fe7UvLlvWhQQO20+Fjm6imKk/PvVZHYw9qpeGDM/TcK32pf/82OuqoVnpvXgVt256iY4/MUHVNV5BB+3dxWdOPZu1Ly5GDYPEg2BYfr28oOVobx5bAXTEGhVTpYFMtO8eO2n3cxZD2k6ZxwqPrbDI4wO98At1eJS7fC916aSu+UNmhXeYYykdCf8lyX3tMkF9SkiKfu9DasV4Bv4GrYsLeT5JchQGH/0I5LQV9EAAktqwPVT3ZOsp3qnhMKFENrovAFmonKUpcLhhLp1Ltbdu2OYmSNAljeDj+C70AT4DUhjd/aPNhTFKMmsdTiudp+uBYt6SMpHmy3z8ESDCfoXHZG6KrY7I3b2hMmneT5skWfiFVVJgnuz7a8QXNmCQPkTGwYVILc87tQuuCvTtr1gxav/KhkgIEPHvjZqIf/Xg/at3SRl/83Ap69vl96fl/1NHV/28JrVzZTP/7273p6ovX0MZtWXrymYNp5DCiTZuyNGqvNXTaR7bQjx/anw4bu5GOHLuF/uuOQ2nM6G10+cWr6Mkn96b+fRvpwvM2UE1tiQDCdqLb7x9DS1dMoK/f8E0aPHhwJxIyzGNoLlmpSYl1aCf1pVk7zR5QeSwsMiTpDPv2nPacMEiGQg4Zefb7a/ruwEuQ2BIafcBKVIrla8+ctCs1chVzBPmE/RSqrNDoMknuJGWKb85N2Xt8hbyvjevdXBV56Es6B9xXJ6Kk1tbWMJNi4Pph3hAhxMiIWBqgdJjxewYIUizQhb7tjcQIjifTNTbNuNEGY8IFS1IcTBoTbwipHFRj0Se9Gq4Nhn4YMfoOmX3gNQAhBO7aWttMOY4UB0MfWqTb1XFrAKe0L/nAY65C5wAehBkz7jFESaX0IOD5SFJ85kWiX/38YDr3oyvpT8+Opr322kaXfWYFvfJ6mh57cj+68rMr6Td/HkWLlgymI48kWrcmS+vWNdGXrllMr788kJauGkSHHtRKs39RQ2NGVtM5p22hv71QQ5NO2kAnjd9E6UpJFCt+n7ju+YZv3kT19fUiQEgqaJYFGu8P7yff3uSqgtCes+VcaM9Jl+JgDHzubNmT7JMFekhZ+QS63Rf6YdbCkEUrJfTiWcwB4AMIPEes2IOyIL6YLwQCNHOQPJv2MwsyL2bnlOQOXPUgcgvNue0d8YFGjbwwbfA/B1cEyxOsCQOEAhFW8ubXPBXYHfndbVnPPyusnYeEMCnD7D3UbTkIIcTI6FtT2oR+QuyOGgIRds/Zm8aFvPjg+MANxq2p3S9VDoLGSkEbKS+CDzw2Qldjr8m5dAkGbFAmJZJCDNp6XSnsIcUL7bBHKDykLRFCf1KZI5IUcVlTqQECnCmLVxDddteR1JrL0+bNLXTZZ9bSqSduob/+PU2P/e4AuvyTK+iXTx9AK9dV0VFHb6BsUxXVVuTpY2cvo6Ur0vTw4wdQVZ8qqu3XRlX5SmrcRlRVtZ0u++xyOmjf1qgcoqufBEDgMkd7z2hc5xzvly5rss+dT2Fpyhxt8B4CygCBEhtfEpC4+pPCHjxHOMdSGJFDMSGAoPGkMZhOKlDOc+AxhQwYvCvaJ0FL0oBh+YQEREmJos/ku0GhGtbJGBzYhpBTPmWyhsAKa5f82IrX1ge+o2ArY5dOwfdcxlmyLZ7FpbVO0ILXy8uheTyPq2JYzvkMRvwctNw1fdrnIQgQJGWsSc6yFUjocElZq+iHY+shgIB+8JHK7iSLz0x+fFNWVwGCqvY5dilpgFSpKiu0AEFK5uRDEaohxtph3UqhjLE23QkQJBIZViC7DCCA+6KFaPoDh9Fvnqqjo8e20NRr59CY0Tn607Np+vlvD6SrLl5Ob79XT6+93p8+ePJSWrZoCA2o2kaf/sRG2rK9kn5w7/60cGk/+txnVtD6tRX02K+H0oTTW+jyC9+jwf26igzi78cA4fZZ+9DSlRPplm99h4YPH96h81IDhFLwIJQSIKAvfCSuBOlsasbEyjuUg1Dwggbc68ZLBU6JRPIdvrt8+XL6/e9/T42Njea9WK66dgx7UJIgwqewkF/A9NI+w4M9RB08GNZlKPb3Xc9pt54Rf0+a6P59n6TdL9EJMd3wPNk6Cj/rNP44ZOXTTzwm26vh7CdeN8i5Y489lo477riCV6/LAEHa7BoQUUoPgtYikMZtW+tlgFAhXmolJZhqkjmNlVJRGUxAtBNjQ25MjimG2thJZa4DrvHY4HvstdqVAAHW0p9f7Ev/+8QoGv/BJvr45BVUXU300itp+uPfR9MFH11L/Qa00W+fGkELFlfSwP5pmjxhC407dDO1tBL94unB9O7coXT5hfNoxZp+9MQTI2jiGY100ofWUBV7D7paJRkDhNtm7WOSFG+5pecABA3gDBkm7LmTwh6S65z3UykBguRp4XLfUJjFBRCgeJ577jn6zre/Tf0HDDBEQ0bBdbitrJSqs9zXzpgBgCjIsI0bN9IZZ5xB1113XQHA7rkAIU9BRbQrAAK7lCRPS0/zIEglSRp3Pja+SYwVmO/KAMEjIvJg0CRav5loYH+iAQOidtsbibY2EA0ZTFRVTdTQSLRlK1FtDdHgQTgDEW/Clobo+8OGELVkibagn4FEfftat1NGaStd+qCKAZc1lQGCP2YjhRiwADhTUkWTtszR5FHtgAcBY/jb3/5G99xzD11yySV0yMGHFEICPmu9S5un/OWdNgMNDQ306KOPmttVv/CFL5QGIBQ2MqSMxzuj2chow3GpkMWHGB+UoytWxDOn9iAAIIDr3DNujfWozUHQhhjKAKE0AIHDQ5JXw3gQqmu8QFGzB3qMB4EPAN9+yLf64d/4r5gcAvvWP/Rj99UVEbULPAjwSIUSiFmGddWDwCFQKQehJ3oQNDkILg8C3gUehJkzZ9LUqVPpyCOPFLPlu7J9yt/deTOwadMmuuuuu6hfv370+c9/voQAwbLEXcq9pwIEKY6dVA74tyvpRJOkuCsAApRjyOWttVKkqolilHHoLoZSehAKSU64Vc53fXic06LJi5ByEHpEiGHnyY52gFCCZ4BJ8baZY2j5aoQYOlMtlzoHQbN2eC0JIGBcofwZ7DlOUgwl/mpkgeZsljIHQcr/wvz4AMLzzz9PM2bMMADhfe97XxRiCGTLl2ALlbvYCTOwwwAhVFlgNrJlibsUKAtrnzWH3+Pwoa9QvS7aMFFSiElRk6SocVOrAUJziynfCwkFrVejVB4EvqypOwACr11on3DWeei6ZwYITJTkEzIawVhqgCBVVmgBAi5rKjVR0k6QFTu1SxNimOEHCJqzWUwVQ6kAgjmbnpJvTpDTAASpoon3LhYhBEhsIBWq0GBSolBf2hCDTWLG43zhhRfKAGGnnpju6dwLENra2rw8CJIVik1qZ626AIJd0hGy5jie5psOTRUDgw32Dvj64gMtWQ0YE7dxjb0QYqioNCDB9+HM5VCdvKbaQ+ON4WQp39pxbNBVapMcP8+TnbxkZ8Fytq0UC8WzuEzKFlQ8Fu4z6X71eaR4z4VyNfDMTqQfViYw+mDBqKkRDyWqavY4lMd99929U3gQukeElOAphSqGMaaK4cabbjYxz0J0JCZe4/Pri2NzTgvc+aHEOik3huUFnm+fTfYW8vO5nU9e8O+xn0JJitzOzrx3WdxSpQOfS+kcuEoKzfO4DDDOXudqLddc8hywLOTxMkB48cUX6f5Zs2jqtGllD0IJjsiu6gIAYfr06dS3b1+67trrCmG5VCaT4UqQDvF4xGexYUSq5QDtLW9kFtYuIcttpLp1tOMcBIkHAc+RiDHQHysrn+eDx8SLlmzHggrPYmvdpbTYrcjv7wNStjs/5I3xUZDyXLqolpP9adyYBdCCemS4DR35Gi7Q4ponHlPIq8GelhBw01iYmAdJOaAfzt5GnDryjXY+nmzxGQXiYG8ELbAR6KnYTZ1sE8Pv7U3bywAhwYPwzRtviQCCNe8FsBWg0GVjAXKAlZo5W9bc8x4oWL12XoW1zNocBA4x+AwFDWhhpWpTd7vOudlPeWoX0vYE8Z0Z2He5rEnq9Z1NvBuDFhuY2yAfY+IcBHv+knsdfdnjtgHCLACEPTTEYBs5IYO0p4deGCCgEgU5CIVzlTdaJX61woUtkTKGoA4BBEnJMGJmiyDkQdAkKULJYEylSFIMHXjMhn1wQuxaTEoUUmodlIwnPgehwJZ4iE9AA6RsgOADN9La4XsdlHFC8dnWlaakEPspFGJgix7zGArXaEIMGk+LrWR8AIH3gAkxpCvcICJmM0N/The0BRD2+BBDAiDc/K3vFDwIXBqXy7d7JUNhJiYA4jZJhVZYO66KcQAEBhHszvcq/2yOMC4p6VVzOygrWokHoYMBwwAhAaRsr6tr7JA7fAmR73nYt74cBLtPpt63+8G79JYQAxsEWGs7kZS9m+b8VlUF87aSAGDbtm00b9486t+/P40ZM8b5XTx34cKFZo73339/QslpT/xwiAEAQV/FUFFJ1TXV3vcpRsmEhD4rBykHQUuUhI0tMQRKbnEtQOjOJEWO93dnmSODO98m0OQgsDIOHUDeA3i3kPAsVSiGx1SKKgYGLbuUB6EnSp1OMSui6LKmfWiZhygJHhnjSauMAZnjvfB7AE6pvl+bnR8CCAyUJYOisJ9qasIkSG3hy5rwPI1c1YBgLnMsBVGSCyDYVQzTpk0zVQw90VLGXL377rv0xBNPmPFNmjSJjjjiCGMlr1q1in7zm9/Q6tWr6ZRTTqEPfehDwfXj7Qh5tXjxYvrRj35Ehx12GF144YUGKCQ/uMUVVR7gGLjyyitpr7326pEndceSFMsAwQCNkAehlABBI4SK8SCUIklRAggad/7uDhC0SYo7jWq5R4oc96BMFUOAKMk4NHP5YGliMUmK0oVOnNQseQckg6I3AwQtkEqGNnsTQHj22Wfp1ltvpWwmQxdccAFdeNFFxpOAn6O8b8OGDXTppZfSpz/9aeMJwLvZCe9stLC8w+8BEG655RaTe3HVVVcwFTeZAAAgAElEQVTRwIEDC1TSHHaGl+G///u/af369XT99dfTPvvs0yNP644BBMW9B4y+fW/NbuqyB0HOiygDBPm2zp7oQSgDBL3Mk4iSygCh+z0IXSlzZB6Enu5B+Otf/0q33XabUeLIe/nyl79sbhJ9+OGH6ZVXXqG1a9fSueeeS5/5zGeMd+qtt94yoQHsR4QGjj76aMMUCSDx0ksvmT/xgfcB9MQACPi89tprtGLFCpPsd8wxx9CgQYPojjvuKAMErwvait/52uyKEIOdEOga164IMZQBQhkg6FVt72zZDhDOcPIg9FSAoMmzkai7TfigB4YYdneAACMVAOHee++l448/nt577z369Kc+Tfvttx/NnDWTBgwYYBT7WWedRZ/65Kfomd8/Q4899pj5Ob4LL8AnP/lJE3749a9/TY8//rjxBEBev/POO/Sxj32MLr74YnrmmWeMRwL9LlmyhA4++GA6//zz6cEHHywDhFCM2tQQV1V5JVoxbmp4IqTLmjQ5CD0RIPA8hZI5yyGGXBSjFkiQ1C7h3Y1JsYfjht4MEEJyp5QhBqnMEUtcyhyEPQUggNDpkxd8kl548QUaOXKkUeAgevrABz5glD7uIfiXf/kXuvnmm42+QrIe5C1CEMglAJ30/fffb9gGp0yZQkuXLjVtkbswYcIE46EYOnSoyXF48803DRC5/PLL6emnny4DBBEgeEhG8L1SAwT0Kd3mKCkZtQehG4mStEmKPY0oqZgchO6uYtAkKZaKKCnKQfgJTbvuPRo2oDUq79NfINfDVb9ieHEVw49mjqFl5rKmzkyKxXgQpOQ7bWydw6QSMO8qQGA5ZxMOuWZtlwCEyirv1coYo+u6596Sg8AehPvuu4+uuvIqWrBwgQkTINwwZp8xdOxxxxoOgIkTJxrl/p//+Z8GPFx99dUGINx99900d+5cAxAeeughk3Nw7TXX0qLFi+ib3/ymARgnnHCCyTVAn+PGjTP5CwhJTJw4gX7xi1/2XoBgeBASH2xkLimsxg0vHiFWyC8Q7mIQlTHX9MIq9DwMZUaaKgZNBjCXX4ay5TElTA5i1w3bU4V+SpWkyLF1KVfDHpNPJLvKHJNt8TwpAVHbRlOeyeWgEuNkKYSnceVaV3X7QkihK6i5jJMpZqWyNFYyDHiTzzRESffcRSuXPURXXfEuDR/YShXxvQmpXHTEcBdSGle4pojyuDuBAQR+b1+UxL/PxyzI8X0LrmNqDjcKAkBjEd00TKm4vXkOfod+8Hdjmsa/j9vx1Q6Fx8d3OqCPfPx8Hrvp2xqb6ZDHaH5J1NBCdO+P96WV60+nm278VgeiJJ47zH2IAIkBJwBCsTcQJteFOUpC64vx8LnznTmWBTY3g0/523wCXQEILFejee+8+syDELofwoCWtkxU9YU94inD9lEto8wRPAg9OQfBBghf/OIXzTv+4Ac/MLkGuLlw9OjR9L3vfc8ABIQL8HdcX33pJZdSa1srzZ492+zT8847z4Qp8P0rrriCFi1aZIAFQAU8CHfeeSeNGDHChCMQnsD6IAcBAGPdunW9IknRECVdd107D0Jra6sTIEDxYSOHsoBZgYQYAo1FEN9jEELo9mYPCfRkiKHQZ3w3NqNvm0DFBYAkIcTjlgSVdI2xARqZiEjHN08MWNBWmksJIGhBC+abn+cTepr1tV2dvrniGmTspRDlK9pJwtMeNytxe/wM5qS+0I+GSVHqh4EkgC1f/uUaF8DIjx+YTX/5y2N04IGgFW8mSmUMIKjMQetWUi6VplweWjxrFG3KoAL8rsqghjR+jvOUylHOaHmzgkT5iOgpZX4foY28YcuLfo72+J3R1jiLOZDrVEV9pNoolUJrfKmS8gYx5Cidz1CecvG3QBKFvqL20e9TlMqnDJjJUfT7iFAlEyORNKWBIPC9fJpyeFFqo0ymit5dUEWjRn+QvvofX6MhQ4ZEYzRtow/WJnTueI9D8flkCvqxGQJda8LPYgKz0DlAG40sCLE78jkPnXHeT/bZdL2jfTa7ChCMTAHPRwAgJImSeJywxHs6URLmCsmUP/nJT0wyIUoNcQPlpo2b6AtfjMIIKFdEqACJiq+++io98sgjBb0F0IcyxoMOPIh+++RvTTgCoAIgADwIJ510kql+QLgCSYvwIkDRovwRfSIRElUMICDq6WWO8Hpcc8018mVN7EGQOPax6SXOAU6+Cx1ATcwYcSA8y3kXQyxf2jJtZmHtsqXkAWPPRyiObayGTLZDuZWPIVAi2ODEpJBg4Fp6qdxKykFg6yp0CZEthCTOAQZSIXCnWTv2IPhCPxzSkdz5dhWDaz8xQJCYFDXzpAkz8VyiNC9Etw0L7OWXX6a//+1v1NIKJcvXLMZ62/wRWaqpdKqdmClW/UYJxEoU7cx2N+SWdpwib7wDUc+R7R+tW3Q48D7I1s7ncjRixMjYpRy3i59T4BOKn5UDSMjmKJ1gNjT2auxewB+5XPTNdBrPbF8ZAyLiseZyWcrhbFZU0rHHfoBO/cipVFtX1wEg2J60EFES9pOGByG0n9jljwGE7oqxK7FC5wAWqRT20BAl2SEGNq6Se90+ByGrX0OUZNgWq6rNfvD1xTwILMPYqwKlyLc59tTLmjBWlPGhugCERtg3+DvOJP6NNUHJYn19vfEA4N/IL8BZwXwgXwFJiXh3XIs8f/58812AW+xD8B/g9/jZooWLaNPmTeZ7e++9Nw0fPtxwLWD+9t13X7fu8inGbvz5Litz5I0kuc41Al173TPmtRQ5CLYF4lorvJs23o8NI9E/lyJJUaP42LpiwRgCblIYgoWsBGw0AIHjnBJokUJWmgQuzTxpAYKmzJGfF7JWtc9DXy6L1raSAVjwP8wl/xzj/OUvf0lbtmwx5VwQlC4AmLTmbVDqCrexZRyNCd6Jjh4B3l+gBjY+BbBl4v4Sc916O5rgfgzYil3err2Jc6IFCNJ1zyoehCxAUtYAwBBA0FYx4PrpkDdCk4PAcjVk5DBRkgSkNJc1+YiSnn/uOZoxc2aPDjF0o57ttY9igACwgxADy+CUoVpOfFjxSRUDmng/C+tSVDFoAUJ3VjFo7hjQxDlL5UHAUjJoCYEy7drt7gBBk6QYIstisIV5kkCpyRYPJINpQQtbocn1tY8yW70YE/9869atJr4K6+nGG2807s6kt409DQWlHitjWMb8vKTIsL0/vjZJUCqFGyW6bS1AgOs8xMqoAgjWbbMhMK0FCMZDBHDk+WgAggYEawGCpoqhNzMp9lqt3Y0D32UehDJAiGKhGg8Ch2JCwlMKMWBPaZIUywAhSnrtToCgqaUvxZXB2AO2W5zlDDKxb7jhBkP7+h//8R80fvz4Qp5RSFkhz0ZKdOP7RiTFjudoPERSP2WAEHs1Kv1ejTJA6EYN28sfVQYI1gJq4ncady/a9EQPQhkgyMKTrfXuBAiaXA0NQIA1Bxe1pETZO8BegZ/+9KcmCxvPQL33F7/wRaqtqw1eQsQJphJAYBAsjam7AYLk/SnGgyAlbJc9CD3zLoZerru7ZfhlgNALAEIpchDKHgQdiUxvBgiw6DV8ETZAQNnWTTfdZBjloMzHjh1LN990M+01eq9gpVKxAMH2DriSg7sbIJTyLgYphKQCCLg2OZUW75rQzJMEOMsehG7RrbvFQ8oAYQ8DCHxZiG/39tYQgzZXQxKeexJAAFB444036Bvf+AYtX77cbAnUZ4OPHrXfoXLBMkCIAKemEqtXAwQFUVKyIgR7ozfcxbBbaPCd+BJc5QG+BrBEohyzkKSYy+XySaTPSYpwY4aEB2dvs1vRFTvXCHS08cVnuU/OXJYSJ+Ey1CQpJrO3XSWMXOYYus3RDjGEyo04B8HXBu+v8SBIig9p4qZEtbIimDTnyosojC3mlOBaa1fMmNuijRRb57XTXPestYxLRbUcKgflCg1+VmjtXMl+ONPJeQpVe7Ay5jG5nofnuBLG7Gfh7/bZRL+PPvqoIWxBeAH9Yi1A6IIb7FC3HSopNGVw1dXe3AGepyTJVbJPBqXdlYNgVyH55pLlhbSfNPlBTLzlOy9ceWCXjNrj4uRPjQzTyFX0I5U5cig1lDyL/cQ5Jva7MUAAhfHnr/s8HTb2MKPGfHvJ1nGO3PhO3/W14X5cesulR11z7NO3obFL49mJOnynd71582Z64IEHjOGAKoaCTm9ra+tUyICJMG7MdKxkPEyKTFqDdnFldqcX4dKlYgiAmE3R7tOO9zPlqVmwQuF29GibSMdWePbAwMpYAAiGUKZTIYf5PQ6AERxRwbnz3QpESRVMFNO5nWaeNHkR6JnHZG/WDpsaAKGl2SywxE+B/iRCGnPgrffnZ/HzWTlIZY6Yp5CS4XfDs1AG5vsUQAuIXQqSonNrnqdQP9KYbIFu5slDVYjyPXxc823PU4fyTMNZFNMMxoPE73lMKM/znSm8G9bB/MeDSozNPgcQ7n/6058MDwMSFRFuwE1zRx11FJ1++unRPfaJc8SCHs8KEUphDDxPBgTH6+Iae4eziXNnFVCZfkDNlGT4dIyL58mQEqWsvZKYA56nUpQUmiuofXsg5pjgtXM9j88NV6Bg3Mk5stsU9pMlmkz7+N8sw1j2uvYBnoW1Z/KmDnI17gd9SiXmLFfNbrPKUjG/uNcA1yjjZkSQA/FHUqYaELHTtaL1AIy3p42pu96fZThuqDzttNPo2muvbfcgZLNZpwcBaBgbnZWxa/I4U9qHvhkcsGAMMe25LGP7mewSTnoQOmzEPJFTWMcWMU94ByUTCxUXGmULxLdxGLQwQ6CvXQF9x2xlroVniw9zaYReUhnFCiWTzXS6qCiJkJOJk67D6vIOJJU/C3RWRqw07PFrAQIs15BljD45+S5kzdl7rh0fdARw0pjwewh8ACmfB8G0AQ1tTNnsYubkebVLCkOAxPa0uNYEP5PmiceENQmB7lw2ZxQQzgv3i1vpYCUsW7bMXDaDi2Xw/j46dTxDCxAKig9KNGFF8rsWAEK8v21adVZ+UHxsrSeFNu9P29PCDICFvRArMJ4n49UInbu2jPkqPG4hL4rEzVAIWdXUBD0tScpi1zM7hf+SICE2hPCOBYBgKW7ukz0IyQTTDvOezxsQAY4HibY6yXLKHgSwEJ588smGUEgCBqwTJJr7YpUjA9Viv8ftC8ZgDHh3tJ9SAQ2WP6E10Y5RMyaQEL744ovmngkwKRbkXXfxIIQsTEmgM4Ltbh4Ee9O4FoOFgsikWKIyR8yT5gKaUlUxSAAQc6Jdu1IRJWnGpKkR57WTQgya+WZwJyWxSeEhDsVgTCHGSTs85FNqrjEBgCHMANY4XEgDJjjNmLQhBoxFotI2XgaBA0By5/M8SQRAmvp+bS5OqXIQXHcaJGWLdkzS2pUySTEJADFm/Aw5CLNmzqQpU6fS4YcfLt7vwuDOd48GK8YO3rbEBDEI4TFJ+wntQ95UrAm8P7V9ao330nWmOJQKQBbycEpjMp7ibESHHjKEcOYwrtB9I0kDxjVutEletOVqh9JnVDiBTRKXVHGbMlGS53ISg3Sz0bXCvsuq2IOAzRdSDq54f1Io4OBIOQhlgNBe3y/FjCXh2RMBAsYklTnaHgSJRQ9t7X1pA4Svfe1rxi0sKT72IGhyEMoAoTnIF4EzrwEImHPj1QgAKQ0I7g6A8Pxzz9PMWTNp6tSpdMQRR4jjlgCCxugoFiBIgBPzxLwavjnn+WYviugt9qwde1AQKvKBEd4nGoCgYZ/lCwVdXlDWQwAIMB7qh9TTlVdd2f0ehN7IpFgGCNmCRRAKs0gxTI2nxUa6GougDBAiS3xHPQhlgBCJRq21LgEpTYihDBAigA+FpbGMQ15nnstkYqzL8NIABE7mDCWkY+zSZXKuZE7XmCQAiH6wN6XLv4oBCCG5WgAI9fV05ZVlgGAsp5CA3RUeBGkja9z52HilCjEAICEmLM1TbwYIvY0oSetBgDDDfuopHgRWxpoQg+QS3t1DDD3Vg5BcO5z7XeFBYIWrUsYZXBCWC5KB4T26GyBwDpEvj2DXAIS7qL5+qLnxshxi6IEAQRNikJRxSQGCov5bA1p6sgdhdwYISUW7K0MM2Jcaxcc5JhIjo5ZqWSJKKnsQorwmzTz1SoAQA+WQN6I3AwRTOVNVHcyL4BCD7EGIAMLVV11dCKt3Ww5CdyUpFnPgJcu4J4YYSgkQJGuOPQghYV1KgMDx2e4MMfRmgCAp0R4HEDLZQnKWz3IqNUCQqJaLkRdS2bCGKKk35yB4AcLMGTR12rRuy0EoyoNQBggmpIO9qwUIHTwIIEpyHVYkS6FDLnN0tdEcZpO1qbDWJcXHCVxAul0dk8aSgXCVqhjsJMUQAFK5whQbOZm16hOymtscNXMAoii+MjiUg8AJgb7xaBICi4kpom0xvBqucWFMEg+Cdky8xyUFokmctJMU7ZIxuwRVypT2Wet4X2Qqo4oBOQggRZFi68UkKUrxYJOsS6ng7YqaubTj2HYJbnKdS62MpTwqXjufIGaZIsWxNWdTM09sGWvu0QDvBm6ZDAG3ZNzchBief55mxtc9jxs3znw9dA54TKhAkfKaTMl3XDbrGpersiLZrph5ksaEvjShAekcYH01/eD9kKsRmidNlRUTq4Vkpp2D0AEgbNu2rQAQmBCHE8bQoVS6xcLat7G4bCV0kLkN+ghNBr+oZky+fvAMFrw8JlsQ2++Bn0vjTl6c43oub4hQX9h8eF6wtl3RhtcOhytUcpacA58SlcakWV+8GyfThMbEB1Cac8268LhD+1KT4IMx2Z/Q/uR2vjbm/WLSKRZ8Zh1ing78nd29WD8fQOCfo4/Q3k2eJ7zvrFmzaMmSJfTVr37VECRJ64sxa4SQvZ9CQFECd9pzYLvFffMtnrs8mfg0z5OvTIz3uHQ2pTGhH3uPh/ZmSBayDLPXzrUP8CwoGSl8wOfJiw4smWkrbMwvyLdm338/ffFLX6JDDz20k/xKzim+w2MKJQRqxsTzoDkHHc5b4kW184R2Ei+BJJvwaJYpEvjBPMEY1s6TT+Zp9hzuYoBsQGXTZZdd1p6D0Nra2gkg4CWYcyCkjLVIFyQjoXJBCEgmAHJtUmwy21qXSgqTSDep9PnAh1wufJilMIRx31TErIUeAI6FDvWD8Wm8MWin6UuTpKjZpCysNfMU2uxsrUt8EexpCQlinqeQFabxWmk8CLbFF1L+mnnCHgeJFzMN2taaDRIKzJwxwZHruRrLKbmfGDjed999BiCAB2HAgAHmXEmhCr7uObTGIauIlYRGXvCcS94YzZgY2ISMBc2YNFYo7yfOOncpOH43yXrUnE2WT/Y8JUEC3g1zEFIyLFN854nnzuWNQf8vvPCCUSwg3sIFYCEAiL7sMfkMAfvchdbOVnwhoIzfsfxNAn6WvayMpb0Skk0MWEqxvphvzFXoqgO8V1IfuMbP8iJkeDEPArhRrrjiinamVh9RkuYaY3ZBS4cZsWzTxqNAASDaMm2mjU8IYWEloiSeMEyEOCYh7MGoMjQmPI/HFAp7aAU6u3u76nrTgDtN7BVt8I6Sx0ZynbNLWLqLgQGCpLDsA+/zfEhjwlxLMWM8xxaMvnUp1TzxHtcSJUmuXMwNt2GAcM899xRCDFoehAL9M86w44NxM0AIrl2JcxDgfg258zWeD8054PeTzgHOnTQmTXhIGhMbONIeRz+GAKi2NmiFsmdWIhNKuvxNiCHmQZg2bZohSgIQBiul72OHh0KWsZQ4aZ9NKWdJkqvaJEVWxl0thdSGGNBO8iBo9rjv7hZ7jaIQQxFVDKUECHjRYPwuBgjSfesSQMALY8I0AIGVTMjNJ00+AwTJMjaxVwWDHM+TBBCk+uCeBhBYGUsAQSOo2DIuFQ+CFJ+V9gBbYBoghXmQPFKgPC0FQEiC964CBGmeeI9LoEVzDjReje6uYpBkGIO7EEDgvSLNQakAZykBgsvIcQIEgeCpGIAQMroYIEhJqHieBiAwKVFI9qIvMX8kkzW5HDvqbWN9ZJc58piSY+MzDbkaep6eKKmIKobdHiAIYQ/NBiwDhCieJlkyewJAwDuGBJom7IH9VDKAkI1IrkrlQSgDhLCR09sBgpTl3lMBAgB3KTwIPRkghDwWfJFaKQGCigdBBRASQshljWtiiqUKMRTjQdBYc5L1uLsDBE1eRKkBgpQY2xM9CGylSC5ozZ4rA4SOwMYlUzDfvdmDIFmh3e1BCN1CyfMvAYTrr7+eUMWg8f5omBQ5dyLk4dV4HI18ymTNZVQ+7wCexQAhpIyl8BCHuHHZXohG2fQTt/HpTLwb9rnEOFkMQJDLHO8297Oo7mLQAoRQQiAnbbCF2RV3viYHYVcABM089dYQgzY5q5QeBAkg2Jb4ypUrzaEfMWJEBytCC1qkMkeNF4mTnPDMMkAI5/5oz4FGyfRmgNDTQgw9GSDwGTTJpEinj/PY+OeQF7aXLKljNAYq+mYmxa6EGPhZ0vrahpcrbGC/M5decoKhHU7gEAM8l6HkSj0PQqkBQlwnLxHplAFC9+cg8BXUPlAmJULhez0dIMyYMcMIhwsuuMCU7PGntwKEUiYpJr0/vhwEKbbOMePeGmKQYtTacyDNU28PMUhxbJ8HAVUMNg+CBtwV40GAEfDLX/6SFi9aROlcnnKpPKXjC/ZwoTnh2vNUilIAD3mgh3z0B7AEylgNk0tUPh6hi6hN3CJqjyvGUWJe+H3nVuZZhR5SBazSoacUSuhzph/8DwW0/DTOz0c/KK01HgRce578oI94TJSNqi/M+FNEg+uH09nnnEOHHXaYeZ9dDhAwCAiGrioZPlx4IZ9LhbNWpSoGiSiJkxRDyWAaNzW7i0JkHWhjlxS6UFzB7YR76bt4za3Wog0lKfIaaJLKSgUQ2CUcWjuMi5GuVMXArvpbb73VWO24XGTgwIE7DSBo45ySB0HjaUGIAWcu1JcmEdcFEDC/qGJAmSMTJXGmdOiMs0D3Vgzk8qZMWUoOZmXc1bPJ+4ndr6FzpyHbwbtLVU9agJAEUsmxaUjTNKBFm3xnr50tf3lcWpnicoubJMXnnzdljrjNkYmSkvvEnoNikhSxJm+88QZ969b/ogWtKWodMtQoS9bU2XTOAAAo38pcRaT38ylKARmgND6Vp2wqR7kUlHaaKrNRdQUr66g5QEfUJpVLU0UubRQ7WqVjAIJn5lJZAzwq8mlK51Km/2goACQAA1nKpsGbk4+ek48AQtRP9NA8WqUj2FCZi2BE9Gl3jZjxprOUyqeoIotv5imVb6Oa5gYa1LCdpl1zDZ15xkSzX7VrV6wHgXMQjNfC5kFgIcHIROPuNe+OjjzXJuP3Jou0orJ9cRPSSGPxcbwfE2ODliToQF98lWYncMbI0yIcwvddbh4edyj5g5UahLmk/KX6WVbGXVUyGLcGIJh5UlwpK8XNNWuHNj7lb8+9zYPgUlhoayu+//qv/zKKFHW7tgeBXX1SxQDAne8aYx4XAylePxfItQGnT9EyUJTWl2OKmv1kt7H3Mb9/UvHhfcGDACbFr3/964YHgTO87XHbysNWxvbz7DY2CPYSYVkgwvVu3J8dQrLHZM872hiXcE0fJ/sft+Wsc59s4v2EPyUeD/QZWhOUcje3dNxPrue6xpSUQa5QTHLf4d/SmJLle9yHLa/ttZMy72Hx2vwdeBf2IIQAgr2Otjuff+6bJ/z8H//4B33rzjvpLx8+nbZ8YDwIcyLlbJwBkGFgGYP2ZQ8BK1zuPUeUjtvk0u5S+0I/tpfBVtwAHDFhmnFPsGK3vBH2ePAcyxvR7rHgMbO3w9UPnhWRp5l3MkZ1Kw1duYjG/exxmnrxBTRp4sRCKakpvUxHt7oCyNhzqT0HeFMQJYFlFTkIV115VftdDJlMppNZz4ovxMbHClTapPg9x2ddwpX7kawrGyBwtriZlIRXwsSqPIqPJ89G3y6Brp1YnidcloHaX9/7sVCQDiC+L4VrsCGkMkcNUVJongpHS0GTrcnOZ4DAQMonsF1uzOT62AABHgTsBR9AkOZSAgisaLUKxLW+tuKT9jjmyR6TzzLm/ZRkW7TnCn0lz6ZNtXzDDTcYgCBZxpoQA55r7yfXueQ2sJrMPHk4UXz7yVaiWitUs5+KAcq+c8cyjsmbQgYTEubsMjhbZtigNAnukufAtb7JNpx8x16NDgCBIoXCe1xKnMScY3w2SML8JomSzPpWpL0Go712/L7tlnS77uW1e/211+lb0++iX58+iei4U8A2RsbfbnSz2yMdzYNtnRegiAe/d1c/yee4DoGrTYbSSxfS+AceoGkXnUdnTTqzEGJgbobCXFqGOq93qA1PCHgQ4F2sr683tzkWZsxHlMR3MYRCDFqiJAxQ4jhgxSeFGJIehOSKa91zLDx9ysocnEzWKP5QGwj0qsoqkyXr+2jcijg4LKxDz9MCBBxkDeOk5FotlQfBzFNVlXdMmG+paoSVDNpin9gehB0JMbAy9lq9MVMZniVZ9GyJ+9ZO62mx72II7Sc8RwrF2ICTwSyHGOBBwJxJe04DEGwrNERc5FIyLgAozSV7NSQCIC3JlUYZa2SYlPSK55QqUVMDzPH+nHwXWhepGoD3rpMoKb6LYeqUqRFRUiocrtGCOwbBr732Gt1y++30q1POIjrxNKJcZADuUZ98K9Uum0cfeOARuv5fz6ezJ02iypiKXVo7nE1NpUPRREmlBghdJb3gJCAJINgWpm8TaWLrWoCgiZtrhYIkrFkQl8KDoAFSmnnSKr5SAwQIKwAEzAU8CDsCECSBXgxoYS+ZtOckgqedCRAgKJhJ0QYI0uVnbBmHlIwmp0XjtbK9ez6wVQxA4LMS8lqVEiAw1bJvH2hlAb4fDGko7mXBs8T8EYstVFpfCSAccfgRJqYvAVcpSZGBFIA5AMLNt99Ovz71LKIT9lSA0EKVy+fTibMfoWkXn0/nnDUpSl5k5V9ZFbzumco+CaMAACAASURBVO+cCXmwbYCgvu4ZgyiVB6GnAQRNaETjQSgDhNIRJRXjQSgDhOI9CGWA0Flta4Gy1oPQWwFCqNqDDRMnQHjuOZqJJMUpU2mnAoTTzyI6/jTEsvYo54F52XwL0fKFdMrsB00OwuQkQBCYFIsFCCqiJM0dA8WEGHoaQJBc5yaumI2ocb13SCgz77VWQ9mDEL6Pww4x7MkAQbufkiGGXQ4QFHcxaLxWWg+CxrWqBQia/BHNBVLatetuD4J046MrnwM/e+6550wVg7mLYdzhZC7mQ1jWc3W0NsTAodRXX321HGLIt9DgZe/R0Q/8lKY4AILEg6AHCEXwIJQBQhkgaIR1OcQQJeh1Z4hBq2TKAKHVJLH6wgvsytaEGMoAIdPpHoKdDRAAWl555ZX2EANyEPZQDwJCDONnP0JTLz6/kwdB2uM7DSCUIsSgEZ6aWO/OyEGQyuA0HgRNkqJWoEseBI0yhrDTVDFoLSdXGZzt49OMibPzpSRF3siahEC0+e53v9ulHARNkqI27NHTAEJyfTleuUtzEBQeBE0OUdmD0A5KQ/lIxeQg7KgHATwIM2fMoGnXXx95EFAOGkjsLsaDwADhpjtupycQYkAOQtseGmJYtpBOeuBBmnbxBZ1yEEoNEBBi4HyFVOi6ZzQKPVwTYtAABAjXUlUxaJ+nCTGgLympTEq+KyZzmQGCK8gGKwhjlq5BtQFCqaoYpEqH0LgxHgZ30i2FUkYuhxjYmutyFUNTM1XXVHuTqnyxV1/mvcRxoLFCtUmKocoKHjfGiQobQ9ISh8NQ68xESVzF0FuTFKWrlTXgTgOUNRVGXMrr49XgPaM1FlwhBi5b47JK20Pkkhl4llTFoJG9dtIgKw4uj0SZI7g1cBcDqhik6rBiAAJkr6liuOMO+tVpkyKAAJC5p33yLaaK4f2zH6Z/+1cAhLMKSYptrW2mgi6UgFisBwE8CAgRmXLdbDbbmQchl6em5iYzCEnoYa00JCPM/ORaW95skkWvufeAM6UlpcalchiPywXpK+1JWs8mSbGiMponR1krv1uyhtjuh9uErHUeIws9/jcLDbs/jKlUV1CHDjwLKsnzwRYf80X4zremHNQOezBAAJMiavr541o7M0/WTrcFOpeoIn7aYV0ob4ArK2Mz5+jGwb0B+lSjjD0fM6Zc1oAREM641s14WmKyndB54XLB0MUy6Mu4zisqzb7EvyEoIMwBEJgoSVo7tkKRfOc6U3iPJJAK8Tew4vNxJWCc9tl0TSevnSYhUFvfL8kwn0Fhc6tI1R4uRetT7C55kQQILhBh94e1xZnieUqui2vtXPuSgbnNB8Iy66WXXjJUyyBKGjt2rHl8MpnRHpMNWkIl7VzmyERJvzplUlTmuIeGGKqWLaATZj9EUy86n846c2JkuFLKMJiyfMKauNbYlT+S3HfMgwCiJMjTggfBx6QIZYxBABH7Ng3/PBTj403IbmNXX1qAIFUMYBxsEYRKdngMzI7nElbSmPg7Pqpl+z1ZoEvENiyEfEqG3y8JpOxnoQ3mCW1C9f14ln3gfYLYBwD5mbbCDnEAMGgJhQ80G5kVCN7NDjEUy6TICjPEgplUfL510bjFeZ4kEAwPAs4cr13yvGCObYAQOpsM7jBu/B0AAfdXsAeBiZJCY2KLT7qLgQV6SBa49lxy/CwvmGveB961CYGhd8O8MJCSGFNd3kRjYcXENPg95lfjQdCAFp/yt8+d72zyPmWAgDGFwCSvXbKNvTa8dvZ64GcvvviiSVKcMmVK4TZHKUSIeQqBOzY8MB4GCKbMcY8FCK1EyxbQR+7/CU256Hw688yJBaIke13s/ch7gPUY7zmfvGAmRRAloWyc+/KGGDQ8CLYy9lkNtkAPWVelCjEAMRvLqdJ/vSdbmKE2EkBgocshhpDHQutWZA9CSNFK84RxS2Pid+N5khSfpEA049aEYiA4sJFDwIaVMcYUvItBuOJV4xLGPGnc1KUKa3Eoxmet8zoV9lPaX2GTBC14F5tJkXkQ8MyQl1ALENj7I50Dac/ZQCokL7CfQlfh4rtJb1vIWpc8jprwEMYkAqmYSVFSohqA4PNq2PuEQwwaF3RoTDbpFPePnyHEMOO+GTRt6jQad/i4SPYGrlYuJsSAMb/++uulS1KE5y9wJYBvvwV/Duplc1PUTvzkW6j/svl07P0P0ZcvvoDOnjyJ0jEPgi2ffDpYU80DD8Jdd02n+vqhuuueNQBBm4MA4STR3kqCmIWnRJRUSoCgSVKUvBrYNpJLmNtoFK0EENAX1q6UtzlKeRg8bkmgS2EPCSDwPLFlHCRK2hMAgnD5l33u2IOQTFLUAATJMmZPCwSURJLjU3y8d2yPVAi4aq97loiSNBdfabw/xYQ9QuFG3uOaeZJAC4eHJMZJTXKwCyCgfyQpMkA4/IjDTQjOhOw8VNrFAATOQSgQJXXJg8AhxpimuRT63IQtY9rwnQkS8i1UsWwBjb//IVPFcPbZIEqq7JST5jMs2XvbI4mSNO5XjaVWBgiRO7QMELKFRKgQQMA8SfTevZVJ0XgQKFW4sMUl61weBBcPQqkAgsaDwPlBIUt1ZwCEkGDMtGVEeuCeChA0HgTscQ1AkK579gEE8CCY656nTouolmMPQgjcSUyKdmivA5PijgAEKPFNayk19y0atXErbRk6jLaNPZxowGDLm7ADHoBsG9H8OTRs6TJa98EPEw0aZN3/oEAfwXskEt/PI8Qwn06KiZLOmXyWoVpmfSBVoBQDEIYMqS97ELQhht7sQYDlVIoqBjuO7dr2GoGONlKIgUEibiZDmVRIwGg8CLs7QDCCuNJ//0cZIEQJphItuaaKgeWFlLCtzYsolQcBSbWhi5G0HgRNZZQLIGCP/f3vf+8IEEp0FwPGXqhiwF0MO5qDsGED7f8/j1DtygWUyVdQVYpo0xFH0+ozP065/gOJ8jmibAQSCQm9+CDB19z5YLJ749sjK5DxG7dvM39WLJpH/Vcsp83HnhgBDrRFEiUuI+O+4FJB5QX6w/fTfGZNtrMCSSCBqJVqls2j42Y/FJU5xgAB69+WaQsaQniAHiAUSZRUKh6EcoghugktZMloS6m0HoTeCBCMq7OiMggQbGuufBdDGSCEku92e4AQX1rmcy3vLgBhh0MMUMAL3qMj7vsRbfngCbT+mBOoevFcqlqxijZOPIdy9UOo7/y51Oe9t6m13yBqPOL9lB82kqoXL6Jh896k7VXVlMrmqbKqhrJ1/WnDMccSNW6hga88S1v2O5T6tTRRnyXzaf3404hq6mjA3LdpwMIF1DpwEK09+hii+qFEmzZQ/T/fJNq8lraM2Y8yY99PVFsbgQ4TolCAhHwLpRBiQBUD7mJggBDnSJXOg1AGCDFAlO8PMJm03Uy1rMlBkOKOnINQBghRSaFUWRHKOteEvuz8EcnClFzCRScp9qAchJ4YYtjtAUIP9CDgCmlN0msowZRDDDAWXn3t1R1PUoTyXbuajpw9nTKtTdRwyGG04tBDKD98X6Kho6hm4Rza/09P05YRo6jPti2Uq66j5ZPPpT5vvEIH/+Yx2nrU8bRs//1o0KqVNHzBfHr74mtoxIol1O+Xj9DKCy6j/svfo4HP/53mXfF5GrhmKY1++mlqPmgc9Vm1nFpG1NOC0yfRXs/9hQYsX0Wte+1DqWVLaNMJ42njCeMjD4MaIEQhho/cH9/FMHmSkW0sn3o1QNC65yTLmN3UmJgQsUt3JylKFQNQIKWqYigcnIDi0wIEbTy4O0MMGg+CXcXQXR4EeNKkrHMplq+NY2uIkrT7yU5029EkRa5bl7LzeUxS2EOTfKdJesU8SbH1UgIEzZi6PcSwm3sQsJfMXQwgStohHoQ8UWszVSyYS/VvvEF9Vy+n2qZG2jpiFK05/Rzq9+ZrNPK156nlgHGUbtxEtevW0dyLrqLq5fPpgP97iuZ89grK7Lsf1S5aQGP+96e08sRTaPDa1VS5cQ0tPPdiGvXys1T/wnM096L/RyNfeo7qt2+lNz5+IdVt3kz5daspXz+cDvjFz6i6qoa2jgIgmU9Ne+1Niy+6nKi2LgphaDwIuVbqv3wefeD+h6K7GCyAgByaUNVIl0MMuVyCHSaumeYqBolJEe/Y1aSjQrJFZZX3kg+2roCWfABBW74Hz4Cx5gKUoOxBCMX4uKRQY61ziCHkDuRQjK+NnbwTClds3769UMXg6wsVKEZYB+L92vwCJtvxBdQ0lrE2BwFCn0HL9773PRO2AbFHsdc9ow9WxiHOjIJlHBMO+RICSwoQqmNSIk8muEQoZfZuTJRk849AgYEoafHixfS1r33NkEuhrc/i4344mTNUfmqDFueeM6HYTJTEFsid0AAp7DcucwytHcexg0mKSPhMpUQZJnnuiuFBkJ4nAUCsC//HXC6ufcngTrLWtTkIySoVvLO5rGnmTJoyZarhQQADX6jqSTumDjkId95Jv94RgID9Nn8ujXr7Tdpy+Aco07+W+i16h0Y+91dadNzJNHztOuq7cA6tPup4SuczNKgtT4tOOJn6zHmD9n/hTzTnkmspO3IfosbNdNAvfkYVm9ZRKpujxSeMp+ajT6C9//g7GvDS8/TOhZfQ3n/7PxpSkac3z7sEGpRo8waq3b6NDnz0EUrttRctP+Bgqt2ylbYOHkyNHz6VqKamA3FbMBkBVQzLF9KHZ4Fq+Xw666wz1R4ENgykJNQNGzaYq+BBlMS3ORouhJaWls5MijGpimFSjKlafQlq+LnrAGJg+OBPF4GD3R8rdqmcjksKJReWJucBbYLkKLl8xHwXUAw8+SFSInZBSzkI9oFPzg0LXM08aUELQJJZu4q0d29CWEseBB6TJPQ5USbUTlJ8Uf5Q+5gAENDf5z73ObKJknjOQ8CV50kittGUqPKYJLIdaS7RjzhPsaINKQaeJ/vcMQBDxjkTJfGcJRU6n138XDWm2EsmEQCZPZcKM69CtuLcSUaHxloHCDZzEN8s6HpPvF9SPiXbadaX50nytPDcgk0zVAooyQvN2YR12drWGuSL4H0huald5wBjePGFFwxR0pe+/OUIIChyrXDOJfImDseBKOmW2++gX5+2A0RJ2SxVz5tDBz9wL1UOHEgto0ZQ9ebN1LplAy2c/AlKNTXT3v94iZaffBaNXLaYajeup3lnn0d93nqDDnrpz/T2RVdTBgAh30qV/3iJDv7ZbEoPG0HvXP5lyvfrT2Oe+S31ffl5mnPZ1TT0nVdp2Bv/pKWTP0GDlswz3oKFp51BB/zlD1TZvx+tOvp4Gv63v9C6g8fR1gmTUAuq8x4YJYrrnhfR+Pt/TNMuusAwKRpZE8sCiXytQIQFBlebTtaS/CBKgvEAgAB5WmBS9HkQmElRiqsm3ZhJ5Wboa2OhgM3DByTZTpN1zjdM4hD6PmxhSvHnDvFgUyKboNkFQOC7GDxXl+LdQI3LnAO2YCm8Jwv0VLpTxrE9F2ythQQj3pmRtc8zgDbNTc3G7eRSxiiPw7vygZdc56zUvJ6I+CbDwnxjGmPuf4wF32OLz3UXAwPIggdB6c7H80CUhD7B/MVUywy0CmvnIUbB2oFO3GYttPcU71UIWYCoEAsmh2skrg8+qKG8CEO2U13TwbPDa8bjwx5gelXfObBDMdyGyxxtquXk+ibPp2QZF+bJssRDe4UNCu8cZNspqX3ygsONScs4OU+uzPvkfGnOAXs1DCjD5oZnh8VF7OXhMYUAAgNXm8HVZ/nj5xxndrVJhghtI6KwT9oy1NLaQrV9ar2GgA0QJDIlnAEbmLIHgamWDUCgVLCyAt9h+mcDzGJ5ZGRF/HeMicNDr7/2Gt18xx30a1zWdHyxVMt5opZGGvCPl2n4G29Q/4ZttK2uL20eO442vP+D5uKnAS//nYYsW0D5dB9a/cETafthh1PNW2/SyDlv0vIzP0bZ+vposTetpdG/+xVR/UhaOWGykaH9X/k79Z/7Jq085zyqyhAN+/uzROvXUr6yiprfdyRtGvc+Grh0CfV/+QWqaNpGzUNH0ZqTTomSFzkHwavJrF+gzHH5PPrw/Q/R9SBKOvPMSD5At8TVHj5Dj41Y7CWJBwH3tAwZPISuuPKKwjoHmRSleL+G40DThkMMoZdgN7VElITncbwwJIg7AATHIhmFnc0FNzvaMGgJIXB2GYasPm3YQxNXtceUfDVWABqlprFS0EZyv7LwLOVtjtgH3/nOdwoAodgQg0ags/CUDhfvOQlM26DFtTc1oRgGiZKbOnnuWFC4iJJCYLq7cxC4mic052hTTC19yIOpLXOU5IVmP/HaSZ4WKT+IvXYAuRwmde2nUlcxJEEpxokyR3gQcBcDAIIhSkKOlMeoYsApUS0zcV6XeRAiLUqVjY1U3dpKrZVVlOnXj6i6OgJ5LU1U07iVMpWVlO0/CC5VoubtVNG0nbIDBuFlIhGazVKqcRNRRTXl+w2Ivru9kahlG9HAIUTpKqKm7ZRq2kZ53MvTv2/kJcjkiRobKd3aTLm6vlEFg0FDsEqBLj1xxA4WNDwIEVGSAQhnnVkwWOAlM8DN4wl2AQTXXgGT4t133031Q+rpyiuupFRFfFmT7zZHVjLSTW8YgJSYJLXRCOJdBRCMhe1ZQ3ZTm1BMVZU3Y767AULouuc9ASDYFkgIJHY3UdLuDhA0Xg3IPclrxcrYZ/H4PAguryS7X337QAsQtCBY8iBI+QUMItiDEPIQmSqrOI+qKwCBmTJDXskQDwIDBL7uuWcBBNsSj90+7FXkUsPkJPt+blCBpQyMJ4l/xp4l6xncFD8q0DzDvYpQm8XsKHkR8i2UXr6Qxs/6CV3/rxfQWWeBSbGicElaVUWVUei+D9+SWwgbOLyqDBA4B6HQtgwQ3BPLHgQNQJBojSWLgF2Pkjtfo/jQVwggFNyPGV3CGI/Jt/k0Y+puD4J2TN0NENgd6FOQ3e1BQFgGzwyBWynEgH3B810qgCCdA/YgoIrBp9Q0RkdRyjiXE8tmpbsY8DxNno0GtGg8pVoPAudzdBkggEkxJ1Mtay5rsj0It4AoCTkIuO55t7nNMQE2QiAh30oDl82jYwwPwicLSYrseUeeoM9jg2611z1Pnz6dhuIuhmuuLpyrHhFi0BzmUnsQJItACxBKeReDJBg1im93Bwh2SMMXYtDMEyeVdScPwq4GCMnLmkoNEDhGHbJ6tR6EUNijDBCi+12kUOouAQhxiCGUgFksQNhhoiTJMu8tvzcehCjEACbFyXEVQwEgBLzXOwIQrrnmmoKjZKcDBE7wkRK4SnVZk+bgaOLmuwIgSAdeo/iKAQhSHFuTg6AZUzEeBKkixF47vs0RSYp2DoJ2TLvCg8DxZw712DKK58mXOGnaWlUMoaQj19pxmSOSFP/zq1+lAQMH7jQPguv97IRAX16ARl5oQwySTOmpHgRN3padhBoKn2jvYgiVs7PnIwkAkzkIuIsB6y5VmZUBQpHIxFQxLKTx9/8kzkGIiJJ2G4CAjRTaNLvCgyAlHWkBgoYoiQWjRLXcnQBBE/boboCgYeNjBQJhBaIk7Cu7ioFd3iZ5J8Bz0d0eBMz3qlWraNXKVZTLRRdOJZNbTEJRWxtVVkbETLaStbPU8XNWsNwmqSTwDHxMOV38ac200e+f+T2tX7+Ozj33XKqr62uysXHxi+/DQgi3x1UEEqFQmphCpY7J9Hd/oj2XoqqqShoxYiSNHj26U/7SrgAIElDWGh2aEANXxUiyQONpMeuL+fZU6mg9CFoehBBAmDJlirmsCWORctKKBQgmxLCjdzEUqYt7ZPN8C1Utm08fnI0kxU/SOcyDoLyLoa0VMsWfOIp3Rg4Chxg6eBCy2ayTB8EucwyVLUFASTXwkjLWWPTFhBgkV72tZEIxTDupzLVxWMlIOQiaxCSNRYD3ksaEcWquey4VQNDMpcoyVsZn7XliHoTLL7+8E1GSZs9pPAjFlBSGzgHO0+OPP06P/+oxylS0Uq4iTTmjSjuqU6P841K6qAjMhHWturr4r+Zr0e+56q5jqS6+hTwT1NtDaUfkOi2tbZTLZahPn9pC71DsUQ4VvsN/hzJHrXWK8vg5rrU1ZavR3w28SYGTIqqtzueiZ6WhrOKxRYIl6tO4PvI5tKB0S4o+/IHxdO2119Egcwte+4dBaUjxFVPFEMqL4PMkAYRiQEswSREcD8iGTwv3soDELEBAZ4yXmAhLAgisjCVCqVBIhz0tyeoLvIshSpo1ixggMLAJ6YxiAALKHG8BUdIeDhCQpPhhUC1fdD5NnnRGVAKbyxvysVBoj72pUvhv48aIKGnw4CFkAEL8STU2Njpvi+B70iXLn62ZEPJyuRvt9vZmCrWVLMwONbUeVG1EbUziFErKMaItlwvWjuL37MaUiF0i4RoRz7jeUTsmDcLV1H8XNkBgnnjM9p/J57Owksg6NHfOY26MUvSUSPHaMQD84Q9/aCzkS//fpZ2IkkJj5n40THuaecJ48F/IKgRAuG/mDPqfd35LDZPqqGGguT6OYLtnCYoTwAB/T1EFlDL2H5REPlKvsbqO20Q/Q3uoZfSR/HtbKk9p01vKABH2I6CfynyWMkaJV8Rt0H80lvZP+xMrKE+4YNrMaQGqROM14zTgI2qfQj/xLzKUpwqK/n8EELJU21JJdX9opGOzY+kb/3kD1dfXd7CAeS5DpYnG09LaWkiudJ2n5NnWyCBNG9/54zH5XPUub5Bvj5pzYJ1L37h4jhgsJMfGhpfEopd8nusdXWPA915++WWaPXs2felLX6KxY8eacds6IfneWrc4j+nNN9+kW+++m544bTLRjlz3rBGYPb1NnINw0qwH6YufOZcmTDi1YJT71j4ptyRdt3nzZnMr5+DBg+myyy5rT1JsbW3Nuw4TBBoEXoiUiK25EIrVCE+8DFvGoQPI2fldLb20rV6fAjCKL5szyornp7Mbt535Lqkg7YMBS7WxsZEaGhpo/fr1tGXLlk6vKQmnYvawBGw0fYFBEnH9IfVDzKapq6tzujOTAMG1EdnicxFK8VgY6Woy4dk78P3vf98cFHgQmCiJlT/PQchDJIEW3gOoMda4hO02yefCq3PPjHvp0XXP0NtTaqh5WBsRVcevDys78hPs3A/7G1zPwu9Q881jcdkNUPQMV3zjRZsI9kT/JUBHQx/af/pWOnXxgXTzN26iYcOGdWiRlBeu9WPPHWRTSPBh34VyPljuoI/Q+qIdKyzf8/B7Lhd07QN+L024kfcu95OUDdwXxiXtS8mDgD4k8jX7bNrPwzhfAJPizJn05SlTIibFGOCH5olDGr6x43k8T2+88QZ9e/r0Pd6D0G/ZfDru/ofpSxedR2ecMSECCDHrqLR/+Rz49Bj2AEIMYFKErEfItlDmCCZFF0DguxhEgJCLQwyewKPGPYcNIcXBtCEGZlIshrTGheQN+o7j2FI9ti+pDO8FCkscIlCGIgYNgLB169agYOuqkuiqN8JY6OkKGjhooBHg++23H73//e+no48+mvr27dtheLaVEhIKnKsR4v3XJJVxPBiA7Lvf/a4zB4HHFHKrsZIJhYfMvkT8rirMQmazd7r2En6G+zGm33NXDBCqqHlYa6yQ24MIkT3OdrldRG16TdD32VR+ob/b/UC54z/4HVz9x6EAM44kQGBwwQDBQLFEP9ynr58s0dZaOujORjpl6UH0rZu/RcOHDy/sJ1uJhvgLOGQl3TFgAwTfmdKE/zT7CWPHHq+uqu5AWpM8E5rnadpo8iLQD8aEclApxCC5oF1eSczL888/bxQLiJKQg4AtEcr9wbg1VMsc2nv99dfpljvupF+dcuae7UGIr3u2qxgYuEkhBl67kJcbegpESQAIV1/djWWOtgLxHdJSAwQ8pxR5EcxaGEK6AFIugIDvLpi/gB7/n8fp3XffNYr1sMMONTHX6up2y6eUngOXgt7R/lkIA9DMmzfPHOrjjz+ePvGJTxihznNiA8BSAARsYi2RDpIUk1TLbO2xRyoE7qR7D3hfapkUQ3HcAkBY+wy9Pa2amocCINj3YCjuhe8qcjTfxzO7w1vhGWxDTQQQlhzYASBgveBlw37Duuy///5Gsbk+WoAghZBsS1Wz5yT6dgMQqqs77N8dAQia/CAGCCFDqNQAIendswHCtGnTIoCgIMLS5CAwuAOTIu5i+NWpk/ZMgGCwegulls+n8bOjMsezz2q/7lm6zVErw3aIKAmHRvQgKJIUtVUMIcIW40HY3mSsudCYOHdCAgjGSg5kb2smlq2GpBWKgwnX2E9+/BNqy7TRcccdR/vuu69xg0vJQCXRASXohK05vMvmzZtozpy5Jt542GGH0Wc/+1kaM2aMAQkMECSPjcaDoL3umUMMpQAI3cWDAIBw1z130c/XPkP/nNaHmoc262hWS7CWPaqLhho6ZPo240G48Rs3GhCwfPlyWrBgAcFaXLhwIR144IEmUWro0KHefB0N+58UYoDy9rn8bWCdDKMl55Nzi3zGArfnfjQu4ZCi5bOJP6VkTkkZc4jBFdqz54At+mSIgT0I119/vRogFEOTHQGEPbiKAflyuRaqXT6fjn3gYZp68QV0jgUQJK+rRo9xiOGuu+4yZw634xZCDCEmxTJAiMpDQh4EV5kjhN2dd95phNuECRNo5MiRQauiRwlwazCcBIX3wKGG8H7iiSfoqKOOoksvuZSGDR9WBghx/gxASwgkMUB4dN1T9NbUWmoe2rJnAoSt8CA00NFv1NOpp5xGq1evNh4q/Ik5wl6D92Dy5Mkm8TTkleL8gtD5ZGUcykWxFTYn2bnOJJ8HF0CwQQSXqIbyI0KKnfvn54U8g/y75Bww+GHjzGcwMdhIVijYoTL8zs5TYOCAP+fMmUO/+93v6Ctf+cpOAwgFoiQwKcbVG7LMlJgKE7dtOTuU+uAwm5mtwJCkfmzvYaIf0DLnmql6+QI6cfYjNPVf24mSNMpfKbNczAAAIABJREFU02aHAUIpLmvShhikS4i0HgQNTWnBLS5c5axBZ0mAADcpYnJvv/02ffzjH6e99957p+YbyAelay1YALEgeeutt+ipp54y7/bRj37UKEVJObJLOHRZE0ZpOMPTFR1uMkyO3k6M7Y0ehJ+ue4renlpLLcaD4L9qu2ur1oO/vbWG9r9jC+31TJYG9BtgEnYBPm2liIRYWDKcjOwKk7H1bER0XJWUfOukhe3KtcLeTFrrvNddQMA1s1CgSe+AC2hwv/aZ8gERW0G72vA7u8CD3T8nV9qAJDlf+LcL/Nh9u5J+8b1t27aZd7/hhhvoiCOOMH+XeBCK9SDcfPud9IcPnUqZ406iVHxleLtqTubB8G/icmHrjEXUI6yMUduDv3MNUFxoY/Qz36eQo1ThQqVEOXIhRweVQmYHtV/waUqD25V+KpWNLmbKd7zXp70sGWON3gP1Rh2DjXlK55up/+oldOiDj9L1F3+KJk9uDzFwNU8IJGtyEKIQw100ZEg9XXXVVbIHoVQ8CJpkGmyqUgEEViBSiIHd1CHLoliAgD7//Oc/049//GP60Ic+RMcee2wwjNGDxbh3aJiTp59+mlasWGESk2DtYf26GmLYEYBQiiTFUoUYJMHIHoRH1v+O3plaRy31TR2Fk+ee9t64R4Jj3lpN+9/RQCfM3YsuOO8C4zkA6Fy6dKnJP4DAe9/73kcXX3yxSZhyfXDO+Gx6n5XI8PZZ4XZCYBIMM/hgxe4KSfJ3OOkV+4mVMYMPe4wc0vDJHbb88cwkWZbdTwggcDs2zqTcCW0yZ9Lrgf6RX/XHP/6R/v3f/914EKRzUAyHBd4fZY63fO979F4mT5kBgykdl0JDiZsaGZO7ayvvvOHtMGXDplwYzBtonaJc4YIkkH7ELCRxG8CEQi2R6RPqG/3gEeADAZ9IpLqNri+AjRho5AEQIg6Q6LkWUMGzzA+iNoY5BJGDAolJ1AcDDb74GuOJaosyVNO8jfo3NNK0a66liROjKgajN9syxqAqDUC4mzpd1oQqBhfybm5qNoOoqq7ynkGNMraJbUIuN6nURlvFoBkT+uID2BWAYIRCc4vJi8BcbdiwgX7wgx8YoiJY2CzgfBZObxX+y5Yto0cffZQmTDidzjvvfEI2eYgHQetB0OSP2PvJBghwR/PHBziTFhEnlYXcrxpOCc2ew56Yfvd0emTDUwYgtNbDg4CyQls0dVei4i7ceVur6cA7G+i0pYfQjd+8kQYOGEibNm8yFT4ACq+++qo5N9dee22nEkhb8WHtuIrBq/zbMkZwQoD6rHBUKkEK20rUPq/4u50QGAp5YI2RHxXaT65YfnJsnKTISsAHkliG+VaTKwb4amUXqOCzgvcK5WT5qhhQoTVzxgyadv31pszRBRDsOWOAECKU4jFhPJCpf332WVq5enWktOHxQel5bHMbjGBxRoCTA8rYEIPF3iWjsM13OkCsArMHr3G6oqLQV2TPJ6qDoCoNERhK32OQ0KFNBETwf1zHEyGJjuEM8w6mG4AO/nXHNiixz+ZzhuWUX2/wwEF00vjxhfwvjNu+iMl3DnbEg8B9pdra2kyZo715wNDU1NxkNgwnDhYebr2HceeDyMVDwYrlMCg6bsNuLOPSiieSlTW7sJyxOaCtXI6aW5oLY7IpZM1mSUVkNXy4QvXBNkBIbjB7C/Fhdrnf2LowlzVVVJo5eOmll0zuwcSJE01JIAuK3Q0gYFMi7rh82TL6ylf+nUbv3U6Z61pjrImGklpT3mW7hBkgfO5zn+tAlMQhJIQrOuxNyxuJNeGkMkkwdshDifuwz0uyzJH3lN0GHoR77rvHAgh2mSM6hT20JwCEKAcBSYo3feMmE0pgIYnzDcIWCLQRI0Z4b5lka50Vn+t8svXMis93Btl6NgDXWH7x/ywyNbOfcLVy4Op3tGF3b6ik0OWqTyr4pHxK7ieWqz6AwLIa+xJz2ae6jzkHOcSzEwqVlbErB8EeV7KWHr/Dz1588UXDgzBl6lQDEJL6oKBoYnUM5r9iEicxPrwDLGWj8nFEjF5NUS5eI7B35pmgKba62fqGgkY7w/Dp+bBHKnQfRQFsABwk5rAD7DCeB2CYCEhEH0tpMgsmQETaBq7tbYwey2Si0G11daEb6Dz2eLLOtit1fOdAY+SgzPHee+814BxJioV1A9UyYyu8WjTxOSPQGSDwpjJfsmQYFltCsfi97c7nF7Ofid/bJYXJ5/CB2N603ShdduN1WhgLIEgVClwGF/IghNqw25Fvc0RbWNWvvPIKnX/++VRfPyQCj7vhB+++aNEiQx186aWX0vjx443lVFjbxGFkD4LxSFX5PVJagMB7ju9iAECwiZIKAKGio+vNVhK2Szgk0KVySRaUkmsVAOHue++2AEJMg1zgHNiFpYfduUcbaugAeBCWHEQ333iz8RLYrn177XzAnPeTxINgAD7uhwgYMPAggAzN3gNJMGGPiafKlhu2LLBlU7KNkWMx+VohS9zBmBgqc+SxmWfm8uF3y2YLyjgUrtB4NVweXswLAMKMGTNMuJEBQghIaUIM5kxlsubdWBd0pBGPVsFXgWJvZxfYSm539APQgv0U8nLbIMnXTiPDQutr4EQcckc7iQxM8g4wwGIA6Bu3FyD4qhgYIJSStTCkjKV6TlvJhMakcVMnhZBLPrI3whYctiDjhWTLGJbPbbfdZsq2zjjjjEKCVXfK3u58FpIxH374YRMvRtkjXPwSoVQoSbGwkVNpE7Lxfdjdi3WxL2uyb3NEG/wnlc1Kl+vwmDQ8CAxafHvc8CB0CDEAIBiVoVi2XcldACuImRFLgHgbqmm/6dtowuKOPAg8CUll7JrPYgCCRADkSmr2AYRQLF/jOsc7apUx2kp5VHhmaEw2D4KvasJWIKHnsSHE8pDl44svvEj33ncvgQeBkxRD4Ub2JkJOhuLmbDC6AJmtRF3lmUmAoJknBgihMWkAAl8HIPFqmHTEAHDFeLDPQwBBI5/s9eUxuc4U8yCA+lxV5tjtACGTCW52TBa7hENWaCkBArsDseGSk2pbDRgP4vK33367KQGE0vRZPwpt0Cua4P2ffPK3hBSWK6+40pQ8ShZfqaoY2CPlAwjskZIAguayJilRtRgPAngQHo6TFFvrQbVsRJ17vbMVUdQBlyNV1BClkelfAgWt2l1xUlYGz8YYKonM37NE6S6OoaGa9r+zkU5f0plJ0cAluPNzsTvf48plZQwlEzQ6BJnCCltUxtmc8apKik/Kzt8VAIHHFPKSSXfcYNxJgMDvwgChGB4EZnfUAoSQta4JjWA/acCd5JFigBAKX6sAAvJeEIZgD4njTJqwSgaXqvm9Gqz8Q3KO2zBQ9s0lAEJRPAilAgiaBC52qUjZtt0NEDRhCBwcTD7qgXGr2emnn14obQy5q1Ry2tGI3fhs5bieYVtAO2MMjOBBYvLee+8Zak4QQXU3QLj11lsLTIq2B6F3AAQPD0KeqHJrmobNzVF2cStVVaZp29i+tPmALFEf9joUs3tSRNlUVD9eaVKsFV+uINpUSUNeaaKt++YpM6SSRrzcQpsPqaSWA+LEKkUvziYxQJiw9GC65aZbOlAt2wBBUyqnAQghY0ILEFiGSQCBEydD1iM8pcmQRnKetKXaGssY8kmy1rsCEJCkiBBDMUyKWoCgWbtuBQhx2KPLAAHXnlt5ea5zwgCB82xcbTR60wYIoX25xwAE7eGy8yJ8k68FCBBmzzzzjEncAxUxEj1KrZgBjjjrHu4n/B3/QTEi5NJ+mRJRQ0Oj+R3GDwQacv/vqJzH9xYvXkx/+MMfCDkA8Jp0JcSA/rQ8CLx2PQkgYN8hjIAD7bJEuMzxZ+t/R29PqYuZFPluBKMao6VorKTRv2igwb/eTNmWCqrIpqiyb5o2Xjecln4oR1TVMdu53auAy1uQHR0nckX1VkS5Cqp8N0W5pmbKHVlDVBUlDbdf+RA/F7VbJh6Of1cRLUzREXduopXjq2njuCo69rbNtPTs/rR2cprMdY2mfSLL25SC8RUNntBJQzXtO72RzlhyCN1y0807HSBIzKUaebEnAAQoj5AC8XkQejpA4GTVkngQygAhklFAHb3Vg6DxWBSbgxByY/LBQTweVQyf+tSnOiTMdUUB29/FBU9IDAQYQO04kkrwHyiPR40aRQcccIBxSeGDmnIQ0OD+B7QHWVOIlW5Hx4jSNCQqXnLJJfThD3+4IGCS3g2OO2IsIasAAAEgQ7IeOfRjlzl28CCgRCgXjs+ymzrEg1AALYr7IbAWjzzyiDk3uPYWCVuoKcYa4J3xc4QYfhYzKbYMZR4EPKX9IqY+r+TowJ80UMPhdbT0+Bqq2Uy0758209b396HVZ0Z3EwyYmydamiHqk6fsEX1o28gUpdbmqf9LTUQjqimzZjvlB1VRy1FVlFqRo8Pu3UoV1Sla+IlB1FyboT4rW4n61lBb3xS1HFFFtZvzVPnPZqLtGcofWEuNB1URrczSUT/aQitPrqN1h1fS8T/cQks+2pdWT66gAUsrqXJOE2UqMtQ2ri81jaqk9Kom6vtmhrL9KiidyVPjiWmifo7M8QaUOTbSad3kQSgVQDAZ5YEEW97jXPLrO1OaJDYNaNEoPvSj8SBItfR4Fy1AkJJ1i81BCBlamnwOzTxpEic550LyWKhCDGUPQvvx0ChsjatEm4OgeZ4WINglJD4vAx8csCe+88479JnPfJr69u23ozrX+T3MDyxQXBeN5wEoQCEBNOyzzz601157GQAAYFBdVUVr160z+RoABtjQ8GggBFBVBXKN0g1t3bp19OCDDxrOB9uDkEzyspNpklaKDSZ8h8vuj9cO74WQDoQ2qkb69Wufc2SKI2YslbomhR765g+Hcligs6DyJc0hSRWu1rlz5xqX7ujRo+mggw4y5a4HH3ywWYOHf/owPb7+9/FdDDZRUrwo+TTV/byFDnitjeZe15cyY7JEuUqq3JijVF2a2irTNOyPedrrjw2UGV1J1RtaaXO/Slp84SDquyJHB/5wLW1+fx1VVuaoZn4zrbugL20YmKaxdzZQTd8Uzfv4QOqzqI1G/N9m2jp+IK0bV0lNe1fTPo+vp6q2NNX060u0ooVWnFlDW8fU0NHTN9Oqk2tozbg+9IH/3kTLP1ZHa46so6NmbaBK8KPkiTZWtdLSTw2mIQtaaZ8ZW6jhmDpaM7aGtp6WIhrg2Gtbq81lTacu654Qw44kKSZHzUpmtwUImYwB98W6znE2kh6EMkBoi7g3Avf8mCqG+NZLnzTeLUIMGqSrUdgMEEKblAECDqmvigH9cFmLlAGsCTEUAxB++MMf0pIlS+iiiy7y3kK3o6oZ40D5JAAAyvnmz59vAAPeAXOBy21OPvlkw244bNhQ2r69yfwdl0QBKGDOIg9ClARWKpDAd4gj8xWgBZva2MOJMkdO6LQFENPT2gqZvVdSiSraoQ0AEvrGnNjPxDvi38lnuOaf8yYYhNjlZ0nAwO/myv/Az0DqAk8B/x5/on94EiZNmkTrNq6nP+Reoben2iEGHhU414nqHsnS/u8207tf6EOZ4XHRN1VHTG7r0vS+WzbRtkMraMElfaluZYb2uXsTLZ/cj7L9qunQ+9bQomtGU+M+KTr2zvU056hq2japhg7+bhO1HlBNiz7Zl4Y91kDDXt1G73xtMNGQNhrxZIb2+nkTrfr6SFq9TyW9/+FG2rSuiVacPZjed/86Wn5yDa0e15eOum0DrfyX/lSzJUf1TzVSxQkgpspQ2/NNtPRf+9PQXIYGPdZIi64dQBuP5SoUhwehGwGCJsFUI8O6GyBoZKbGMlZ7EJQAISmf4Xl44cUoB6Fw3bNQfVH2IETlmb0GIGQyGUOUZH+4jMjmQXAJVxagIeTJSlsS+lzWEnLnQ/gGa+ljQiXUzErPw7h8pT94V9tSDSXfmUz4qmq64847zI10F154oXErl/oDQID7Hfbbbz/DOMcJU3g+LFX8HFS1a9euNWQzABOwXOF6x2VR7IJnAFWK8eF5s2fPNpTStgWf3A8MELhcsEPpKPObmRB4RNhl3g0/j/WjrbRR+40PSiGffPJJ0/YjH/kI1faJrwaO++E1sy3/pBcAew7gyS7/sUEF2jPYKIwp7j/paYB3B2EmUM+iLbwIAGUIAWEdEAJ68ZWX6PdtL9Fb03BZE1/3bEoVYiJ4or5P5mj/PzbQyk/3p02HVVBVS46q52QoM6qO0lWVdNi319KWE2powaf7EW1I0eG3b6Clp9RSw5BqOur+dbToS6OoYXSaDrxzHTUeUkVrJ9fQAd9rovSYKnrvU/1o6P9sofq5zfTuVwYR1eVov58304insrTwloG0blSKRv1PI1XPb6Pl5wymox7YQstPrqa1Y2vomNvgQRhE9cubqfoP2yl7zCDKVGWoMl9Fi89I0dB1LTT4V9to4RcG0taxfMdEe+iksN8QYrijkU5bdjDd9M2IKInXhfeJdDY1LmFWoKH6b3Yb4/mhLH8+M94kxTyRTQAUTFLMZMz7htrw87zyKZZzUmUF9jeTEoXeTzKEsHbs3eMx8dwxUdKXp0yJeBAA3tMVJhHT9dGUg2oMRtYryXPu8v4wX0SoGqKYMseQvtOEkLQAAe1cnD/8jtp5skMxoSqGe+65h7jMsSArmUkxCRA4Oz/JpGi7e82LCvd/s6JNxgLtftgFXVVZ5d1YaANrmImSbKFiT5hmTLy5QgCBD4AENDBPNdU19MADD9Abb75hchB2RrwfvAMABhCouHaZ1wXAAW5sXMMMlz9yD7Zs2Wy8CHgHKCgoJ25fSoCwZs0a+tnPfmZ4EE488cR2xZ44pcgHYCHUSchaIQ+06yA8LebDgp0dM3OCPvehhx40LJbnfPSjVFdbFzVhBQ5WVI+QYk8F1i55Vbe9lzAWTZwTew7eg+9///smcRNgDTXh8Ozg7/AgYN7vm3kfPb7h9/TPqTXUPJQrEuyYT5oqluRp1ANbafBmou1j+lDVtiyl5jbT5sn9aNVpfejwRxooszFLGyb0p6o1rVT3SiOt/uww2tacpyNmr6MlXxpGjXtX0P63b6QNh1TT1n+po31/sI0GUJ7evKAfDX22mUbMa6W3/70vUf88DX65gvadtZEaJvajppF9aPAfttLm/ato5Qfr6Oh7N9Hyk+uo4bAUjQVA+PgA2tY3Rfs+vonyJw+idFuKmle10rJza2nvBRka/KsWmv+FfjFAQLjGppmNZ7ahmg5AmePSgwtESa7z6zqbLDMwl1JJIQtPKWasEegahY29y1dQh5SxplROY3jZoMUH9vFuUOyhTHgsEa6kZ/BeUCDWtjTyORO5zm3liHcBQJgJJkULIITkKr4jMSmy7A15gfHO6Is9hb45MKBTIJRiIFWKMsf/z96bgFlVXVuj45xTDRRFV0Vrgz2K2GOvUVFAITYRm9gkxiZqOtOYe9/7/5f/e+/lT0zuy3fvTcyNDbY3iU0Eg0o0Kioae2wQ0Ngiig0gPVQB1Z1z3jfWOfPUqs3ea86iDgVInXxEqNpn77VXM+dYY845lrNzRQVX38f57RMfJT5RgLF/DcdNAEIoD0NYsqRrxIZp/cSQNcPktFUmHQTfGYcmoNvNVYSFbdgBoWtKAKGyMni8qzAIoRCDUIba4UHRCoU4WlxD1hL24AKcPn06nn32WZxzzjkYMGBA2asYSKdzMZKdoGMmUCAYIM1/2GGHuX/zGuYa8Pfc0ZI1IPXPXAT+XLTdkyZuZ1gF3uOzzz5zxz9fftkVOOLI5IOpxKDHsT9Cw/O/khMQnStRnCDfWbdurUMEcYBMrkl6J2mTn6QY/Y7MS4tQEk+14zkCZFIIyDgHfEPJ399w8424f8XMIkAgg1BENKX/FrUP3m3GyIfbUPneBmRYMXBQX8w/uw8wvAX4tAL7PNKI6k9bkKvOYunxtVh1fD9gQRv2fGgdFl9Qg+ahGexy7zqs3L0CG06uRv0jrdj56UYsProPWlMZ1C1pxkeXVwL9MsCGXhg2az0Gz96ATFMKzXtVY9GkGmwAsO9f1mHZYTVYvTuwzz1rsOzEvlh7eF/sMWMt+sxdj3Qqj+Vja7HkuGpUv9mKkbPa8MHFVWjanWqZHDWCoEjSixJisNDrVpraEmKw6KbwefwTqje37Iw5zBZAYtnklDPEIHogWg7CJiGGtjZnkyjRKzoIwgDKuovaVevYCbsXskmWhMBy9RPv429yktplkTXmfcQnJjl2giheFwItbBOfRwY7tBmSOd6BuY1EDUQoaZPDmra0kqJlwZcLIHDQLAveZzVCyFMLe0gohk6GC2Xq1KmYOHGi05EPob7OOGK5luCI4QOWM7a2tmDgwDrHGDCcQADAn7M9pP25i2XiIk9a5MDTABS07Qnk2s/d2Jx2+Ls9aj+wcuO73/ku9hm5T5fKHDkHXJljsWIglW3l1gZ5apHzWO5OfjYHIEQf0RmA4Oc9xIWkyPT84aYbMHXlTLz1k2q0VzH4VGzxeLdcGiD2WUNhohQwKOPCAU40if52XQZYlQWqcsDgDFCVBjakgZV5YDBLIQEszwO9AAzIAQ0VSK3IIl/DEsUs0JIDhmaK5YppoCWL1Io8KlpSaB1UrD5oTQPLcoVKhF4pYHlbAVD0ywEbgdTynEuLwJAUUJUH1meBNWwrr+d4yfkSkV4tQw6CrDttx2cBCJYcBCtAMOkgdCLEoIUh2C6LkqKUQMctIescj3N8pSTFW25xhzVZT3Mspw6CJVxj6SctxCAAQdssWECLBSBYhZK0456FIdISJ0UHgSGGTh333FWp5XICBEm4K4fUchTpxjmHzgAE5h8whkOqnTHncgMEoaH8OLpMNO5s0ulCvHzjxiY0NzehpqYPqqur3Gtls+GM/k76Xnc520PGhICEQkkEJEnvLExLqMyxHSCkXZl96sMFwJw5yB93LFJ1g4AVK4B8IaRV+NABVQD9BwJrVgHr1hXq+OX8djpT95Hafp6OkkF++DCgrnBORrmVFP1chmifitTyfasex1s/7oXmQTzNUc6ijyst6XiE7aZjFI3vRw+GiX7D/300PhzRMyj1W0wOQQdGIK4NvshCzMwqhRg2XwfBDzGEcpZ8+jUUf2YrtaRm2dEm3Ud2xlqZo5Ud0OyTdWdMZ2wBCCF2hP0TBAieUJLGFpeTQbCwMdZ+2hYBAvtKk1rWAIIAQNl4Jdn6bV4oiRNQk8bdlgECaf3f/va3jsqnJkCIrtschyzfKexO2+9AqWP/Z/w3JwUBQ3ueRsGhl/PD8aIGAkMbl19+eUkcKs6AdgogVFQgwyqEp58C/vjfwPd+AJD5+NN/Aw3rCrveNKWAqSxYC5x1HjB3NvDG6+0O11VTtAI85jeVKagIEijU9AUuvAi5U8YxQQHNzS2l09G6srsSEGwBCHevfhzv/KgXWgZRSZE7bTkY1gc/5RipqKBSOe5ZhnuUQUlxewYIVqe2LQKE6C6U7+If1tTDILQnc2qJqlqIQXIQvvQAwUrndzdAYLu0vIhonkLUPPohBu4QmeRB2v+ss85yuQLldso+SJBdvP+z6PPiEjnLYOLdLcgc3HXXXa5874wzznBZ+3HUOq+VftIPayqGGHJtwNNPAnfeCVz9I6C+P/Do34DHnwTq+wKHHwV8tAiY/y7ws/8B9KkCPuN58aRLmoFnn6bMI3DKqcCInR0YcEQCKx0OPAz5Pfdyx8OW87AmvmfIKAiD0A4QmIPAWIDswneQ454bqrH3De1CSTzN0f+IvUisGCjOJ0lStDAIXc06F3o5tIGhsxTqXHMOWuKkJQGRtklsWIgdKReDwPAmc5y4IWDOD9+RbfB1EFjF0J0MggsnI5V4uBvbIgxCaOx4HxGU6kq1h2W3zmt85jeUg8D+1c5iKCeDcNNNN6KurptDDOwQiQElOSdrDkI5GQROnJARknZrhkrkjznQjz32mMvqP++885yAUbnDDOVy7uW4DxPyZs2ahX/91391yoES9kliEOTUy6TkUQkxVOSzyCz6EHj4EeCRx4BDDwf22QPYZ0/gv+8E9tsb+MaVwFNPA7ffCfzy/waGDQUen4n82tVA20ak5v0TWL0OOOwwoH5gIezAk9P43QmnI99vgMts3roAgYBA2AMiG8upjuUYua18j4Zq7HXjevAshp//Pz93UsucM4UQGomhHLJ5PSFQnLEFICQZfXH8WnzWgZZsTj1lVHIQZOPhA3ZppyWJLcpIxY2Yv/EqB0AIxdYlnMjj7Kk5wjAqq6ZYPj1v3jxXxeAnKWpJ653NQRAwFO0Hx8YopyIKSAiBNt6f46I5Y/a5xgxbKissYSa2h22nXZXxjZbsis30r4n2kQW08DtbLUlxawAEvrBWxVBugMBFwRr46667zi2ek08+2U24L+OHFRIEQszU/8H3v4/6QYNK/d0lgNDagszGRmTu+wtS994LrGwAhtQDo0cD48cDd98NHHkg8K3vAH9/FLjpFuA3vwAylcC//Qpo2Qg0bmRReoE5aGsFPl8KDKov3OvEI4FrfwYMHlxiNUjhhXYNlkQ3y4LflEFghr/kR3wZZ0nCOzX0wl43NuL493bFD6/5Ierr6kskSs6BhAJQ0oC5n+UeV4FUcgzpDFgSmxRCEoMeciBkpkSZM8TKRVlQAT7+d/xk1tCGqRAmLOhJhEBQaBNiYT6E4Yv2t7CBkvvEfCOe9rdu7VrU9u3rmASW8TKpjYe2caPAk2z5vXIBBN6HjOwjjzyCDz/+CGknPMb65UIyby7LfxeXkaNU288HKUwjCbMVv+P+6efNtP9dwrKF38u6TBfDuZyXBRDL5/PvhX4v3F+AIH/GOcy84rzouPBvfkzYfSVfaKpLGJd2dswRKqwDApKKQmpVHhg6dBgmTZyE3ffYvQSqy8sg3OTKHDskKVIoKQ51RM9i8F9SOiQaPihd486Lae88ccYhMyglJKHFoOkg8P7OAQIYAAAgAElEQVTZtqx7tj9Jo/cUCi8JDcrClhBDaCHLCZN8Hmkq0u6k3RhmYD5CIXmwvPH/relO2Hfz5893hzRdccUVTq1RtATi5ogYIGFawgxCKzL5NlS++zZSj/0NeOEV4OrvIXfM0Ugt/hypX/8aOP5w4OIrgBkzgNvuBP7914Xcg//8DXDyV4AFHwOLPgfGjwXWrgGefRY4/wLguZeAuhrgp/8LuYGDkMtnHYMQ1UGIvoPoIPgOxDcIbs4V9UB8ERkZI7mfO6xpyk24p5SDwBBDvJjM1hzfLf7shl4YeUMjBj2yEYMHDUEmnUaq6Ajl2c4QFzxjbA85dQVP6Cxup+73f1LoKzpGce8utiDkqMVJ+GWt2jPlWUk2yH8n/74+cEgaK7mngKSQLkGcvZWf+f+lo6ZSrLAbvCfXDgE2/9CpjBs3LvbkSP8ZlnJQ2VTyGW+9+Sb+8z/+AxU5YOe6OqRyWbds8mTfSmaVFT5Fx+7nWrmDy8Th+zk5uYJz7gAWxFGLyBd/y2sILnif9p+XQEYqj1Q+LZ7OGw5RQC3cU+5TuJuwhgJW2HZeFvNzd+cMcqkc1re0YPHKlbjiqqsw9uSTS5sa0V2QMsc4AGvRciGDwHLVTXQQKJQUAgi+Qd/E0XrnpLt+5CBFbJ6Fqrde4wBCpqJAZwuAiyR7U7CEH0HE/kIrGaBcvn1H4JR1PLBZvJ8/SUOL2Hcy/M7ChQtx/fXXo76+zpU88lyGuDZscUO8hR5AQQ2Wc/KsgauuvAr9+hcE9zkucWMvACEkSiQGVnbrVUxSfIY5CLcDP/oXZA85DJkP3gJ+/W/AqacA510ITLsPuOPuAjDIZ4DrfwNMnAC8+z7w2jxg3/2A9U3AskXA5VcDTz4N9K9A/tqfIde/3tHYLc0tjjZ2bS9+uND4P+4YO8yBYh5D1GEISObP3TyJEXfirQkQbr7lZtyzZqaXpEijoFUfbKGB3Fq3beiFfW9Yj4PmDsT5530d/fv1dzXcvmFj+Kdg7wt9E4VR2WJNeqjET3a+4lDj1qDm/As7xsLTQ/SyPEuuEXDQ4Z0cO1L444ONOAftXyfXxhl+v33+cPobOGE1QtQ4nXbo93z23Llz3U6eNpi2laEGEQGjzaNQ0qGHHtpeplwMG0WnGZ9lEUpiSCedSWPu3Ddw0/W/x1fHHItxhx2OtDuQrp02KAxPYdEVdu0FBqp90y5AgCXC/m7ev15+zp8VP+5kVB+gFn/n7t+eKF5w+GwCQYewG0UGQX5eaowHSlxbSlan2PZCqLGdnSjYh7ZUHh+tWobf/fmPOPeySzD+1FNdP5cAYKpdwMrNvXTKhVDdPEIhxO/CE5KLFbP2RTafZ8ZceeWVpXmfStJBkIkgACGKKvkMIpOkRBl/Yfk5CHELQqiwUBxMymNESbHUtR59ww6RLGGfQYgaB8cgFNW14t4r6rA0gCACQDJgPPqZTMLxxx/vFs2XIdTAd6OTY54FE5a++93vOrVAMZ6WsdOSFIUuy3BH/sxM4IYbgYnjkO9bj1TfPsCf/gicey5wxlnAfXcDd94D/OdvC+H7638NTDwNeOcD4NMlwLlnA6tXAzMeBL5xWQEgDKgArv1fyNeRQciVjs9OYpv4zhIzpjpaEgCKhhjimBQ57rljFYPsSvxchK3lubvpuQ3V2OeG9Ri7aG/8/P/9OYYMHtJB5EXYPQGccY7d34V2NQExKcTgP5e2oqung8r9os+Ls4c840BY0CQAIQeSxdH58h3aQknmDIXRfP2RpFnw1FNPuTMXuIZPOukkZ9dY2kwtlD/96U/uLAYmKfLZoRCDtU2yM57zxhxM+f31uOjYsRh71LEAE5gdyOKaEbVOH2g7i1T8Qw/sh5fifu7n/0QBu8ig+z+XXCH+1z+uPek+lrZE7y8wpXj/VB4Lly/FdbfejMmXXoJTJ04sATpXip+pKK2hOCBp0WYgQGCZvoQYBDwnAgTLcc8WkRE/izRp8okhtpQ5cvKR0kr6lFsoKaoeFkXqviS1/I4Khw888IBL4qMMMhcTEbfPavjosZtMc6cfU4h9FRDoF18sw/PPPw8e8Uw5aZ5/wHGQHbSW8yGhGC1JkX1UkW0DZv4N+NW/A3UDgKPHAFW9gLmvAVd/FxhzDHD3H4Gp9wO//R3Q1Ab856+A078KvP0BMPs1YNTewEYyCIuBy64GZj3rAEL+Jz8D6gc7gEC9CKqQJRk0mZeaOIplHWyag8AyRwEInR6a7fcLDdXY84YGnLKocJojqxh8J2jN4O+M1LJWVcDnd1WUiO3mHA/pIIgt1JIiCRAIRrVYPieB9m6m456L4k2h5zG8wFJuggLmHZDF5fpgmSOrtwgQuGHgz7R2a0mKsvlkP73xxhu46fe/wwVHn4RxRx8HUECtRNPtIDk8qTQWrPgCv7rlZpxz2bdw2sSJJQZBjuoW1ipqGGTTrM05SVJkTtBVV1/Vnv+ypZUUt1WAwI4LLS7p2M0BCPwuqfgZM2Zg1qynUF8/yAGF3XfbHVXVhaxUDti2GnoQg01gQIngBQs+wBtvzHVA4YILLsCxxx7rxFeEPRAaN263I9d0CiAwg/ev05Ca+mfgqGOAUaOA6dOB3rXAhV8HKquAvz0IvPkW8B+/AxqagP/vfwNHjQEWfQYsWwucOaHAIDzxKDBhEvD6m8Aug5G79n8iRYBAPf+mJmfoygEQ2AchkFQCCKsexzs/Fh2EHTHE0H4WAwECqxiioFvmUxIKkrJZTUlRk0rn/S0JppbSS7aZczyU9GoGCGVSW5TdOkuQQyxoXJ5NtO8FBPvJjKKD0C0A4ciTMO5YAgTu6sutGbKN4+1UCh+uWIbrptyMcy//lmMQJMQgrGsIIJRY0MAR1D5AuPKqK9sPsOsBCPGToysAQUIURO8vvviio+V5bsHAAQPRq3evoDxquaZqkrO23p/vz8nHigUeFEURFOodkEb0HWEpDsZks4i+tzxLdleakqJQYRWM5S9ZAvxzHrDTMOC+B4C35wJjxwGLlwJzZgMbWwvMwg9/CixeAvz850BzI7ddBQqytjeQzQMbW4DKamDlCmDsccj+9P8qKDPm4kMMUWdlqWLw65qT+rekpOiklkVJkbkPpECFKi31mMcuCJUp1KZQq7w27u/CSsj3hHL1f570Xf/nofv4bXEpg5GSTd5HEnv88EkK4GmOf2jAyZ8UGIQtCRAsY2cFCBImTZrj5QQITLRm92mshrbJsQIEiwOJS3QTHYRbpkzBtT/96ZZlEI48EeOOPR7IyloR3ZAdINE3BSxcvgy/vHUKzr1s8wCCxoL2AATPckerL+KMemcAAjs/aRfKxUdqjucjfPrpp1i8eLFjF1wCiZdxy7931an7DllYCvlZ9N7sA+cOIhnkcj3fhwkrTEZkORMrMnj4U9RoWRgiC0DgczvEQtk+7haam4EXnwca1wBHHF3IMfjoA2DAAFf+mKOs9aeLkJr2MLDTEGCX4cWwY9FpMTuY93hzPjB8KHJfm4xUbX/kywgQpE5bYxA6nsXgCyVJrNOnTH3n3152VRifOOcfddS+k/azqkPAIZpJ7Wd+J/29qFIZC1b8NhTBR0MF9rmhASct2jsRIGhVT8IgiDhX0vrVxNf4PauyoQUgiK5GaLduKau0AgTJ/0oCpXw3TULYEt6VfooKPPFdXnrpJZebsOVDDCdi3NECEHYQUbGS8c5jwYrl+NUt8QDBooPQAxCKndmZHARNKEmjKLm4kk4g9Bct2yQZznIIR3RRaw7bXZ8ngC5kpIbAhO9oBYREr9d2ThKXZR8VznqIj5dvMYBQ7CDnlki5cudQWYE8T0JryyLF2vaKNHIsNWKW7sY25CgqUlnhqhA6fJh53NRQUFTs3cfJL4uTKUeIoTMA4d4VT+Kda8kgECAUDs9qr9eK+3vH+ujCe/mlEvJ3izNP+q7/c8t9unDNugz2uGENTl60N371i+u6xCBYAELo3JZyAwTLqYiWkjMrQOC8C4HSLxVAKDEIO2qI4QtcN2VKbIihByAUy4xEB6FcSYrlAAhxtfRR5y+7lJBjd/XFubwTdQnRmNGs1eizhOqUioE4gCDsCL8byoK2xF7LDRDYR6EkJ/pG0dgg2OKc6NOnBhUVlC22f7YGQLjx5pvw17cfwedfq8aKATR0GaQowMI6a0IF+TurpVzRVLGkyvT3Qq8IOOK/on+XfpOr4q4p9G6h1JNMReGerPUulo+5v7sGFtpbaHjx7/7Pi+9UqiUvgJDa9cCwv63HMW374xf/+xebAARLkuK2yiCUCyB0htUoF0DQdphJIYYtwSD47K1LUrz+d7jgKAkx7IgAAVi4Yhl+2Q0MguggCFOcStJBiMvOj9v1anEwiVEHlcqKyUIhB+qSypqbHcWtnTDJdmoJiBqNaYmtWxkEi/ymGMYojRdNZOTuwgEbynXJLjsSqrCwGhqD4Mx5MQySlAAj1wg7EspBIKsRCsV0Zjcn7Xn//ffx3HPPudwIkewNtTsa0rEYdFdDnKKYT3KsU8RjQsCGz5o+fToeenQGWnq1IV8hDrwgn7IpT0CVNXHKUbDQ0fl2/G6BhWgHC+1/9x17Sc3NCcnEX594HwdoCiBCQEf071FWpFS4xfLyRuDIg47AVVdd5dQ4/Y/MuShj5c8tKXO0JimG2DbO3dD8ZtssoEVsAW1TqKTQwhRGwxBxycwWu8r7EESzTVrYI2p3orZeaumj48Dj3hlioA6CHNZkkTUOHULEZ8vzCBCm/NfvceGxrGJgiGHHBAhMUvzllCk451LqIEwoJSn6EgJJ2yOL//GFkq789pUl9dFUY2PjJkJJnMRCU2tiJNKokHNwmwx3CmGykdUy+iVWxsmnOX+tTeJEutom9pOEIUKZ8NFdfKivpE1x9azSbulP/98+WJCkI2mT37dJ941OLl4X/V5ojPwcirh8h2imdPQaPycjNC6+QX/ttdfw4IMPuuOmd9lllw6iNtIe3zCKcZb+E9DS2dwP//pou5MWKZ/N3JMli5egLdsWuxZ4rzhDHHdPeT9/PKPtkveMG39/vkTHOuqwowAwrr+SQlnRe/HfHBMCOv6JXcseSyTPijomi+OLjnfS2Gjvb7Unjt3jaaSBbHFpU9w6lJ/5/Z205nwglXQN55KEIUJ6EX6bQuxltP/4Pa7BO+64Az/60Y+cxLxvm+L622ccQ/0u95k3by5uu/FGXHTM2GKS4o4IEFjF8AV+efPNOOubF2PsKSd38KdxY+bbUNkMhuzqmjVrcPvtt7u8s0svvbQUxk4lSS1zx8NJ1Z279RDlb2EQfOpcu5cwCKEF4RTdAjtHy65B0DCfoy1SYWNC4CCu3dGdsXYwkrRJjHXIqfHeoZ2xhCE09sdJLVNzgEc3x3zEOfJX2thJP3H3Mm3aNFxzzTUYMWJE6a5yL+0+wiCEdnxcXKFSV+lL9oMGpsX5Jymayc5YdqFxDt+fT1oNPL8fejd/F5oELvw2xc0DcVTiZOL6XOanH1v3GQcf6FoYBAkxhBgEcUQUuKIiXxKo0ZIGZS7JOkiyF1IxECpz5HtaSwq1sQsJJclC4LMIpLTzRrRcK94v7pApqWIQBoGHtkm9faifCMxD+SOlsctk8MYbc3Dz9b/HhcewzHHHZRA+Wr4M/5s6CN+6BBNOO83Nad/Oheyv5OWF7GEHBsGipGgRSoo79yBq++UlQk5G2AFNKIltiiopRp/XmSRFi+PT8hSam5oLcr0sr0v4WGKKQlNrTk3LpmYT3KmXFZXB0+cs4j4WalUWc8g58hrLSZw0HFoOggAS9hNFWij7zN0LAYK/A+Pc5LgkGSpxMuVIUrSUOQrbFIr1Sj/RoAfnU0ubq3AMCtLEnEkSnZ6W5EpeI9n5IYAgjjbY7qIAkDbHBWyFgKucnBiizp1TCxzWJA6b/9VsgZYQaB47g8aBJUnRMnadKXMM2V4NIIgOAkugpS+T1l1nwkMilHTj9b/DRZYQA8NlhVOQgFR3nI7qJxUnmv+u/yIFLBAdBAolTZrkgD/nnJTyhjYCljJWKXPkIVwM/ZWYuy7pIBiMkE8pJfXU1gAIsgsNtUkowxDLYIn3WwCC7Ag042kBCAKkNEUz2a1rDIIW0tH6SZxxSGqZbXBhLcWgWwEC22QBnBpAsOyurABBGzurk2ltaXXMlja+GvtjcTIaQJDdv8xxS5u0Ob4tAgRrmywMQogdcAyRUQdBAy3dCRB++tOfOo0UjWnZHIDAJMULj2aIIVkoqa14XHghfzaPCkqj81NMAO66l47eoXDEYhZtSDPZ2J1zIIdDbRK179rjUyksZIhhCpUUL8Fpk77aAxCiPSpOprsYBAlXaLTxlx0gaIbRSudbwh5WgCCONsggZLNByt/KIPQAhDCDsCUAggbeLSEG2XRoOUtWJk1bB9KmHRUgOB2E0QWp5VAl1uYDhOQQwzsffoA7Z/0dq9c3up1vZSqNI/cZjbOO+YqXBNsZQaUiMyAHQRVKdTYpL/58+ReY/o8ncPLBR2KPocMx+5/zsP/e+2HooEHt50m5JGDv04F08ICEn2m8CRYpAIRfUElxu2IQisfcakk5GtK1MggWmrozIQYtfKApsUkOQjmy8y27OQudz7lVTgZB2/VagFQ5GQTpJ/Z5EkBwoIXVHoGSUbbJkoOgzQGhqflM7TwKrS+tDIJVq9/CIMjaDFHCoRBDZwGCxlr5eREhZkv0/EPsnnXsLCEGjo3GfGjzSeZKdzII5RJKCuUgSIhBqhhCmyrON8tpjpKrwSqGYIghn8Hsea/j9zOmYo8Ru6FvTa1Tf/1w8af4wVe/hmMPGYPWbBar1q5FVUUF6gbUIZfLY3XDOuQzaeR47ksuj0H9ByDNU13ztJ8bsbKxAZUVaQweMMBBA+rPLF+zGtlcHv1ralBbU4s1Gxvx+ocfYOTgnfHeogWY9tRMfPOMs3HUyFGoqKrE8tWr0NrWhkED6lBdWY2WlmasamhAujKN5pZmML2trk9f9O7V213X0NiA/jV9kOFpxRFQ0R5iuBSnTSpILUuIIaRTYwXKWybEUEaAYKGpywkQNGMtHRuKGW/PAMEU9sjlXBa0xqJYxq5cDEIPQLCp/0lOi0b5b4sAgetKS+gtJ0DQHLYf1grltPQAhNGmEENnAUIwxJDP4KV5r+PeWTPx7fMvwq5Dh+PDjxfhP6f+N75xwjiccMgYTH/+abww93UMrO2Dr48/A7sNH467Z/4dHy39HK25FrS2tuCik07FsQcfiY2NjfjjYzPwxscforZXDb5xykQcuM9eePKNV/Hw8/9AS1sLDthjT1zy1bOwZsN63PrAdBwz6hDMfmceXnznLRw7ajSuOvMcfLp4CR58bhbWNq3HcQcchLO/Mh5LVizHTQ9NRa/KSlT2rkaffn1x1O77YeyRx+KtD9/Ds3Nn46yvjMWIYbt64mmFs6tLDMLll5YOaxKAYBFK0pi0HoDgITLLTnxrAARtx2dpN19TBKVCO1o6Bm03Z3me9ZpuBwjF6oOuGHTLHNgqDIIl0Y3CW4aT9bY1gMD5ZA0xWJQULQJAFoCgsaDbaohBnLGWxKb1UzkZhM6cxClCSRcdfRJOia1iyOCFea/jP6bdjUx1FarTFUjngIH9++HqSWdhxbq1uPfxR3H4kUdhyRdL0Lp+Pc4eNwF3zXwYrRub8bUTTsGcd9/C4uXL8J3JX8czr7+Mz5d+gfEnnIJ3Fi7Aok8X4awTTsbdT/4dlb1qcOD+o7Fx1SqMO+RwrEcLfvXH2/DNk8/AhqYmTHvuSVx95rkY0K8Wdz40HccdegSG1w/CjH88ia8cfKhjEv592p9x7vHjcNQBB2H2O29h+cpluGzi2Xjk5eewomE1Lp94BvrW9oswCFsRIOTItxRFcfzyuqQqBt/guiqGQMxJ6MK4+J1/H8nw1pLKhEHwHV+0PCtKv0YdhLRJM0IW6pzX+G1KKqWylDb5VQwd2CVPO0L6ScuEd3kRmYoOVQzRfooChKR+io4d39lF5IrtYiko6TctC7ycAEEcH0MMLHP84Q9/iF133bVDm6g1EGU+/PnNdjc1N7kSsNBuNWoY48oB43brvE76iv3VGSAVSpzkvZLOd/efJ1UFlvBftJ/8MbY4Plkr2pGyVlDqFEWpJZAQNpbwkJQ5+u/tj7GWvS2hqNDRys5eZHPuePDoHOfvojbTF0qKW1MhqWW5XpIUZV5qazMJBPP9k0IMfsVPXCgmek+Zc345Hd/l5ZdfLh33zBBDKFzDe0riZKhEVeY458CcOXNw0++vD1QxZPDivDm4+W9/xV5774UVK1agsaER3xx/Oo7cZ1/89flZmPbMk9h/n/3QnG1FdTqDM79yIh56YRZ2HzgMl004E3MXfoDbH38IF44djwdfeApH7XsQzj95IhYt/wLX3/8nnH3cyXh/6Wd4/e23kaquxMidRmDyMSdgQ64Zv/7Tbfj2qZPdjv/Pjz+M//Oiy7Dg84/x4CvP4l8v+jb2GDgYN/5tmhuHMSP3wx1P/g3XTv4mDt93f7z1wbu4/7knMG7M8Xh+3hwcvPfeGH/Msc52h0IMp048rf2456L2RtIc8PsyaT7xmpUrV+Kmm24Cqxiu9Mscm5ubS4UMfIgYNgEImuHnzUMGVhwy7+Mv5Gh8kcYjeMYAY0PNhTLHpDax7WIYQx0m7WA9ulOxi4g4SR9Im5JiobyPL7Wc9H40aLyn9FPcdfxZHGiJOmRJmotrk7yzjF301EXfsbNN/r/jQIm0yR9f3yAKsBRDGXWK0q9i0DluSayGM9bZrElQS/qJIi33338/vve973UACGxX3Hzy+5J/J5Bie2Q+xY2LtElTopPxDc1x/k5bK0JTJ81x6SdZd/6alWfLmvPnXNx8SRrfKNAQUSIa7Oj7+WtFe57WlzKfXCZ6QH9EqFUBd36b/DH2wV3cuPj2guOSNHb+2ozOIelX/lyO3vVBWYf1m2e4u2AL5FOyPXxn/jxVCCElrU3/eTIHktotOghxQMqfD6rtLQJceS95Hsfh1VdfxW233oof/+QnHaoYOtiTouKmzEv2UxIt7s8nPo9CSTf//ve4+JiTcUpsFUMBIEx75ilcfd6FaG7egJsf+guG9xuCyyedhX/MfQ1PzH8NP5h8Ifr26+cURnvngBsfvA9D+g7EFV89G69/8A7uefpxXD7+q5j6j8cwavd98K1xZ+D9JZ9iysP34ZLTzsZOO+2MT5YswZx33sKLc1/HaUccg4P33Rf/fu+duPzUsxkFwB+feBj/x4WX47Nln+OeZ2biX75+KUYMGopbpt+HqupqHLj3SNzxxAz867mX4OC990HDurWY8veHsKqxEZl8Gpeddjr2HLFLx+NZChPBSS3/YspNTgdh/KmnltaH+AOZU3F+z2JXKeLGXBJKLX/7299uL3PMZnkmbsePOD5xxknOlsiaDlbbpWgZwHyeNY4drWKIOiwyCDQufpui10gcmyV1zhD5Z98Ud8fSJi2RMXoWQ9IA+QY9rr9DfVlqP3frBFJF4Ze4Z8nYsd0hpsW6w+TY+cAt+kxxWJYELt8Zxzksiw6C7NbZJgIEJ5T0g2uw6wiPQSiCjaQ28R2SdsZRZyPGM+TYrZnwvJe0KW7spE0ag6Dlj4ghZh9ra5P30sTQCFosYjvlYBCk7aHdTohBKM2rPNDa1loS7kkC+ZaSQj/vJdEWFk8H1fppE3bAHWpRaJ3c240vUiW527i2W3JMeB9LkmKJ4WRpYAxrI2ucGyraHvmwDWQQCBB+cu21DiDw04GRKnoXkeSOS1LscLiaqx7Ml4SZ5s5lkuL1YIghXigpjdnz52D6s7Pw/ckXY1h9PWa++jz++swTOPvE8di1fijufGIGdtt1V6SzeQzvPwDH7H8IpvxtOpasXYVjDjkUCz/9FEP7D8Ql4ybilbffxD/emoe99tgdS774AvU1tZhwxHF4bu5raKDUf+9qvP3BuzjjmBMwYuhQ/PaeO/CNCWehpldvx2KcfMTROGDvffDAc0+iT1Uf9K+txSeffoKvnngKMvkUpjxyP649+2IcsM/eLnnygeeewX8/9SjGH3IErjztTNTymPqovEKqqKRYlFomgyCANuQ3ZT7FhYeic4o5CDfffDPq6+udDoLMx5SmgxCi/S1CSUKtahne1rr1cpQ5lgACzzQoovnowrdSwtFdaJzzV51x8ZRGLgzN0cqECDksSw5CZ5xadyQpyg6M768l1gng9EMMIpQkuz2tn6zUuTUTns+1zHHpyySAwLFThZIMOQiW8eW85J9yAQS+kzZ2FtAiTEuSM2abue66nIOQL+7WUzahpNA6sMwnvrsG7qzXWAGC9FOIAbOEQOOcDL/Hw5puu+02d9wzAYJlDlhyEGTdMcSgCSUtXbEc7376EY4ceQBqavpi/foGvPTPeRjQvz9GjdgTHyz+FO9/tgi9K6tx+MhRyKRS+K+/3o2K6t44aO+RSOeBw/cZheFDhqK1tQ3zF36Aj75YjP59+uCQPUeivt8ALF2+HG98+B6aWlswpH9/jBk1Gq3ZFrz01lwcuPu+6FfbF6++Mx/5bA5jRh2AppZWvPXRAmzcuAH7jNgNe+6yG9Y1NOD19/6JI/c7APV1A9zae3b+fNz2+EO4bPzpOPmQwwsMY1TkKZXCghVf4Ne3TMHkSy/BqRMnunVmqWLgfJJS/NBmgSEGHyCUALoGEILGYysIJWliO9YyR383F0fnWQACDVl36yBojo/vInkRIWNtcSAWcNcZ9ic0dgIQGH9jeWLSh0yL5DxsbwDBwiCUCyBYHIgVIAglHEp0E8fXVYAgDILGfIiTSQIRsgvVku8sJaMWW1BOgGBhNSxrU+L9BFIaQGB/dyYXR4CMDxC0HAR+R8CddtCWDxBYxXDR0WMTQgyepaBYUb7IcOQKSdiO+2feVJ7qo3S+lVi+cgX+6/67MGLIcFx86hmuzNDVHJa0CKhUNQ8AACAASURBVLI8yLRQSUDxIxf6SbHWsahv4KQaC793OgfF37vn5AvPKRRHAvmse6b7Pgolle5Z+Rw++ORj3PvEY+7a7597Mer78+CyGAXIYojhOkotX/YtJ7UsIftQuEZ6xgIQpIpBGIQegFAs34sDB/yZxSiUEyBYacxyAgQaV80Qs12UbU5KGCsXQGCfW4SS/H7aHgGCONAtzSD0AIQCTa0ChGK8X8u1cuugMvlI8e4GCLIOtOOerQxCVwECT3M84IADSiGGJIBvBQgSW3dJik5JUTuLgU66PfzhHHXpQ6db/HcqjY0bNuDFN+dgYG0/HLz3/sjwfBjnwAUk5AqX8x4lJUYRT/JiMCURJC9M3eFAQt6Hf1JFcFIEEAUHg3c+WoB577+DMaMOxj677l4EKe6kso6fYojhV7fc4pQUySBIPtCWAgiSG6OGGL6sDAIXtEbna9f0AIRCvNCaP6KxPzsKQAjFsXd0BoFrTstZ8nMQuswgfMkBgiUHwQKktBCDAAQt1BaXgxAXlu1MiCGRbgz8gpBBDiyPeOOOGgSbc/PE73jJBUJA8EBAkWlO+l4JIExxDMKWBgisYtjhGQTN+Yuh0pIUyxViKCeDYFFStMRCSzRmD4MQpF/Zl5phtDBSvKYHIPQAhHKGGL4sAOFiS4ihrM68G25mPeupKJR03S09AEE9fa8cSYpW5x/NU4hDutEqhrhpZXHGPQCh+0MMmvKdNY5tofPLCRAseTaWBGJLDoJkwmvZ+eXKQbCsTaHzrXHsclWgbI8hhm4BCMUqhgMPPNAkztXZJEVbiKEbHPrWekQKWLh8Ga67tRBi2JI5CCxzZBWDhJ63aIhBEo64oLXFZa1iYMNprJI+JuNZVJnT2AELdc4dH8Mwofp+HyAklSb6McUQBa3lIPglqlp80pqDEJe9LeWAUgJlia1r/eRCDEoVg+zWed0rr7xSKHO85hrstttuJQ0PP+yR5BwsJYVyH94jpNHhEj7zCB6vXS6AIKCF7elqEqoAhKRKJRlbKXMMaTOIkI6WpMh7xl1Tmk9F4a1QTJztluOeQ4mTGnXu3q94cqLWbgl7aGWOIpQUWufaurOCO61N1jJH0W/obJIi2/niSy/i1ltvBU9ztCYp+kd1J/WT2Lk5c17HDb8zHve8tRz4ln5uCvhwxTJIDkIUIJTjLIZCFcNNGDiwDldfdXUpUTzV1tYmJaruNfkPia1Ha+mj/cAJKqV5ssDjdtlC5yf1oxgizWELdd5VCWEphdNqrYVBCDkZrcyR7yxlRKEFyGfxk+SIpH95XajcivewlDnK87QkxaRQjA8QBNzx2aH6fq2KIUkh0J830m72AZMUKZREgEAlRflY5hPfK2oY/bb7/S0AIWn+8l4ydqFrtHXgtyk0Ln5ZWtK64734PpoAkBZqk6SyEIMg4EcrcQtpffjvwfuF1or0U5xQUmfmAK9lm6iFkuT43TWGvIhSFU5FRTC3if0p47K580nsl9jepPtwnnBNhdRCO8OSRdvNd6EOwu233+7KHEeNGuWaEpq71hwEmQNz51IoiToIhiqGLe2ot9b9GWJY/gWuu7VQ5jhuwoQOSopagqnF/7CK4ZZbpjiA0CEHIdvWLpQkSEF2oXywViPtT1JZZP5ij+4w4/pYM+gibBM9rMl/Dq+R+2iTlNdphlGMXqjzJVmqqrIquTSPGgd0/qnkhSPt0Ra835eJBi0PbGza6CZQ4tix/punmFHUhLKe0ZNMi4NUAhGls9XbR88HCAJaNICgCQCJUJIARXmGjC3v7wMEYRB+8IMfdJRaLo5v6d1KXqO9/VS008Adn+87YxF06YCoiw5Exo7XRH8vTsYPWcWBEZlPIYPO78UBqShQENDiG+voNf46iFuXfJYABF9COHqtzEtNKCkUavPnE/+uAYSoDkIcUJJM+JDz5y5YhNVCYEt26yGn7oesNAZB2yz4LENcu/zNmb8+omDaehYD54kFlPrvRXD18uyXnQ4CkxSFQdDGTjLvtT7g7wUgXHjsSRh39PE0AIXywR3pU2QQmIMw+VvfdEqKAvwFSGnsD21hSJ2USopTphAgDHQhBhnnLoUYOpOcFdr1C4q1nMXAnaMWYnCOr6IimM+gAQQNtPAZvKa5qdlRy5o0rkYrit67xqKUaFMp6Ykon7FNpfMh/ORCKZ0pKpWVHK3ofvsJM8W/U2+g5Pg6lO8UVqfsZCwAwRKK8ZUUfaMXBQh8rjAIDDEQIDDEIIvE7fiyOf1c+qZmVFVXBcfOQr9acxAsYTRLkqKVaZF+SrKllrwXC4PgA/Ouhj0sOQhS319TU5O4xtkmy9hZ9UC0sZM2hUSuooAzaVw4vvxoTGlobfL70ibmamgaFhq4i5tzvH+cDkLIhnWmzJFtcoc1/f56XHjMiTs0QOBxzxRKOufSb2FCUUmRYU2qhXLNhcCd2whVVHZQwYzOPdFBYA7C1VdfXZ4qBuvi4qTQAII13m8BCCrVaTgxzgwQeDBS4HwIWahlBwhOjCP+U84qhs6wGqHdlRUgaJPddyCig0CpZZeDUNTvtwAEl4OwsUkFCFocW1gNzRmXKwfBOp8soMXPewmBCItQks/sJN3LkqxrofMlB2FbBAghZ8x+scjeWvKohEHQcmMsSYqa7U1qdxJA0PI5LEmKwv4UAMLvcMGR1EE4bgdlEAqnOUoVQzQHQbOZPQDBs0idWVwh1LW1AEJocQnToom/fJkBgr/r7TJAaGpyYRgt+U7rb4sz3pYBQohtk5ixJcQgzF13AQRNIbC7GQSNzhdwp+W0WG2YxoJakxS3C4Bw9I7NIHxYrGI4N6aKodwAoWxVDN3NIIjjC+VFWBeXdWesUf7l0kEQB6IxLZYd7bYIELTjnoUS1ia7FSBoyZyOQegBCC7HIHjeSjbrqPrtFSAknRooIMZqw3hdyO6IMw4lc5YbIGhz3AoQaFNCc8DKIFBJUWPSrEmKmzIIJyYc1rQDJCOkgEKIYVMlRcl7CeUgdJZBIEAoi1CSdXGVK8TQAxBs8rHWsxjUsEcnQjGaVG0PQMg5Z6zlxlhyECxUvYXV4DU9AKGYrFtRkehpCCbLCRC0dWfd5Gjz6csCEG4uhhhOOeY4lp1EkhR5bosnpdx+oAJrwtrPRHA/57/5ff/v/JnTVS7+Pu7vpUMait+VqSJnMvCe2n34nbjnxxyfWcjwYj1I6WyGhSuXQc5i2Bwlxc7kIGy3AEHK97QkRUsOgpaV3N0hBotBt4YYtkWAUK4cBAuD4MauLRtMUtwaDIJGCfP3PQDBpqTo19LHefatkaTY3SGGcgGEbT3EwNMcJx/xFYw/+ljkc9QcybsTGNsdPQEC/wggEAcb59j5xc783J9dnf2uf720tyDy3PFMZ8kQ90FK+3Pb0nl8tHwZfnPnrTjvsm/htM04i6EHIBT708pqaMa6UwAhUxEUybHs+CwxagtA4DXlUnf0S6mStlfSTxqDUC6A4PdTKQfhmmvA456FFrMABGts3RLSEXDX1bM9tgZAEKCcVApo7afuTFIUcNfl456Nxy9b1qalYsCFGFrbXDZ5udQdQ4yUlUHYXIDAMX/xxRc7HPesVUN0poqB64lljr/5zW/QKw8Mr6tDFm1IU+Mjz4JiOfWVjlV28fyZf9pR1ElvasnaC7yStI9jSrxKt9HvrwdB4p7Ln+WQZ6lxJoWGpiYsXrYcV3/ve5gwYULpNEctPFQCyp2oYujAIGSz7ToI8iLiZDQdhJLwCevkE5gSPys5yQhJ+Y8Y2Oh1/L0YT19qmdd1qMstCppEy3+i+gxizMqWpGgACOxbiwPRFAndYhbtghhhIld6WaysCKk7hgw67+EweL4gmhXt5w6Y2tOUSFoIYtDZnpBB60z5XgclxR9cg11H7NphLvD9/P6O6g6wTRK/CyUpsr+TjJ70k/RlSHjLAjiln6qrqgtlSwlrKjp/49aLxWFLiCE6Jv79pGIgqXxP+iBu7OLWHc06HWQIcNKu8JokeyH9FJJaLsXNUxmkMu0dGb1nZ/rJX09x9yEw1ySp+TypPIiuK1lvvCYahvD7Uuyhb+fi+sqSFyHhE6mTT9Jv8MdXrpEqhtupg1AUSvITMJPsuDAtpVp7r4TaX1O819KlSzF16lS8//77SKcKCiMdDmrUva96hbN2Re0NV1Kdi1My8erEg3e0XBc9rjH5ho5rSFPjBxg+fCecd+55GLnvyNLasABOGTuxT/5GSvp7zZo1uPnmm50OQgehpJaWlk1aK07GoqToIiuBkjuZzM6pJXw4HGLQQ4bDoqQoz9OcMa/T2q0ha+kn0jeZCkGzm74BF6HWT5Zr3A6EACEQL+U1liRFMUKhPhCQkGSo5fdCdYYAgmSUJ42LONB0Kh0U9JB+4nx65dWC1PL3v//9DkJJbIc4mVCbtLMY5D5coOl0pni0fOQ41lRBaU+bT5ayNJlPpYTABDvi+sAdQZ8Uvyy0yTLnxMlo4E5LvrPMJzFG2nwSdk9rkwYQLBsB32GHnuf3kwhm+ddTM0QkqS0CQNo1vLemcqqNnYVBECClqbPGlWey76ikSKGka3/yE4zaf3/XJVq7NaEk34bLxpCOMPphnzt7EVoH+fa1GTduvCfvo+XiOFtAhU938mKyQ+c1oQ2V2ExZC6E5RxtGjZ20K99OuX4la+bbf5fM6WxTcqMcg+1sWDIwJ0CgUBJ1EK789pWldwwKJfGGkt0a1wDRDA8ZfTGMwfK9XN4JPliFkuIyk33kyb9rpVtihJI6jffQ6OXozpiDHYeaJcQQ2qlamRatTWy3n4OQNHEkFBMaOyvY0mKhsgu1nMXA8UhiUaQ9QotLiOEH3/8Bdt99907pIGg7Y1nIwiB0qDf3HLeAW8ucExCcVLtuDTH4O4KkHZ+2M5a+9Mcudo0Xzz0ICQAJBS+73lCb+LtQ7T7bYwl7WGrptfMhBJRGd+ubOCJDmzhP/PMhktadhSWTJEVxtJvLEFnCHhY7x/6Qc1L8seP9GWIQBmH0/qMLAKGio8Py228BLWyTVDE4+xwDlLnuHGhJJytAbrI2Ezw7fY/oRVgEpZLmr7Q7FGaROcd3Yj8lAQW+G9eCU1UtiuJFlRD5XRmXkB3nNVKqnTQvV65c4RiE+vpBJQbBAZ18QgvpZIRBSLqpBaH7ji8JLckktQKEpCRFMXpirEPoTHNqMpBamaO/Ww85Y80IST9pz9NYDb5zOZMUBUglvZv0k5aDYK1iEMnXpOf5/ZSkg+DaZElSNAglhUIMMr84lyxzTsJDSRS7FSD4ipNJc9y6Nv1QTBJAsJQ5aiDY7dSK542EdpgWgCDhITIIoXlZciABds+aH6StA4szlt26Fqf3wXvcpkP6UptznXHGm8sg+DkITmqZjs8Lj0XHh+NrAXcWO2cBWwJetVwNke4ObRiFbQrtxC1CWO6AMDLvgTAa72MBLeL8E9dUHmhuKYj5hdadr6TYKR0ErUbaQilpi8sBhJZWVFZVBuOOlioGTizeTzs9slwAoSRrXFmZyDtZjJA4mR6AkOmQYxG3m2OMkOg7JJSkja+wP5pQUtkBQlECPM6xWQGCxTBanLHEn7U1bgEIGmNhBQgWoNwZgKCJXFnWpqVNlng/+4BUuZz9kGQwLG2yAKmtBhAiDIL/nt0NEMrZT2UDCAagLABBEwMTQFIegHAj6urqbVLL4oy1w5osAEEz1uUECOwwfroDIFicjDMKjAGlCjGk0I5Po1aFwtLQfrkYBCtokfENMTZWBoG5BaF8DtemAEBgH/nsTxLat4ydhTLkO1tYMn8nk7QrLDdA0HaYZQUIxmOTLfZC1kFoPskuVGMQLAJA2o5+mwUIxRh1iLm0SC1rmfDCfNB++euJa9FnEEQoKbTJ4XckSTG0Wy8Xg/BlBwhbgkEwncXQAxDaEydDdLemxtcDEAoOtAcgtAsl9QCEcEJvD0Awbih6AEJihZGAS2uIwQKktkUGYasBBBp0rczRSmNqC35LMAiaYp2F1fDjs3G7GcsutAcgbAGAkM+7uSkhhh9e80OM2G2EY2k6wyBoVQxWBsGag+AzLd0RYtAYBLaHf8oSYlAYBMkP0hgEC2u1rYYYhNUIMYWW8FC5GEdriKFcDEIpB6EbQwxMUgyVzXY3QPCTmkNssSTrJl1jDTHsMACBsTmWdIR265YcBAkxdBUgWGjFLztAsPRBuZMUtRBDXJLiD3/4QyeU1BmAIFSndsZAh2zqhNXcAxAKWefsf61SxwIQtFDblx0gWDZe5aTOLQAhzvFFQwz7779/cA5IHkq5khRdm1LpsgCEciUpbs8AoVDFUN9RB6GtrS1WB0EYBC2Wry14S3zWElsXZ0x0HpJalgxgrcwxxCDQ0MkC1JIGLdQ57xUq75LdlW8Y44pLLP3Eayx6EX6bQrFeS4IprwmVrolB55iEqh2kTVodNd+Rz3v11VedDsI111zTQQdB+ikaM/XfU9qkAQRLm6y7XmGkkvpKSuVCJYXCSIX6W/IitLVpcTK8Rur7QyVgoX7ieMia0trkA8CkGLXfJi3rPLR+xWFpuzlpUyh7nddYpZb9PkiqHAm1ya/WCs1xqazQxJssIDjO8fFns2dTB+F2/IQ6CKNGdci1kneT8Zf+Fjo/lD8SzUGI2kN+lzoBrFzU9Gw0tthPMA3dS/opqd3yfkkhRPdzpJDLF7QStGcRuLkyxwT9Ase8s9Qzk1zqyaoSx1pl0moVQ0kH4cor2w9ramxsjAUIFiQkBjeuw/wBlQkSmhD+JIpzWPy91HwmORk3aYpCFdpi5jN4TdJzZRGG7uMn72hOTZ6X5Ixdf+ULOgpxOl5+TE1bENqkkXf2x0h23/7kjv4+aVzEYYfezW9THPjhd7U5IPeX57322muYPn06vve972HnnXfuILUsoCXUJstxwDKf4oyd34+WPvDXQVKIQdrE34fWiz9eSe8YMlTS39ra5PvLDlObd9H2xs0vvx/9dvvf1fpSkiu1ZN1Qv/hzKWTw/XUXuk6MNTdUIYMebVOS7bSML58pAChuTdExauyA5d0FcEbfi/d//fXXcfvtt+NHP/oR9t133+BGQe5D3xLaeLo+KioYh+aLxV5Iv2j+QOsnWS+WNWW5xok2BQSXouG/kJ/ivUJ+w7dhSfdZu3atE7yikuIVl1/RLpSUy+WCDIJWxdCZHWYoo1wQY+gayc7Xjl3lACWJjAjKY0fRwEQ7zDf6WiYtr5UzBkI7YxE+0XbPbsF7stVxBldD+9ImPituEYrh6czOOLRbFSDltztqBDlH5BCikGGwVKDILpv/nTNnDh566CFcccUVjkHo27evG3e2yTJ2kmAaAnciZapVoIixTgLNEgsN7WiFJetV3SuxkkPejWMSGpfOsBoa22ZlEPx1F+ecLXOOu0Iq26ltamouyBonaBxIP4V22GyjhEY0BkzsXBLokLELsT/RsUtyJMKCJtkwWXN8Zmg9WUsvRXwtBBaSQgzMA7r11lsdQGAVA++hrRWh80MAmHNFU1W1sqBi65PGju/v79aTQBv1C0S7IKntFh0ES46JtCmkFmqxBaV1QLVFp8gY/6EOAkMMVFL8ztXf0ZUUrVUM2iS1JIlYFrMsQC4Izclw8DThHimVC+0wNWdszUGwJCZZ+slyDd9Hxi5JkdA3jBrzIWGPUD9pyZz8vThjbez4nNA1XKRvzH0DM2bMwCeffILFixdjjz32cDkIl112GYYPH+4AggZcLWMnu0Ktll6oei0cp1GdAqRCipPWsetsXkSSwbPmasTFzaP3tBhGofM1MO2fe5Bk0LX1K30pwCapD/ywR6ifuO5o0ENt9wFJEkCwbihkbSa1SQCCxclobEyc4+OYU2qZAOHHP/4xDjzwQFUwTMJDWps0m9IZcKetOwnFsE1aGE2AeZI9tDDvcWslej9rkiI3MKJcmbQOQomMwrAQINx4440YNGhQeXUQNHQmTi1kPH16LrRItXh/lB0IoX23uLxDj6LXdga0hMR2eF8TQDDsnDoLELTdhYb2Lcaa/aQtZiu48/NHEscum8Pb77yNf/u3f8O7777rLmMbTj75ZPzLv/wLhgwZ0imAoMVnZXelxQvZBg0gaGDLZ1o0J6M5ta0BELT5VG6AoInIaABB1ri2obCyMdphTeLUNCezPQGEl156yQGEa6+91jEIzh8E7KoABO0kTscAZiqCu17rfLIAhHKVOVoBAudcyKZYAYIWGuF4qJUOAFauXImbbrrJAQQqKYofTjyLwcogaADBsrvaWgBBS0DUnINlF9oZgOB2vYESoc4ABDk5MYR0NYNucTIOIFhkjZuanAPVQAvbG2R/sjkQ7f7hhj/gwQcfLMVgf/azn2HSpEmOdrbs+HxKOLRr0OaAGP0egFCQj9WAjTbnLKBUGKmamppgnsaXGSBYbEF3MAgilPTTn/4ULHMkM+vmQOAkUnOSYjcBhM6wGhq4214BQkFq+UZ3FkMPQCgeC90DEPR4oQYAtwZAoLY4wcENN9yADRs2uPyDX/7yl85AcQH3AITCuQfa2FmcTGdDDN0BEIRp2ZEBgmy8tDMGLDtjLV9HNjkmJcUegOBsUIgdsOROdDeDsNUAgsUIbYsMAtttSZy0KClaQgzOoBclhENhFo0ukxyEcjAIlt3c1ggxMIntrbfecmGGDz/8EOPHjwd3MKzhZd/tKABBi9N3N0DQ2AErJWwJxXDdWWhqS5KixnxY1oGFkbLmj3R3iEGjqZMAAsdTchA6hBgCx9EL4NQO2urOEIO0SSspdImTivP/MjAIlFqW/JgtHmKwAgQNxVrj2NadUzTrPErFbxWA4JUtxYUGLH3J7/knTHYlxGAxjFsDILCOuLGxEb+67jq8PHs2vvOd7+Dcc88tKQJKP2k6CFrM2JqkyLnb3SEGzRlb14EGOLdVBsFyFoMWYuhskqKW+Kwpc5YTIFhsgTXE0AMQCudDaKBlRwIIpRyEUJljUqmcOB2LEbI4EEkWCtFlvMaSF2FKdMvlnEEPZfBbkhSlTVqSomXnZOlLi1EQgMB3C1YDGE4Us+zELWNnzdXozNhxAt9333147LHH8P3vfx9jxowpiY9Y2sRrLGWO1rKlcu1CpRxUK5tlCZh6qFUZACfHTnN80t/cXQVLRtva1DwFCygtd8y4XGOn9ROfY6GXTesgm3OCO1pIxxJi6CpAYP08hZJKSYoKg2BRUrQ6Yw0oW+YT+9svc4zbVIkfk3LYUOWIxjK4OYBUUAFSyhxDLBnbKQmIiSGNPNDS2hIWUwJcXpdUMTAHQe6Xam5ujtVB4CBqToadrzlaywDxHi5Bz9MAiNvRy85Y02aQDO+k3TOfxz+lTkhtmlFjBTZSWaHRvVrWqqWfSg5bqWm1MAgWQ2UCCLk82rJtwbr1zgAErZ9k7HjdggULHEA477zzMGzYsFLCmsynpEXMn/MaS3avxVBZEnGt49vc1Iyq6irV0TqA4J0OGhXXsqxN6SffuPh9Jr+X457j1guv4YfP43flj/zcX4OWOee3KRRqE22GkCiRtCF6jd82abcmAiVMS5JN4X2i/ZTkaPhzPi+uj6Qv5ZrQ8zTbK45PSgqTnidzPKm/hfmIOj5+jzoIBAgscxy13ygn8hYFidH+pvOjDQ89j9/RbAH73NpPmmaI5YRJPi/kM6wAsLQ2A/6OY8f+DfWTxUdZ27R69WpXjSJSyzLvUtlsNlEoiWUmlVWVSXPUGQVtkspLhBwoVbPcJM2kg2cxWMocZbeu0YF8np+k6E9iiWNr9KswCFp2vsUwCoOQlDjpHGMu73YNBFIh0QsBdxpo0YCUxalZJqns+EL9JPex7giIwD/7/DM8//zzGHvSWAzfaXhh7uTh+kjGLiS8peWPsE3lrGLQ5lNngZSmYaGtTQmjaYBbHF+o2kNztMIyyG495PwpliTsSNx17Ec/ByHuGuvYSbxf60u+X2g98XnCIFgS1OR5cU7bB+bsr+j7CUjW2mQNMWggWMbOD9nJz5iD8Ic//MFVEO2yyy4lh+232d9/ZbOF3K6qqspgBQqvCzl1PkhARKKDKl4j14XmnLAoGlCMGw//+T5Q1jaoAqbjrpNNh8aq891CbZZ+KgCpwka4iOk7PJbM5TPPPIO99trLVTGUAEI+ZoaK4+OECJ17UC5aXCZbqDPY8dbDmtjxGkCQjpVJEwcQrEmKfFbIyFqTFGXBJ01k9rfm+PgelrMYypUIZR07C7iz9JPbqTW3YOFHC3HvvXdh4YJ3cNChh+Pcc76OXXcd4cIqBFJkNUKnFMp80pTvuhsgiDJnUnhI+lub49a8iIKxrkq0sZ3NQQhVBlmoc4tN8QFCiEHQxs7alyzjFTo/5GS0nBbZiWsgmO9HoCunFMY906I4yf7WTpgUIMVxC4Ekkbn3r+Eaev/993HHHXe4aiJ/dx21pwXHyo1gzm0sK1w5dzp23vG7UUYqeqF/TchByiZWYxAsdlUYhKQ5IJscLcRgaZOJvS1q0ITeLdpPcYBUWCuO7YQJExzYMwEEzfFZFjNflNdpQkmWJMVyAgS2a1sqc7QgRss1HFiRpNbi2JqTKReDIDtjjWmx5GrQ4M2fNx/T7r8HGbyHIw7pgxdfW4d0xUhcdNHl2H//0W5cea+QLv62ChBoaAlaNMVJbey2VYBgcY7CfGjOWKtiKDdA0ISwLDkIljnuAIInFx/nRa0AQTtAysq0xAEEtos/X7ZsmfuvMBsag0L1P4bRtJCGxpRKxUAmw3BNPMa1hCEsOQi8u5NaTqdV8SYNIMj4hhw72yTgPcSCulOQK8KCUpY8KvGHFErq169f9wEES3zWugv9sgMEAVIhw6jR1NszQNAMI43Q3Llz8ac/T8GgAZ/j29+swy5De2PBp82Ycucy5HIj8Y1LrgCPneWnByDo6o7lZhC0pDkLQNCYNP7eUsWgAQTOEQuTlmvLIZsPb3KkTaHTQZ2TMTh/yzWy8eouNX5IUwAAIABJREFUHYQkgOC7Za3dssPmnKuuqk50tBZ/IOCEzlNji8X5FViMTfPNyhWKEYYoDiDIzl36gNdqGzjXT8ppjpawFq9hukASIyUsA1krt2n2zmzY4mWO3Q0QLDSmlb7RDIw1ZmyhziV8oNHiOyJA4ARuaGjAy7NfxkMP3oPdd1mKr39tMEbswvyYHJDL4JMlOdwzbRlWrd4Fk864AAcfcgj69++fGJ/rYRAKiYU9AKHVOY2gk+kBCKWTdLWDmELMRwkgtBYcX1Ie1ZYACBpwtVR7aLkaIYAgQEr6QAPK9Bl8HgFnKIzGcKvbCGXiwzV8ruSkCWORlNfjdHi6GyBYkK5lQlhzEKxhj+0xxGDpy22RQZCYsXYIUdwOhHNj/fr1ePSxRzDrqek4cPQGnDNpAIbUEenybcktppFPAZ8sb8EDD67FO+/0xamnnY9xE8ahX9++sdxjD0DYNgGCJazVGQYhBLjLzSBYchC0XXZnWAaNabHujC1ljhqDILtQ/ldLjraUOWoh584yCN0FEKybQS2ExPtYGAQrQOD7h0IaSZvmLc4gWJxaD0AoUI/agrf0ZWcAglZLbzHWgohD+RzWHISo8eT3eE75E48/jiefvBfHHdeG804fhprerKdP08MVnD+RQopcQh6rGoEZD67Aq6/3wviJF2DcuAnuGOgoau4BCD0AYXsGCBZb8GUHCKbwUDEHrhyhGAuD0O0AoaUFVRVVSGWSj3K2VLVxPknuj7+jSsUJJXFTtrFpo0OCmtiOhhjFgcQhODHaQnUGSzpy+VKbtKxrrU2lzgjUofqgJamOmteIsI0mEKNRSpawh+UaK0CwJEuFxi5KmZUbIPDZn3/+OWY++ne8MedRjD2hAuOO74v+AwkIirU6kpnEuKLEFvPA2rXAk7NW4YVXKjD6sNNw6qmTMHzYsCKCLrSc2dRxOz6/qkUSuLQMb2GttCQ2vyrGzyaWZ/pMS2gt+KV5SSV+WptkxxfKe5Hxj5Y5+s9075GHqxoRqp4/2+QawO2I/HUQV0GUZKiisW5N+U6cf6gf2e7WtlY3L4LUebGKQRvf0HyS9ksfaIl87BstO182FLEUmetvKgQ2O4XAEE1t2a1bHJ917DQGwTR2xfnETU4cvc4yaGoyhDY5vMY9q621g1CS/NzvVymdjssvkOv5PCYNums8yt+/H6/hmosbX2mzvD/HxY1doNqDIkiVFZWlcI3fFml/lP1JDDHEiAemWlpaNs3/zANNzU0moSQ2QqsdpcGIu4YN5R9Bw0ENAArbNBcUoZK0GfwEEHev4iTpgIiKP4sasegiEwPq1/46QrsossS/C9VpSUzSFrw8TytZkXYnJTLy55LMqSXvuM130bFGDTr/7feBljgZ7aeoQZdkmqQ2+bE59sHSpUsx7d578MnHz2HSGb1x7Jg+qK3MAOkckKZTSkhbdos+jfWNebzwcgNmzGzCbnudgAsuuADDhw8rLKQ851xYSdF3fGIUXB9EHitGiO/rjrmVjwD64vViYDQgZcmEt2RBc25qa1Pbhcr4x7Up6tzF6HF8ffATnQdW8O7sBfsuZmO0SYjBH5Pi9T6z5ea5fyPvGt4rWG9f1NUIhiTddMw7mym2ILRe/HUX59ytYxe344v2t1/fHwKTlsz7kA3z7aIGbKSyIqmPCgC+oFMT+rCfOK5xuQw+QJD+jj5P5gTPdhHxpjhn7NZBvrDDFp/l36vklFl2mMuWdGpkHUQBQtL4RgEC+6BXdTu488XQeC3bRBBRsr1Rk0hzlc93vCahQwXc+WPn3rW1tTXW0hIN8+LQbt2CGEO7UN/IyIRImjRuATY1lViNUud7WalRgJA0uZiMwf+FJrKbpIFjjGVBWJQUrQte2xHIwgkaNC8pRQMImoER9K2VqEriZFJ/S4jBIknNey365BNMnXYv1n3xKs4+uxZHHtkblbkUUvkiQGBiovbJp9HSmsMrc9Zj2ow1GLzz8bjw/IucVkImU+EAQsgZy/ySUirp8zjnJw5b+tu/Ruaz9GVcopBcL3NcA5x+m0J9bgUI2s6YBp3XaCyZuhM3njApzjj0bv4uNG5MfICgOSLHaqQzziYkOWxhWrQ5Lrt1AdjR651TK26MujJ2PnhPug/brCkE8ruW+SSOSOtLmXOJACmbc9K/LkkxpqJA3sXyPItdtfaTSC2H/I8WYpBnaZtBi9+U0ksL++MAQiqdOH87gIjiJjduXvr2orRx7IpQkrViQMu8F5RjEUqiodJEifiimtEL7giKnUi6iIpucUBCAIImbMO2WOi5cuUgiJNRT3NsbXO7My2hiP2kAoQAkBJQI6qFoXs1t7Rg3ry5eHjGVOSb/4nJZ/bH6FF9UFXFSgWGEcSAGwACXy6VQnNLHnPfasD0h9ehoupQTJ58Hg466GCk05kSQAixGnE1xFEjYtUc0NYB+7o7dRDYbrZJE0OzKCkKda4lg3E+WOacZgs4nzTjqVUhydrkeAbb1JZ1O0Otwoi2gG2KU0kUwKA5GVkv/K9WMSAbiiSnxjEhkKJehBZi0MCdyYa1eSfSeqVyvjPipovHtVvGjtR5YRnHx9f9cE0IkHDsupqDwL4WRxtSFBWwpY2dbM6S2s3+5rrTxk7WZghsqec1FNnwuA1qtyQpajvjzgAEDnTIoFkTV7oKEDjpZWesCQCZFtdWSFJUDWOxTSpAiMhWR9EpjSINVaifOIlfeeUVTL3vT9hlyBKcd3Y/7LpzBSpSZA0KwjGb90mhrS2Pjz9pxV+mr8eKdUNx4YWX4pBDxpScY2jBW5zM9goQxOhpOT1y7kGon6IsStxYWfJerFVI3amDIEqK2qbDUsVg7YNyAQRL+Z7FqWlVDAJs4krlNgcgsE2h/hbmw7E/gVCEZeNlSeaUteLrCcTNcaut7wEIxd4LhRikg7cGQNB2c65NAQahByAURs9C5WpAirvmZ5/9B+75yx04eGQDLpo8FMN3YmCXwCDTnoC4eQihGMhO4fOlWdw7fTk+XDQYkyd/E4cddhgGDBiQaGD4buUECBpQ7m4GQXIQtETk7gQIEorRwmPdCRCsQkndCRBk7Lq6MxbbqzEI2ytAKFc/lQBCsVwwyRT1AASvZyxovwcgdG+IgcNTLqllQd9dZRC4uJJCMTSqjz76KJ54fBoOPrABZ59ah8GDKB2aA1IsZ2SmDQUPiuEFV8HAf/MvEWbB/c79X+z6zacyWLw0h/sfXol33qvFuHHnYOJpE9Gntk/89T0AwbEsPQDBpqTYnQChXDvjLQIQ3DkL8WEBa4jBUllhYWPKBRCsm4XOAARNSXGHCTFoCT49DMLW0UHorhBDEoNAdcRp06bhhedm4NSxGUwcPxB9ehEY5JBmImK6FUhRLbESuVwzi4iKjrzSgYR0Oo8UGYY8cxLyyDJHIV9IVUizyoGZ8H4SK1Jozeexam0bHpu5AS+/WoGTTzkXEydOcloJ0Y/VKFhDDNsag8B1yT/bUoih3AzCtiaUZHFqEq7pDup8SwAE5/gSyvK3Z4AQTfbraoihByAU4/Q9AMFQa/0lzkGIAgQapeXLl+OBB/+K556dhq9NrMUBo+oxZHAFli5tQVMLS3dS2Njchl2H9ULffhVY+HGz25U0N/O46zSQSaG6ohk7D+uN9RvaUNWrAp8tbkVLWyHsUZnJYMROQK9KoGFjFn0HVODjj1uRI7DIAS3ZNN5a0IBnZ23EcV85B6efeQaGDBnS4YS5HoBQAK7bM4PwZQUI5dwZlysHwQLutmeAYEkw3WEYBNJlRLCh3YW1isGyc5KklMRsVO+4Z2lT3LUcIH60uKqWAVzuHATrbl3L3rbkTmjHPcuuIdQmKdmJ9lNcSVmUDoxe4wMEVg989tlnmP7Affj0k5cxaVwGo/fphRdeWYWdh/fDZ4vX470PCicarmvYgNMn1aN/nwr87ZGVGH1wHebOWYv+AyswsL4KixeuxUljB+Ht9xpQXzcAr81Z4UQVs605Jx5y6MHVWLduIxYvb8O+B/bFG6+sQd/eFchnU6gbWIXjx/bHu2834qmn8th7v7H42uTzMWz48A5Z6FLFoJX4OVBSSbYj/uMbdF4RN3f9HISkeWAZO0ng4rWh+WRhECSBi+NhSVLU+kmLdZucTBG0dPU0R/aTmtScb2f3QvorUj1k6Se/DM6fB7JuOC5yTXSeyDU8zVE7gto6dj5AkPtHn9va0urEf0Ljq42dhJstiZMW+WdLFYMLxWRzqKisSAx7WCsGBCAklala2RiL32Sb+Mev9vDtqlTFSAlyqGTfVTFk2k98jLM9SekCHXQQ5ItsCHcNvg5CnGPghODPQ5NGHI2IyMTVGlsS3XiNxNarKtvPr4/eL5RNXVpcRREZEa1xP48K4DD+3NbqDGxIycrpIFRVFsqkErR7WGbjspKp3JjwcRM5z3PSKzqKunjX8/fs85CoiYwd+7tUl+81zDcwpAF9QamooIeMnS/uE50HlmvYZplPixZ9jD/9+XY0bngb35jcD4ftX4X161KYNXsVdh7WD089sxjrGtNYu7oNI0b0xwH7V2KvPatx972Lsec+NXjvnxvQu18F6uqqsG5FG045eRA+XZ7Hbjv1ct9dtqQJe+09CH1rc9h77yq8Pmc1srkMRo8egA/fW49sbgPyuRSGD+2NU06qR/9+bXh5fgv++mADBvY/HBdf8i2M2H23UllYyXjK2MVQp27B59vL9+LmeBxAiKqeST/JAS0y7/z7SX93tdZahFYEcMZNSz7Db1PsOi/OebfuAiVpvH+c44uq1kUFaeLaJW0KqswxINXWVhCvSlahdW1y66moVhdrn3IFAZwkStj1Jed4S7M7pTBkrEVxslRnHtFxSeon6Yc4GxayKdYS1ahNiSvl1cSUfFsQn9QD14+iOaCVXoZExfx+SnLYvEYDLXIfTS9C3k3aHCq91PqJgIXzzF9PpXVQTKGi7+H85RyX33FtyEd0D/zNWdQ2Sxv9BNOkawQgRPt8EyVFQSY+QIgDB67zY140Lo7LQdJAhEbf+LtQn9WIts0CEPgd/vEn6CbvWJSPDU1SfscXkUnspzKKowggC9W9CoOg1ZtbnEyU/YkDCD6rkQQkGxsa8eGCBXh4xjRsbHoTF54/BAfuXYnKTCsa1+dx9/3LMKyuDs+8sBRtyGH1qjYM26kGB+zfG0eO6YupDy3DUUfW45XZy9F3UAWG1Fdh0XstOHVCHZ5+YSXGHDAQr81fh9a2NA45ZCgyFc0YsXMKjz28DCvXpnDYETV4c85GDNmpH5qa2lCRasJF5wzBoPo0mvN5vD5/A6be8wVq68fgvPMvwciR+zqHENrNyVy3JOtaKGFxfJqGhWtTgoKctIn3ImgJnfImwDzR8aVS5hCDe56iqhrdUMTtjn1DHGITRQdBYzU0UbG43XOcDWOfayqYkqQY0tWw9lNn+zLOIbPNJYVAhuViPlbA6exzRNY4zhZE7Woc0LAABL+/45yazF0BB3GAS5x/NMQd1yYfIPgbZfGH0X5KmptiL+JASxTcRQGS/1z2EeeKf5qjzB2ZG7yf5EUkvb9/Dedvko9KyntJ1EGQEEMohqcZRulUvphGv/pIKIl+FQlhTQeBHRhHrUrn+O1OGmheq5W48b00oSQZID5HE5GRfgoZRn/hJF0n/RTqcy1ZKm7s4iaX72RkMUXtEE9jfPWV2Zj59+moG/ApzpzUF3vt1gsVmUIiYktzGn+Zvhx9a+owZ+5y9O1fgc8+X49d9+yL4YMqcdDo3rjv/qXYf7/+mPfWGvQbUIn6ujyWLW7D+efthMefXonaXmk0NubQp7YWza1NaGneiDPPGIqPPsxj9uy1GHVgDebPXYNUJoONLTnsMiyNb543DAMG8CTIPFraMlj4YTMefKgBjbk9ccZZF+CgAw90O1AuLI06Zz9oc1wLD1nmE/u2RIsn7I5lTFybimIzScBdjGfcXJI5YMlBkPmkJV7xOSFHK2EPx9wlODVeo+n5W9avZW26PsjmgkJJvIZ/LFUMEqOO24n69onjJXPOdxz8uYwL/xsKIQl17os3xc2DODEwXufPCbcLTWcc4AzZJ9kMhnbY1hBDaA7I2DnQ4pKR48N2Mp9CfszvpyRAKQA/FCIrtSlwtoesTfFRSaCNbWLb6esSmZZc3qlSin1yTEOELZN14NQW08ljl8gghJQUOUBahrNM0iSaSzq2XMazHEJJSZ3hv4Mb7G7UQaCBtQKEkFHgO1gYBA0gCPrWwJ1M+CSj39S0Ec899zym3nM7Ru+/DuecVY+dh6WQlsmcyqO5KY27p36B6l79sWrFOuy1R2/Mmb8Sg4f2xbDBadTV98ZLL6zF2HGD8cQzi1FXV4Nhg3vj7XlrcNaZQ/DoUytw4KG16JXO4IEHvkBlVQXOPXcY9tqtEs//YwlefKkJQ0dk0NqUwl571ePzJc1oXd+Ib359GIbtTJ0FZw7d8Q6LF2dx9/Tl+OcH/XHpJVfj8MMPR01NTbcBBJOSYkur05/XAKcFtHAeaGvcAhBCzJ2sq87MOS0Xp1w6CEyak1Bbog1r2/bKHAW0aDoIViVFzaZYdBAsIWdrkmJnchC0vAgNmFuEkvydeCiElAS2/LmlbaxlE8DruDZD7IAI0IX6wKKkmNSmblFSjFI8cShWq3uV3VW5AIKP0JNQ3JcaIJRTajmGfuWCamxsxLP/eBpPPHof9t5zLc4+uw7DBlWwAKEggsR6xBSwYkUbnnxyNVpbK9G7TxVq+2axeg0ptjx22rUvkG9z+QbHHN8Pjzy5CpVp5nuk0NgAHHxwFebOX4EBA6vxxeIsPlq0EYcdVofdR1Rgp51SGDSoD559ZgV69euDjz5YiREj+mHDRqBhVSNOnzgQg4dUF46OJjrgAVU54Isladw17QssXDIQk06/ACd+5UTU1tYGJV8tzlgzVJzj3Q0QtLUpu3VL8l1oV8TfbZMAgbkTiqzx9iyU1AMQcm4nrgEpC6thLXOU3XoS4OwBCF7PWBgEQWfarsEaYtDo/KR4y9ZkECxUmCWObWYQtjBAIDh46MGH8NTMaRh7XA6TJvbDwAGVSFPkKMV4dTHhJs1T8OgYgdZcJVYsb0E234p8KufwQ02fKgypr2TCC3r3ApavrMSGliyaNuQxoF8l+vRuc+dzNqxvw+p1vAflD1KoSOVRNzCPwYN6YfXqNvSpJQuQQ0U6jY0bW7GhqRmDBnAXTh2FjrxcPpvGqrVpPPTYasx+owrjx5+HSRMnoqZPTeyat+ogaIaqByDY9UDKxiD0AIRCMieTowOHJ/UwCLZTEbubQTBXMSgKkD0Mgmfat8UQQ3cDBLW8q5h1vjkhBgI+ljL+8pe/RCq/CD/+zlCM3CsPd35LrqJwXHPciYzOQMUpIfKwJm70C0c158FjXtvVFSmXlOJRq94JwelCEKMo1cwqFSbtFUFJyRAWEvk2Cdy537fhrXez+K/bl6K6ejT+5//4GYYNGxZrRK0AIZrwGUUb3Q0QZM5tqyGGaBxc+suvYgjlEGkMoITRdnQGwULnWwGCNse35xAD14tWobAlAEKo2qNchzX1AIQegNDBH21JgMAHceLOmTMH90+9C3X9P8bZZ9RiHyYmVhYTabySnSQqrvDztDts6Z3312FA/94YPKgPFnywGnX9Uthp195YtqwFs+dtQFue2gcVaG7Kg6VkvasrMXpkDfbYo7pQwpanCqNXh+p+xvvz/+TnKZew2NqWwsIPmzB1+gasb9sdF118KQ444ODEPIQegJB3NG65QwwhgMA8m3LoIFjYxC97iKEHILQ5e6WdMLm1QgxfeoCgocqtEWLgM7USRm1C+KWXoSRMq7qW9JNWxaDRgd2dpJhEUWbb2vDPt9/CtGl3YUPjfFwwuR4Hj+6NqgrKKRdhAWP/iR8yBhmsWtOGqQ+tRE2fDHYeWoWFHzdg15174aRj+6KpqRJ3TV+CAQN7YfnSJjS3ZLBy2VoMrKtx5ZFjT+zrVBldjkEH1oKaFI7S8H6eQlMWmPNGE+6ftgJ9h47B5HMuwuhRo8uSEGgJMWhVMewqitZoSYqWOOfWYBA0EME2+fYiVNGkHYVbLgbB0k9iC0K5Gnx3ax6GymrkbLF1Sw6CBSBYbBj7QLP13c0g+POpq5UVmj9wa7O11fmVUCKjZW1KFYNf5hg1k1KhoKmFdilJsaWlZRMLzQcLpRTKlLZkrUoJUKjDhOqTTEwp9/EHVGjFqLqjf41fQhLK6rTsGkptokBOgtCKtZ/4PLYz1AfWvpQyotCum0aB46Zl9wpISrqXtCmuptf/Dq9LEhDhu3/8McWR7sCqVXPxjfPrccyh1chUFDu1WD8f34bCQU1vvtuKF6mC2LcKixauQ6oij9Wrsxj7lf445IB+uPuvS7DTkBosXdKEVWuBFV+0YuCQFE48fiDGnVRTFKhiSELOcig+jaEED6CQ1Hh2dhOm3rsSw3c7DhdfeimGDh1WApJJIVp/PiWVevrVHhp1ruogFDPvQ2VLHBPHvySUCjruhCV8ikYJjaLU0lvq+0NzxbLuxF7Iuo5rv++Mk/pA+lt+H6pbtzhjrXyPv7fEg6M0tdi66HrqzNglzTk+S3bG0ff3SyejtfTSFv87ohfh/yxqe5Pmk/8stkl0EOLmivSH2JRQXkQIbPn30SrtpJ+CJYXFtSJ23B+36PvFzVl/jPhumj+wVLVpFWQyjm7OpbwSxxh/Vhq7iCBcav369ZsNECzOXzrSdyA+AJB78L9xE0Y6lr+n46PTi+7Wo50vBjhkrOV5ScbafzdRrYpDcFYgFZroYqz5TA1IyeQK3c9H+/7k9Rd+yYEUFeRcGyJSkFFjHQIlSe3hzzlBP/3sUzz88MNY/NmLmDA2hROOqnWMQEoJNbQ05fDorBVY8H6LSzhcu4GhgWZsbMojl8/i+GOGYNYLyzFscC1ybVk0bsxh8cdZ7Lx7HkeMGYjjjuyNjHtH/inIcJc+DiAUHGVDYwpPPr8BzzzTgn32PRFnn3MO6urrC8IiKdEyS7k5GjXq0k9xgEyujfZlknEUtK+BO38s48Y4NFbyO8v65TyRHaYGNvy1tMl8oGSxKIpmCoqice2WeRn3fvIz16aWVqdgGqJfk2xK9P01Z8zf+yA4rm+lnwSYJ9kef/36djAOIESdcdy8C70/152UsYZEeWQD48/J6LP8dofsapI9lZ9Lm2jD/TZF54Jm52Tu8r7RtVJqex5OnVbGN8lGCQi2AoSk+yTZyzggxWvjGGxpu7BWPlscAmTyu7g15e5JM+aSwOI/SbYglc1mYwGCdhaDIA7+V2MZLNQqqadMRTI1I7sGTZuBg82PZbej7cCk3bwuumCcQy2CFk52jbGQxRc3ufy+1MIesgOJczB+m/j+Wp18qJ/EKGqUYb4oQ6upzJE6X7VqFWbOfBSvvvoITjkeOG1sHfr3LyYlRnbzMo15rsLHnzdh1rONTsjomBP6YcXSRuy2c18MHgLUDarBjCdXYrddatG7qhfefnctFrzTiDFH9cZRRwzEXrtWI+OOh6ZH4umQxUXimIMCQ8HTHR+ZuQrPvJjCCSecjVNPm4QhvHmqkLnMhZVOBY6wzWbdXDCtA2qisw0xa1XmOGnF0PwVg66BCDFCSUaBz7OsTU0AiM/R2uTmeLYQWtocwRb/Haw7Ptk5iZBOXD9YWA3pJ+18F1/WOAlIav3ENmptstoLn/3R6uRDQjrW8XVOJpcPiilZx85SWeEzCLEguQhKZW0mOXZNUEqcpxZikH7SEhm1MBPbybkUPYshOn/5POmnEFAU9mdzGOzN1kGwTBpxMhYjpO1SxHhykWrxfnawZqy1XYN0fiieJADB4ozZJg1EiDNOmsgWg873suYgaADBEiujQWBSoLVElaqKjz36GGbOnIZTjkth8pn90aeWDjzlShk3qW5IpdCwPoU/37UUb73dgMkX7YQVyzZg3xG9cOihtWhqBf54z1L0qqzErrvX4uNPNuCd+Rtx/PH9Mebg3hg+tBIZV8ZI3WGCR6mSKICGNWva8JcH1uDVeSmcfvolGD/hNPTp06fEFGhGQQy6GSAEysk4vgRS3Mlo4E6bT04GnbsUlnEmfPi8bU4oqTWLHIpnkiTEdCTc6HTqE66R9Uv2L9QH2oZCbBivC8V6pU3uLIZMvKwx76U5B7nGsjY1e8FnWZLvrDkIWmyd7eG8c5uFhN2qFSBYsvMtjq87cxBKcy6gpCj2gvM25LAFIGh5Nmo/5eHUFkOqlKHNYA9ASDCePQDBO8UucEqhj2JDwKYk/1xRCYKEWU/PwlMz78f+ey/HWacPxbCh1Ui5EED7gSQcmpa2HN54oxEfL8ph4OBKbGjKYX0jqxRS6Nsvj9raarz77gbU1PRGVWUeaxo34pPPGjFqJKsmeuPA0cNQkWkuFCoIg+DiiSl88nke989YiUWf1uHUr56PE08ciz41vUuhLssc6AEIBSZNdr1dBTbZHoDgQIQGECybhR6AYNPVsPaTtlnoAQgRZ2pBwxZ6zhLnlN0VUXw5jqDW6FeLc9gRGAT2e4ix6QxAKLE/eWD9hvWYPfsl/PX+O7HH8DU4b/Jg7LYb9Q242W/fgeXycCJIqVwlevXKoLk1i/UbW+AOD0wBlVVp97uqqkpsbGpGW1sWbbksKjM51PSuQP9+vZGi7gJvhEIpHrUUPvioGVMfWotV60bga2ddiEMOG4M+NVRLLOTCuMu8w1C6mpVsMeg9DELBoFvYGItQkjPoxfMDklgUqzPWmJbtmUGw5L1YsvPLySBYWQ2uSy3UpjHY3Q0QHPMROfgqOj+tDILaT1uLQbDSZRaAQINgPRhJk1q2LHgxQlq834IYpWKgyzsnr7xrWwoxWAGCdtZGXPkex/zdd9/FbbfdhNqqhbjy8qHYdecWZFDZLl5UyhmQJSQpM37qjCQhFgEAv8Ms/g70c0FYiczBBwtbcduflyFy5jXgAAAgAElEQVSb2ReXX3YV9h25X4nSjyYCafOyMwwC+9KSq7Ejhxick8kVQgyh0IgZICglZxZ7YQnFlBUgGFROLYDT6vgsNqwHIOhKilYGoQcgeCu7rABhw0ZnOKp7UT8//mNZ8FaAwOs0EGFZXBamxRIrsxgF9ko5cxC2JEAQ5/rmm2/i/ml3o2X9fFx8Tn/sv18NKqtD+giJw5/8i3wazW15vPFmE+6bsRY1NQfi9DMn45CDDkbvXr1jv2cBrp0FCJrj29FzEKwAwSKUpAF82eRY6PxuZRB6AEKpciZps8Qxs2oz9DAIWyEHodwMgpa16ujXMgEEMUKa89faZA0xWCZyuQAC20TjqdbSGzTopU3lCjEwNBR3L/bPwo8+wtT77sG6L17FGWfU4MijeqM6QwnlzQADMV9paQFeerUZD/x9A4aPOApnf+08DB06FH1q+gQrBsrJIGiGyg8xJM1N2aVIkmKSAbVQ9VJKVQ6pZQHBXWXSrACBQEpL4OpugKBVe1htpnWTU64kRcsmp7MMQuLxy21ZNLc0q6qFKnVuTPi0bKqsTIs2nzrDIHAuhPxPuUIMssnxE0zjbEaSvQgmKYooUawRygOtbYW6cjEKSQ/WJrIlB4EvQKPA8+2rqtuPwPR9gSRLaWUtFgZBaMVQ9qfQirwmyYn6k0YTddH6yVIx4AOEkGNXWY08XHVCqC/5O38BJsXp2d/CavjHl5aCBsX7LF+2HHfd/We8//YsnHseNQzS6FNRWTzcaXOBQgYbNwDPv9iIO+9fhTFjJuIbF38D9YPqXYa3VlIohjEpzukn6IWcus+khZx6lEGIXivzUip1kspm/QWf9DzOAV4XNybS22I8QwqB0iaJB4faJNnboTCahGKkDdFr2SbOJ1YxJAESy/q1gC1/jst6imu73yYLuNOAVIjVsNo5zl0JxSS1SWyYlGqHbL2U7yWNL+8VV+boX091SwKEELiTsWObQ+suWsUQbVd07EJljr7iZNx9/HykUJviNGiiPort5v2SqmL4Ox8gJD3PMsfFt/plrHHvl2QvUs3NzbF7NNFBiJaviWSMo1ZzhYQieYG4AXCThtekM06IJ2Q8tB29OBkt3s22aaIubFeoHtuSoGZlEKT2me+u7fikL3lv/+O+V6zrTXo3uXeSoJR/P2lTh3tFZoKIjPhtlr9L+8RYyTyJtpvPZF9LIlSQYs9msWz5Mjz290fxyssP47TxvXHKV2oxcIB/XoIRKBTOdcLq1Xk8NWsNHv9HFocecwa++tXTMWzQEHe4U1xylpvfnkZBtJ/ixoXvp865XAFMsQQuaQ4IuBN51dBckeeFHK27hiJRASXQqDOO9q6MXUjrQ+YA26IljGltkr7kvXjfuDXDMRHHpyWP+t+Xe7IN0m9SfaHZizgb5s8F6SdfGjfJYQlISprJvFfIVvB7fDb/aO/POR4SABJWI2QLna0vhlu11ef7A2ln1O6IMqfW9ujYxW0GBbTIXImbv7LximuPb5/YT6G1KWvFvyZqD2LtaqRRMsdDa4VAihtwTbyJz/N1F6LtkbUZV6LqXytgKtqmVBtPwon5CECIUy2Uy/3FpRkzzflrVC471d+FxrXZ382FHJHfab6x8O8pO75Q7a+0KaTNIEDDgr79iZy0EIXmSupvfk8DUn4/+RMiek+faQktQAt1ToOuhT04B9iGxsYGPPP0k5j5+FQcPmYjvn7WYPRl2klySf8m3ZVNActW5fHwjDV4Y34lTj3zmzjppFPQp7aPO+cxl/v/23sPMDuuIm34vWFykDRJM9KMogO2JMwH2GZZwPysMQZZhF1y+p59yPCT9v8A29iAYQnf7rK7sGBjwBhYogPGQTbONrBgHOSEbbAsWVmaURhNDjf9T1V39Zzb031OXc3VaCTdu+uH0Uzf7tN1zql6T4W3cpgYn/A8CKlQQlzApeQlJrnmTlPiZ3pabEZdkjnjvHLhubMBbhKKbd9pwlpijF2eFlJoBH5sSt/ptfLBZJQiDhuZOAph87rwCTO81+P2QdgQifK0cX2Il8yWYMrPy+Y84i0LBbYmXCMHL5thD1znNbWx3Ayin2zvRvJwhUkFsLh0mMadb+pemYuodS7zazvRBwfUEHtneJ0IkIq6V/BuOQ/gh4nzzEOTucZde9Nmo0jeGqIksZs2YCPXxB0+BSRFzZ0zxEAL3masBA27TsYug+2K92uMsSxkGovreZoERE3MyWWMBaE7T1e5PNOCuoCUS04mQJiJG9O2aMJAisbkIpGRvAib94c2qbipCVDcecft+PWv/xunnTqJt7x+Ptpa8la6UI8ZMYF8ooCde7P41TUDePLxeXj9m9+CV5xzNmqMZERZTy7D5wKuJAtNrgY9z2X46O+lJCm6GAnJ42QjCdLmIJgMgXHAnPeKo6RQAKBtXcqYXKE9TZKiZu7KFe8XgEBhD+vJkJg5HZ4WjZxKAgi1tVZKao1O0eYghD0I4fWiadYkOtOmC0XX2w5wosNcBxgNaBEw6WJJdAEp0Rd0P9s+0OYguIiS6DmuMGkFIIRWqelBsCGvCkDQlZwdDoDgeRKGcd999+GGG65Cz6Jd+Pu1TVjRU4MEn77C3Rk9/oRcPoHN23O4bn0/9u5dhPPWvRkvPPNM1NXXs+eAP0SLQB6piXFVDoKLhcyMKcaB6XICBFFCcw4gOEoKNYZPCxA0ZY4VgKBjUqwABJ2cwu78qL1+XAEEUowuUiIXGtZkU2vcXOX0IGjQt4zJhlDpmnJ5EDTuXo2cDocHwYbkSZblBgiCrOl9Jycn8OSTf8ZPf/YDNNZsxrve2IoVS2vB/ZcSxd0Zs9kEnto8iZ9c1YdC4hS8/a3/iFWrVyPNiY5+9owfUBOAYEu+E/Q9lwCCrAGXl0yz78rtQQjrgjD41p7W5cQX54anuZttgEBjsnnJZtuDYIb/4g452pNxOQGCK8RwNHsQXAdGTSim3B4EV7XHYfUgVABC1trbu5wAQeJuMy0pPNoBwvTMZUrGyuPRRx/Hz352JRK5J/GONy3EKSfWoqpKejekkMkW8OiTY/jp1QeA6lPwrnf8bzx39RrPjUfZitKCwYf9xzpA0Hg1ZhsgSK6GzQUvY3KFrDQAQXPi04AWDQiebYCgyWk5EgBBgFScJ00DELQHIW3YoxwhBlkDrsOCZkwa8K4NMVQAgqnQx8dZ4du8Gho35lz2IByNAMG1AbXeH2mdHWVASNk988xGXH31zzEwsAGvP7ceZzyvHtXVwNhYEn/cMIb1t4+is+tFeP0b3ojuniWoqapGMpnw2jD4oQWJMsiYjlUPwtEMEOQUakvmdOUgSBzbFTOuAISpjoC2xGeN4dMccioAQUcnfnQAhFSaOQdsSYr0Nxc7nAtVahCjJHAxk6IlcVILEFwJY2ULMRCfgN8y2HVyojGVAyAwX0RVlbMjoGbuXC5DjVKQuYsjSpL1ZQMI4prbvXs3rrrm59i88S684dwarFk1D398cBA3/mYMz3vBuXj9696EhZ0LQVWiaYqJU7mc0VFanlXOJEWNMdac+EpNUnQlw9EadrUopr3pIkrSJim6ePG1HgQtQKCEwLgwhGb/CojQ7ANXGK3iQfDyelz6ouwAwZEYq9l3pXhaXEmRGiB1JDwILs9H3Nwl8nnuYjPtQ0aGhOHKQXBtLiLOIL4EV1WBKw4mCr1UD4LJ2+AdIr16dHMhh6/hrM5CPqj95Vry0IfuIyEGjTF2nWQ0i0YUmiu7VwsQXPkj4mmxGaJgfqVUMKLmXutB4AQfR3teuteePXvw6xt+jYceuAlLOvPY2deAv3nxq7F27WvR0tbOoMBbTymk/Lmj+TI/MndxVQxS2hQuEYraK6T0aL24+DnEyNA9ok5r9G6jo6POds+aUjnNetKAO7qPhlDKVXJmGmNZvyTj8IfaBZMsXYcOIUoqB0DQ7APXIYdkSWEPWk+ug4CLB0EDpFTG2J87DQ8CVaDEtWhmcJ716u1t12j0hawnTatuV+mlrDlbyehsAgRJfnetJ838luJBcBl/AS2ic6J0T1xOSyKTyUzbpfSitNhJ8K4TCC0eqwHxlYBZKxqlZOmZtqxsDUCIm6AkPAPPRt0HCPRvWVgEEMIggZQUMQlSjXwYIFC/er6fQWscJwO6L42dXNuuhSxejTgDYlZfRMlQfsfUqak00lUxDW+IcInbIdrnTja8a164B3x6iqQgvABFeRILpm1MJG/N5iI5DA4O4vLLv4MHH/gT/uGNb8F5a89DQ3MzClRjni+gkKeyO0IrnM3oicYALzQm2oQM7nxww0Re/kUMEFDcoIX+Zl4j8i5inPSv8R7nXc+AU1HmSGCLKitspER0T5o7rqVPJIP7TzO0DvImkrM5prj1JHNnC8XQK9rmTuRgKkZTNuazea/4AMoWYhBjXLQ2g1iSd0eWk09OZuof82cZk4soKaznaH2Y9xGdaQUIPtGZCRBMkCT3M/dd3LwIgHV5kbSkRDZCLVm/rkOOdj25xqSpMhPA6eqKWHQvy94UHgRbmIXWShy4lfVMMpA1Fzt3dCa32ANJLCQARH1i4kCZXGfL1+H3D4G7uMNJlA1O5LI50orex4cKpNQIoQtAiBOaBgnJhg+TS4SFF8SxQ7RvgeALPlFSKo2a6uncDKKIOaboC1+eKex4shllc7FyMZ8XMiCyIFh5iPIpeECDxWUo9LgTjyzQgGzHByNyj0B55nNFdfIkcxmv/KzdOOJBIIMcKGLK0ytMGSxi6eJMeIMkyLxWWBvpmbwpTCNrrJOok0x47CRHIUqiMYWNNcvSb61syqlojRDFAS12o4fE17/+dWzYsAEXnH8BVq9ZjQLJzNNmKOT9Ew93dPQmltexP3byapkAIWywxEMkiW50wpJxkxzNjwkQwus6WCv+2M11EiUn2ndiZGL3nU+2I+yk057pU1cHc1fU1XLqau0plObOJACKW5cC7orGbayVYO7otMpzFeFB8JlXeR2I5y7klZL1JMx3rJBD+1hOjqZRC8tbrnGd6E1jbAM2pgchYORkW+C3D4e/fgWYG7qE16dvwFx6VcYzbX5D4iRdSPtcw4JpOwQI2GKeC9KFZsKv/7PpmbV5IwSYR3o1pMIoyntr6i//mbTvGCBYSKdYr9BBL52edgiU/WySEpmn7KJ1nvfuwyGGKHZS7ijveZ051GboCxMECthiwEn7IAq0JDBFtVxbF7AQR+1zml96t1QihQI1rvHXm/wsh5yifRBxICZ9WMTD498nliiJmRSTqRnlIJBgTLdTnMITJKQhR7GFGMTIsOFztIuV07ptTK6yFnpeYIyrfMMXmsVphi9GWdPC4rBHKm1FjK5QDD2vnKWXGiPjis9qQgyyBmghx86dfwIjEdN1X/7yl/HYY4/hs5/9LNasWRMoCnqeyClOeYiR0RAlTa+sKJ7kYO5ICVmMcQCCLde4iJLkRECnCiuDXC7PBtjFpKjJQRCAYHue1H9ryLnixiSGrwiYRxzDZO40OQgcsiIWvRi6aUlSdMnJtQ9oTNKsyXVYcHnJNHlUmjWnja1r+CJc+UGi61mHWfaBhBhcFMIuPUfLIuAcIGMcM78aOZkAwRayMvMLova5qetdnh0av4soiWReT/wtMQBI60Fwza/sO5k7c8vZAYIiB8G12CW24cpBcJVraIyMLBotQHCNSQMQnMbYb2rFqNKn+4zQeeDYa95z1btAiys2p233XI65E2PsKkvTMilqjHEUQHjuc58byE0Td5T1pAEIrhifKCFXDoILlNLfXQCB3p2TXh1sfHwKnWUmRde+M935LiBlSwaTsIcmju3KadFUMcTFZ819LABBw6ToctVrAIJmjWsBgtYYuxL0tHJy9YcQQ+vSc2ywZzlJ0aXH51qSIumAycxhaPcsvRhcSYoaRUUT7jLGRwIg2E4NskhnTJSkBAi8ufKFOQUQNC7o2QYIYhxpo37lK1/Bo48+yh6EMEDQejWOVoDgOoFQ3JE8CLZ9R2tO40HQVjGUAyDImFyAU8OD4AL4ArZcsiTwTi5YVz6WJE7ONEmxAhBKKL2cJYAges51gKkABAM2a08ycxEgiMsw6jRPvzsiAEHi/TEuaC2yLpcH4WgCCKeddlowlaWAlqMRIGgMiKb08kgBBJcBpXHNKYCQ92LL5QIIHH+2eBM18zuXPQguUHo0ehA0YUvxYGs9La4QA60DW1tsTYjhuPMglFrmGOnOV9TrHs0AoZxljlFxKVOmpRhjW9dLuqcrzmm618MehApAKF7pFYBQXIESdxDQhBjEGJcDIGgOVRWAMHc9CK5w43HjQRAeBFc3R6d7ToG+NSdjic/SJi0Hk6IrHlxOgFAKUZIt7qaRE81HOT0IrpNTuQCCoGGXC8+MY5shhjBA0CQESlKZLflO46aezRwEbSKuJvdnrnoQXIlupeQguE5zWoDgAsqVHAQdQ2C5kxRnKweh3B4ElxeJDku0Nl2JuK7Q/GHzIBBAoFOalBJFIXBBurZYvsYVpjF8AhA0TIoCWmyJUOUACJrESW1mqybbViMnqWLQkDdp8kc0yprj/VRSybwD0z8aOYkHQZKAXKW1dN1Xv/pVPPLII5yDYAIEJm+immVLwqeMyUW1LADBLH8Kv6E5d/K38Pg1+0CbCS+nUJcrNyqMZo5LCxA0VQzaMUmCqW1+w2uO3oM+8h1tFYMme1sAp0uWNCaXB4F0Jin0clQx0PvGlQTT3zT6QpIUXWuc5UR8L6nphHCynuleruRKLSjVhhhc+V+8N8uQg0DvT2OyufNLyUFwJTJq5ERjovdzVXu41rgWIMQlmDJRkmxAU/EJUZKc1qMYCWVzyQksjpFQiHR4g0fwNkqtZmytqs9sKCfj6qpo+me6jzmmyOclYkhrQuNyMSmSrOgaJiVKp6eUR+g+MqZgc8W8Py1AU6EHCtS4np6nATYBURKVelrKu1wAQcZkq5GWPAWpfY5aS3LikxBD1DVm+CAMOM3ryfjT/9GY/uVf/gUPP/wwLrjgAk5SlI+UXLmAq3AzBFwQIVmZ4M5Wa63J3tYABJGTKy9Ca9Ror8UpfSZcyud4zYlBK+IJMGrywzwIpp6QEinTgEzbd75cp60ncy/INT6Too2QhurRJUkxqDcPoTYaF71fkVELESnJOglAS8RmCTOvhmUkXxHQYuOwMJ8XeK1CMuBx+1wftC6juCJY9xj6Igps0e/E8LlOoVrjL3og4HgIyVx0Aa0nc88G4BoJ5hIgYxw1JvmOyID1k5QwRuhVGXfcGhAd7dKZGoAgjLFhPgF6RpjrRK4JA1u+1ij9jytpp2vEg+ACLbRWpq1xRtMerxHbHyJKSiWnCJxElgafRZxtiQQINEAxfAwQQoQevC6MmvTwgihSIHmPC4GviUIH/sXiKok8ghqshUXGOHSxbApG3wYvQXixyiTJgo8yWMEplEiCYk7G5mmdnhd5H3/DC6qMM46BobUkL5mGT8g6REGbJ1epQHGdiug7JriT+RFjSGMSIzONIMZom0yLK0qWJrtYQJRE8xK1nvzyPZec+H3zBV7wBBDIg1AyQPCZJCcmp1PjmiCX2TTplELkKEYtcngOBSDImosDSWbYI8zKKIZIyHaC02OE4QuzFkYBczH+NPao8fDzfSM6TaETkYqfKEv30WTnTzMyYRIgn7mRnhm773yyGbomAHeGYTBZKTVUy7R+A6NmHE5kP/P7Z31GUSG2CSsgWisFg6PEPOQYgLKIeMvCwRKWU5QhNQ85cfrCBIlx3hh6VhGQijgsBCBYCIeiDhQ+U6aNbZHGIKBFwqRRY3eFGOQ+Yvjo35HkVH6PGzaOcZ4Pfz2Z4aGoMWnLQc31FEW/z56dPHWY9XhabF4yGgcfTGIOcCrQIiyJqRBZlEnqFwLKsu/FIyfyIF0X7E0aFP0/yZ56MYRfhA3f2DgLPvAgRGTWmyVnM3Hni/vGlbk8NjrGQKOmdjqToqCzqJiiOTYxqGJkRFDT9ILP7Odyc5FbUUBLlAyCDUgL2bFoJN5vk2W4Zjly7vyulzaXqCtZykS6UTF6ea6cjEWhR41dXOeaZk2uEIMk39HzKMRgljmaHgQOMRC4s1SECGuhzSUcVuhx72cqoahrtB4EWk/iQbCtJ/H+xF1jKus40E3vJq5zuU9YgYpXw+WmjlpP4X1Hc0K/E7AVJyc58cXtTW2IIe5kbD6Xx41EEVV4WF4meLftTVcvBgYkBhNo+P0CZe3TTdtyYzRuajHGclqPO8AEJ3HL4cR1jegLcx9EzZ8LIMgYJXwgYC5Kz7nGxAabyscNL1kUINMa43C4MWpfab0x5uEs6j5C3kQeBJsOY3tgkOtFyclF8GTKKbzmZsykKIrKdvKXk5PtmrDhi9qkYozL0c2ROQcsDGti2F0AQUOUxErIwnwnExSOvcaBFheBSDmTFF3uOZIjnWhdJEHlJEoSOdmSFLX9IWzc+Zo1YM6dSwYuWdLfy0WURO/PJ3GjR0Z4PUkc2xVbLzcPgq3Ez3RTx+kLAS0aoqQwSAwrUC1AML0/UeMyw0O293MBc1lPLgOiAQjak7Ezju2zFrp0oQaUugCCedBz6TktUVIYtITnTyunae78iIUQsDtawFYYJMYBBE0OQjbjezgtXpQ5TZSkOTmJIrYtCFGemiRFUgI29zorIb/BkAuduTbFbAIEjSxpsc1mmeORAghhD0K4isE1vxqFPlcBgqoMrgIQOAZv80rSXikFILgAIOdqVNc4k/1chyqNARFwZ9OZWsOnkZOrfM/0OLpCm9okxXIBBBe408pprgIE9iCkYmIVc51JUWPUjgRAcC0ajXHgUIzLne/HysrhQdDIkpReuT0ILhZM2mAu5VluD4ITIBBttSXEUAEIU5nwx6oHQWP4jlaAoNEFWsOnkVMFIHjhIVclx5HwIDCQismT01YxxHnuDnsvBlnINiV0JACCy91bAQhT1R5WgHCEQgwVgODwklU8CEfEg2Bt91xKHw0H26KEGGwg+GgGCGrQUoYyR62cKgDBD4bIyZgW30x7MUhijuYUOpshhrnmQdCcCDTXzLYHQcI16ap0XMiYE+EqHgR3iaqE0VzJnJo49tGag2C6zuOSFA8lByEulKj1ILgOFBqPVBDS0DTaUgAEV56C1vBpchBcyXeaEIPYAgkx2JIwKwBBx4NAOQhHzIMgRElxml+lqEqgNZ5NgOCKUWs9CK52z+TioZ7dGvIMV5Ii/V3c+XEKr6w5CH5NuiumaGYJxyVwSXa+zZNEioPk5HqeKGuziuFoyEFwgdJyAgSOYyu6OdIz51KI4ZgHCBlFwrKUXtq6vyr0qgAEVwWKhA9cyZU29/rhAAikB+L4RwL9XAYPQqlVDDZOlHKGGOheLg4LJ5CaaQ7C+Pj4NOoeEr7w4ruUtSvhRjJbbYtPkKUmZqzxagiytpUkyenElqTocilpchBk45jlXXFGVHNKcV1Dz6NkKZJTnOKXMVlPIFRDTGQsPimRTZauMcnpysbuKGtA5BT3PDOB61//9V+5zPH888/HqlWrArHK+7kIniQ736aEaOxmLX1UqZh2jYucbNU8AXlTiGzG/A7dR7OeuIpByasRNyaStygh271kXmzKU8ZNY7etJ1cJMt1HTqG2/WvOna0igv7mGrdLlvQsOYkHcoogQTJlYBuTdn5ta1wLEFx6TiorqPaf5R3Dp0AysslJ9iXJiZI5pdY+LAdTZ9oOQiRL19y5xiReHY1XQ7PvwqW8cbreNW4tkyI9z2Y35YBqS7anscTpsMTQ0FAEt5+X3etKyIj1KR/CH2Qz276qaeYjCjxKmclikWtsi4/GQdeZpC7m9+i79G8TMboAiW1RyATZlKeM36bMZEyuBSFytslAnueSkwkQ5Dvmu4rypDHJvIRlKYtUxhX3jrIBiT3t6//+dQYIn/rUp3DqqacWL50COHEnyqDL3DrRt79xTO+PzFOUUqPr4p4nz3TJ0pUMpr1PKde5lLCUILuMqOvdDkEtRH5F1jiFYuL2S3gebPMSfoh5T3M9y56PGhRdF8gp4VEWFxlTIo4iA4oC/16zTkTe5hjMZ9Pvo2Quv6O9Ih5Hl85wGSzZdzZ5m3vatu+InKqqOppYrpQ1otXjrnuac+fSh5o1HjcvMo6ocZv3pb+TvOk/WeNxay5sN6PWjGs8UfcOuEpyuVw0UdL4OCtzWw6CphyHXsA8OUUJmE4M5Ia3uZTE/Worc5SJpmfYUJW4Mc1rwuOi52lcwq7YuoxJwJbtZEzPc5FFucZEzxMmRdODEH6uJjwkiVDmKSV8H1nIrrkTOcWGkfxQDN3f5bWiuaFrvva1rzHV8oUXXsi9GGRsPHfZHCgvwgbaNERJ2vgsbTITlEatJ42nRbOezH1nez+RU5yClLmzrTm6RtOLQdaKOXdRSk/kZNsHJjCPGjs9S3PiM4lt4p5H19jGJMZZM3cuDgtR/DQWG1mUjMm1D+h+suai3s/0IMR5GkQ/uQ4UweFMqI9DE0P3MU+hNnmzB6GmJtZrI7rXOibSF5kMl5TachlkXC5Pi4zJdi85NLtCMWJ/bPtO9macnLTNmmSN27ygdC9TP4efac5dmN2RqxhMtCdflm6OLoBA33VyDvgKPU5gGgSnAQh0f1WNuG/8bQBBMya6RpODwMbYRZSUzTFN50wBAskgTLUcpzzoWs3c2ZRQuYAUjUXjIQpi1Kk0vvq1rzJAoGZNz3ve84LlRWNynXrpGhdAkPXkUp70LFoLM63UUa0nPxNe5i7uFCXA3GVkXKBUjLErO1+z78z8AhewcQF8oRB2xqj9UlcXQNDug7j7yNzZ4v00ZwLMbQBBK0stQNDEsW0AP9gHing/E9A5yLk0PAhO17mv6125XRr9JDkIJCcbQNCEYjQeQAHTtjWuDTGInrN5NqRtgivkGnWgiCxzpAWhAgjZHLvMyrG5XC9aboDgOhFoAcJc5UGw5SCIoioFIDSa8nIAACAASURBVNgUumzmOGUtxliaNcUBRS1AEMVITIrUi+Giiy4q6uZYToAQRt9xJ1oNUNZ4f4hOvLqm2rqnSjlhzgpA0HJ9+PrCZfxdpytZT+UwfBpZUkIzcdXbxi2eOxeQ4lMo9T2wdE7UJrq55FRKFYOLUEpj+Exvsc1DpAEIbA8MCuGofacBUhqAQM8KelbE5OyI98cVdtfIyczXiZNTuQECza8rRFgBCP4q0yxkWRAapUBKOPb0qFSepITIg+Cq5HAZGfEg0H1sxkGlGBWZ0hp34OEECNKLIVzFUC4PwrEOEEhOtjin1oMQND2yUcwqsvO1XgZNs6ZSwkPWQ44SIEyMe82/nG2Tj2WAQAy1lgZ3ZnjI5f2ZTYBA66m+vt5aNVFOD4LkfMwGQNDosDiPY8WDYGnm43JzyanBBhAYaGRz7hBDzu8YR6xYMWNi5Znz4u+xzFlGiCGqo6Xcu5wAgRaXDVnbAIIZ3jI9CK4YNSmhcnkQbDHFzGSGXaZRykzGaMbfzfcxTz0COF18IBL2OJQ4pykz09DGeWwE3LlYMG29GOR9tWs8nKsRHlt43FHrQNaTxLGjrqFxlQoQ4ubOjK3LeKPiuDOZO1MOR7UHoQIQpnV/jVrj5QIImkRrqYyasx4E16lX484/3CEGuj8JW5SExoNgxrFt7Z7NipA4ZcZKyG9jTNdEXadJCDRzEMRtSO8SVn7i5nKFh+h7rtgVjZsAiybEQM8zx2KOTVMRYiZOfv3rX8fjjz/OVQxr1qwpykFwhZDo72T4qK1y5LgTXta5megW3ugyR/IOtjggfVeAlC0Xh8fkcAeSDMxEN7pflMGyJUvR30zvjy2EJF0Ko9aKvLucrlwx3PC4w7IIxpT0OnFGAWGZO1cVgwvg07NNz0csuKOW9X6IwQQI9K4Su1fnICh4EGYbILjCu9pcHD6FHqUAYbZDDK6QpBlikL0Z3qMSSnWFhyoAwdAy2riUaUBosp566in8/ve/D8o76Xd0TZyxlkdKzCnO0IqRofu4jHFUDMhUoJp4Gj2HFgT9rySYRik+M1nKZhxshlZkJDkBcWV+Ar7o7yQvmSN6rjk2TWWFnOboXhs2bMD+/fvxghe8AC0tLUXlY3Rf29wJAIwzWNQCmIyCGPUoGcr9BWzNFCCwwfL53m33ins3E7DQz+QydSUZy5qzAVc5pYSNvwmmZe7iQmQibxm7DSQJKLVdYx46ouZGgIuAW5t3wHWak3UeBsrNzc146UtfiiVLlvA6lioGq/enAhCCCpS5EmI4UkmKNntAY6I1bob/jghAyOfzkTwIqiTFUK/tqA0tBtIWW9deMzo6yka2HO2eTcNHP//iF7/AT37yE7zoRS9CU1OTV7McqjOOOqWZp0LTIIVPyWFjFVZYYYUWJUuJE9nyIuh7pscibk7iXKVhQCLK0+amFoUeZ9REwdLp+KGHHuJbLV++fNpJ2TT+NuMgJ2Z6z6g677ChjLuXyxiH5yjq/eh3ZtKRy6jZ5k7eX3PKjrpG1lBfXx/27dvHlR3z58+PG1LRGneBRJsXSbwRUZ4M8+EiTxf4MddcnPGXfWe7l+zxOHBAz9GMSa4zn3Xw4EFs2bIF73vf+/CSl7wkoBPXVjFYw1qZDINb04CE30F0gSsJ1VVSqNG94kFwJejJPre9m3h/SE62ubN57mRNufSczJuAybiNQPdxyYnBezbH+SWucbvkxB5AJJy5KjQum5y0cydeSde+k/1iyilBTIpRX6R4Gr2o7QQiCs21IOhFXNdowhDCEOg6ibuMmrnhRcH//Oc/x7XXXgui76UTgZxuXadQ8+TkNERMHTZ1lQlASJaiYG3KWmOMJSklSubmqc/2bjQWGZMtdhV3ugobBtqAAwMDuPTSS/m0/853vhONjY1Fm01c57ZxaYyx6yQv8x9WQlEAUObIZYji1pwpb3MfxBm+oK6ZyHZoufj5KKYhM+fFvA9fWwDuufce3HXXXXj/+9+PZcuWFS3LKGDqik1SHgZxStj2cFTYI7wGxCPnWk+yxm2glNaTLbmSFbrDG2MeAlzK0xwTvccTTzyBK6+8Em9961vZi0B/14SHTK+k6JjwezL48RMZwwcNuVbWgMxJ1HoSAG3jHKDvhUMxUeMyjbELcMn+jboPPUuMcXhti/4TneLSvTbvpikn0/BFzbN4NV1VMZokRQ1o4T4psNtE6rFA3ECuuTMPqHH7RVNZEWfLEzaiJNrIttO6mZxl28yuiRQXtG3D0zXCOeBqIEVjcSWDmcqDfibvwTXXXIP//M//xIoVK/h1ZOPYXGEmAZANodLCJPa/KJpSeZYYkDhlFbWZw8+kazRj0sY5NWNyneZIjgTuhoaGWL4EEMh4kYvWfNdSxxQnbzKSVBHiSpw0aY2j5Ei/kw3PcxfxoY0eNo5xClRivba9wqRE1TW8fpl3r1Ds4KOTB71bGJCwMkWCv3P77bfj5ptvxkc/+lGsXLkyVkw0by5gLnNHe84WRhMZ2HIQwkYtDCAEuGn0hZA3Od3UlqRfmV+SnSvPhkMxqTTvX/qZqmcuu+wyvOMd78BZLzuL50QqK1wJpq4Tpib8R/LmMVneT1vmGIDSpMcAGfXRGBmNPaBT+GRm0mn4NHkRKmNsrHEBIOH303gQRPdq5s5VxiqHHJcXia7TeBBsXBBa4Bo3dwkKMUQZJFWIQcmDoPEguE4E5QYI5qagnwkgXHXVVfjmN79ZXoCgLHPUbHiNQheAYC29JMOXybKyc7koXQBBXJ0u1zkp9MHBQfzHf/wHA4QPfOAD0wCCtlmTaz2FgVTU+qZx2wCCGCtNJrxsLhehFCu9VDrWtShrnJTCTEpUb7vtNqxfv54BwgknnBCr9Gnc9B8lasZVxQhA0DT8EUUVJW+ZEwbKEaWQpqdFDJ8NSGnLHF0JXLIPXOvXBC30M/FvEEAgT9hZZ53FxtrFpEjvowHB4VycKMAp+24uAQRzTHFzRwBhYnLC2YRIAxA0stTozHICBAZSDkIpDUAQ7w+XzcYAN1oXIgObvpjzSYquEwG9qGtByAZ0tcLVJCnK84Qhjybsv//7v3H11VfjG9/4RnDqchkH1WldCRDo/ekdXbS3rlMDbUwhb7IaGQVA0Gx4zQYUIyMAoa2tLQAIokgE6ZIBtTGxkZzoE6fQxW3s8v4IQLAR28gGlEz1WKXnn+Zc5YKu0zqNScvuSIY2bn7Jg0AA4SMf+QhOPPFEN0CoqrKW1trKHOnm4gGUrH6bnGTubMa/nADBNXdhYxw1rjBREo2PGDwJILzrXe8qCSAQIHGxqmoMn+ZAUYoHwQY0BNiIvpzJ3JUbIGjG5Np3WjlpQgwVgGCsDprs2WZSLAdACBs1EyCYHoQKQPCy+F05H64NGAYI7e3tQYihAhCmNlQFIHhgQ7PmtB6EwwkQKJ/m3e9+dwUg+EtYM3cVgOCFrl1AuRQPAoEkW7ii4kEwQIvGg1AugKBS6BUPAm8IM8RQAQgR/XL9k/jR6EEQ78/x5kE4VgCClLHaEjU1OQgVgOCFkGYzxBDkSFkYTOc8QHCdMGc7xGADCKWGGCjuaEvgooQ5dmO6mjUpko407nx1iIHGFBMPFrylSTriMTk6J5YTIJjxflu1RyXEUL4Qg6aboxgQV6WD6+SkMTICzF1Z5+TOt3X0pLGoQgwhr4aEGA4XQNCMqZwhhnIBBI2+qHgQyu9BcHnJKgBhhh4E2pCUg0BVDKUCBGfFQIkAgRLG4iodygkQVNz5Gp6LfAHZXNaaTR0FEKh+fN68ecHMaXMQKgDB3bHUzEGgJMU4IKUxMqUkKbpcnRrXagUg6ECLZu60sfUKQMhyiaoLcM7FHARNaW3ZAYIk31nLHMnw5bw2t7YEF3MhkzWIy3B2ldpIkqKNKEk8EbYELkmqMr0atEGoiiGcpCiJkxoK4bgENRmTlMfMRFlrAIKmisGVUR72IEgJWFw1gMtDRH8nIEVJilTmSEmKDBCa5wXZ81o3Nc2Jbc2FkxTjaqnF8LnK9yQPxVaTrUkwpbmj61xJqCQnWxWDzF1coib9XcocP/zhD3MVg00GMndxa1wjJ3k3F0BwJZjK3nQlNatAS77AdeSim2yVFbakV/pb2BhHJSnSNVLFwCCflV1xOh/rgkyWs9IDT0tEtCkIk1JZZcx9BEjZkvRI3hoK4chcK6O6lvLMAle2WaodusYEd3F6TkCLqyrGZQ9MveryWtHc2PadyKmurs5aMRCMiThKzI8xh5oEU9kHLiZFupcLtJjGP26NMy8OJX9LGELG688fzS/NHevV0JpLTE5OTitzpAvpwbSQw4bPHITcVFND7CojchkZcSuSUEmpR5X+iIJxuTHpu3Q/UYr07J/97GcMEMiAEcsfvWd4kcozTYIP6bVtez9xGboIYiQ5K+rdhHREXOfFK3TqX3Sdq4rBBAhRY5L3kxOf7RrNiY/uQ4t0eHiYyxxbW1vxvve+D03NTUWvIQ1/bOspakzhjSHvZ5sTWeNm3wPzPjIHUdU14fkJNlfaU+hR86cZE91HTgS2sZMMooy+jP/OO+7EzbfcDAIIxOlhC8VojLEGtJQzxECyMjlDwvuOxiz9IWy8CzJ3cQcTMf7CgxC3p8JzJwDhu9/9Lpc5ElGSjInWU1y5a5FR83k1SDmHP3Qv+vA+CJGrybUqsp3sDE7GBeLcmhpbkXH0DYy5zkmGWl0gJe3l4LCwAWWxBwIQ4taB6WmJ2yumzSCeA5FNeH5kb9p0vcaTRjKi6zRljhJiCM+H6CIBdzKm4B2NOZaDVfiaWKIkQsPCpBgWmvzbPM3FCd9EuuY15svEna7CYITGJAAhbjNHoTPToMuiMRUjfUeIkr7xn9/A8hVTACHOOyIbQoxxGKEG76cMMWi8A5prxPDRuE2EaspAi75FCcUZbJGBgJa4dSKnq5GRkSmAEAox0LyYPAi2E58AKfMac9ETaY0AwDgDYp6MzWvCcnJVsoiREa+Gzci4TkUCgsWrESeDuBi1XM8ehPU34yP/70eKiJKESEn2IcnA5UGgZ0UBhCI55QtMfmOWqEaN3QR3UaBOCK6i5teUq8gp6nQl96Vr4lzn5tjjvBrmNXEehO985ztc5viyl70sAAiustngJG5JKnPmIPhEYCSvqJJgGTu9v+lBiJoTkZMrju06GQeHDiSKxhQG3XxYmJhETW1NcEALXyOelrj8EbqergmPKaznxahHeRDMZ5Le0ZzWtXPnIi6i8YT1RVgGNCZ6Hnk15G9xcorrNisAwexIG6dTwocc2W/Wds9OJsUSyhxdpXIu92vYgxCniEupYpBTGk3YoeQgyJgIHMTWwCsBQlgJRb2fFiA48yJKSM6ihWw70QvYcIWZaEzCpEgeBGJSjMpBcGXCa935Alps4SHNKVRohl0nApqbcvAgaMh2XC5KIkoiJkXiQdDkINjGLeEhMsa207q06nYRb7m8e9p9IKDFNiYNuHOFPcTImKBFPAhmkqIm7EHvruFBcAIEP+zBnpaU1/Uy6qN1nfM+qKq29gZwAQQtUJ7NJMWouYuTkyoHIZtzJpuXS04CEFwhBo1+4jAEda1NxTNlRoEWPkgUovyhAMfTaPFZu8GVABBc7t4oV27UqcHlQdACBPEgyMI+FIBAohP655kCBI3x11xD7yNjmgkbX5SnJWpzUatnTZKiCRAoB0GoluWeJMsgVpaOpjVmBevIQTDdirb4rNZNrTEyYtRmCyC41ngpREkuYKMxfDJ3LnCnca1qAYKGalkzd1pjrAEIKqplBVGSZkwaXVBugKAhJXKGrEpgUrTtJ9rn2tJLV/jaDDHYwh7SrMl2WNCWObo8juLVcOVFaJIUpTePbdxx4aEKQPDR+KECBDPEEAnjlR4EzYbXXHNEAAJRCFelrbHucJJiBSBMXy00vxoPQgUgeDkIrkY2FYDgJSm6jIzWg6ACCLm859VIRns1SvEgVABCxjl3xwRAcCE4jZu63CEGmwdBErtcCqacIQaN8ddcMxcBgpxCzSqGCkA4PACB9hKFGG655RYV1fLR6kHQMCmSO98WnxWPFLnoS8mEjwsxHK0eBMoJ4GRdiwtae1qnvKVyAYRy0T+77I/ag+B3B614EMocYnBN0JEECGS09u/fj+uvvx633norLrzwQm73vGjRooBIyOZ2Oh5CDLZQBYcYHB4EQrm9vb38349//GMsWLAAb3rTm7Bw4UKuaCD5VkIMHs3wTDwI1E67v78ff/jDH3Dvvffi7W9/O7d7JuZKM9lJoIkkKVrDiD4Lpqss7UjkILjis+UiSjLlRPOzZ88ePPXUU6AW8evWrcOZZ57J+TQkR5ucypmDoDksaEMMmjh2BSB4XVulXN2WA6dhUqyEGHwJahbykQQIf/zDH3HNtddg48aN2LdvH5eF9fT04BOf+AQbL5tb7XjJQZgpQCDDRSRUZLR27drF1RXd3d141atehde+9rWsVCsAYeYA4Xe/+x3LeefOnQx6CeQuXboU73nPe7h0Nwx0j3WAoCEA0sT7zWqPzZs3g8obt27dit27d6Ojo4MrRd72trdxYyxbMuecBQiZjJUnoJR4f8WDoKNaPqoBAg2e3GXlSlIUDwJnRUZk3ErJio3M4nCEGEhhPvHEE/jSl74E2viSr3nOOefgU5/6FBobG9mY2TLhpWJgNomSXKDFmRfhJ/jQXLiyzl2Z0gIAbWOi8kbimbjyyis5Jkr3bG5uxsc//nEGCPRdbaKbJklRU74n60lDlOQiAJIM4JlyfUjFwKE2JHv00UdxySWXYNu2bcFaplbEtJY7OzsZspv7TwMQxP3qktNsehAkZOXyIJQCEFzcG5KkSKDgK1/5CntpSJb03/Oe9zz2PJKMrbTryioGV46JmYjravdMuqC+vt5KAOSKY5dSFh0kKZYhB0ETYrCVFGrlRPImGbhyNVwh5wBIOdo9a3RYuZIUxba6yli5Yyk15qvyybn8A34im81OY+qgm5Iip8Vvcz/SDcWAxLlc5BrZgHH10QIioowxPUNAC71oHJCQheyKKcr96FkH+w/i//7L/8Vvf/tbdpU3NDTgYx/7GNauXRuEGOLKiEROJjmKKQep140iqggXj4SzSONqll3le4GcUmlUVfuMbqHJkfIf+rUr9uoCCJJ1LsYxbtx//OMf8fWvfx07duzg0dCJ9vzzz8dpp50WGC3TjRkHJM1M+Lh50XitNFUMpZycSE5xRkbWm8ydGJbwnhHDJ7X0NhnQ38zn0TP6+vpA3UipioE+tFc+8IEP4M1vfjOfbKOeR9+zgVuziiEKTMq7CceDZj25Sp5pblz6QpOkaMo7Vj/l8sx4aAsj0nflXmRwr7rqKlxxxRWsI+ldzj33XNYZNG9hHoQoHgBz3sJ/D+dFkHyj1osJSuMOXhJicJWoavadzG/c2pV1IPsgbkyaqhjRhTb+Fa2uj8vON8fHIDjEzRBeL/Q8zXqia2Rvxq0585owd4N8h+aExmWC4LDN0I6J5y4ZnzgqQCrKllsBAk2QLZPUNLRxwhBjZC1zzBdA5DZx14QBQhxoEYG5DJ+Mid6PFhBt+O9///vM9EfuQjoNrDp1FY/JhmLFGNvIUUS52E4oMkFySgmDDPq3xsjIAjKZFMNGRq6hZ9HHVIzha8Mn4/AClXG7ckzoWZR/QCyK5Aan60WpUsmjfEx3bzkAgunVkLHLfQOAUFUdSTYjMhfFqCkR0vJFWJXn+IRnZNLR9e2yxqMAAs37tddei0u//W1kczkGYbSW16xZE2kARXlqAULU/hS5mvXfccCNwV0BnAxnA3cCEOLkJN4fWxWDGFqb3pH1G94HUbpMyrDp2ffffz++9rWvcYihqakJH/vox3Duq88NFHoU8ZasJ4ljy/vbAIKsuTjQHaXQzbFrPS0u41+KLGVMAmyiQCmdjl0VKCZIFNnJvUQeYc6BKP1k2p/wWOQ+9P50LxtroVqP5/JcwRG3vmXNhUFEeOw0Jpo/klMciHDNixxQxfNhG1OcLZ+VMkd6URfQcLkDJYGL7mPzapTinpONTKfbf/u3f+PTLbGiffrTn0J7e0fAMmdTZtyet6p6mmvGXIyaOCddIxnlMzkZ03OFcdImcyGI0ZzmXNdoAIKEGSjUMDo6in/6p3/CG97wBt4A8ikXD4K4zjUhq5rqGitA0LgVxdDaTs9i2AVwxoEtafdMY4+6RpQCrZGw8aNxPPTQQ7joootw4MABvOIVr8CnP/1ptLS0BDI211YpIQZXkqIoa1fIigbi8jIIUHbtu3KFGGhM2jVO11IeDQGE++67j5NAP//5z+OUU07hsKwrB0FDpKPRFxovmTZJUQjDnNn5qVSsp0UMX9Qhpwi0lMCDMFshhrJXMTjkJAcv25oTD4ILSLn0E+kQ1zXm3MneDADsbBAl0QTYjLq4i2wLQgACXWMalTAqdAEEQZSmEqKkLgIItOGp/I4Sjmi8Alpmo4pBa9RcxlgAAhmYchElzTRJkWRNoOCRRx7hXhe0Hr74xS9i9erVgcKheSkXQKB4GpE3uQCCikkx4zX80XgQtEbGZvhcVQxh12r4XpRhT6EcOuW++93vZirguL2nAQgal7DMXbmJklwehNkGCAK4Cez+8Ic/ZHr2s88+m8MLlNDsYnek95mLAEFjQNRVDBTH9nuSRHliSuFB0AAEDTeDS2eWHSA4chA0AEHLpOjKH6E5mPNESSqA4OjdfjgBAm1sCjHcdNNN+PKXvxzExWncZjOf8IInxegqc+STo0/R6UqEEk9LOTwI5QAImoXMJ5lszkmURHKiKpF///d/5+RPqhKh8ILpPtMkumkSfAQguBJMj0WAQDL88Y9+jFtvu5W9NC960Yus7Z5da87Mi4hT/HMZIIiRidtTWk+a6QWl79xxxx341re+xSCMPGG0tyUvIs5DIuDOlVin8SDQeFyeFq0HweW9FWCjMcaz7UHQjKkCECYP+ZAzKyEGJ0DIFzAx6SX8xG1kMca0IOI8CGYOQlxClbhTJFZGz6NFTSV4d911Fz70oQ+hq6uL3buuhUUcAOMT4zxuVzZxOGYcFZujcdjiYBq3os2DIHEmUVRxrtXpeQoUD486D3ileS6lIDFjMl7XXfcrNDU147zzzpuWOCenKxeQklBM9Ij8MRFhS0wcX2JzNB5Xcx3N6cqUgSljc3yynsIuvPA1rj4a4gGj70XJif5OYYa7776bkxOX9CwJ2g4XdZ7zG/64ZOnyIMhaERAcjr+bnhfOQSghxBDnQaD7iKcl7NkxwzKa/BEZk23Nhdc4/fvpp5/GT3/6U7zuda/DC17wgiCJ2gzFhENE3FaXYtR+gmn4/QJZGolutnwOmbs4QFIBCJ4ucOnxo9mDoAkPHfUeBGriQ4h8+/btRXFXVmj+hzaXJPhwK9hpnwLy1ISz4OnDIIbC13n3YeWdmCraMO8/PDTMJ1yqHS+K3RuG0bxe7pfPU9Zqchq1aNHY/UHR880NP3WNN276LFm6BGe9/Cy0LJiKG8uraha7DSBQadZjjz2GzKSX71AsJ/4XSclrZSpi4vcPNRAPZJ8goU5dGgMixDhSm9S9e/eyYSPyHrm1PIrlE9PeNlgHNDSqGCDEEjzPG7d5TTBq/xrvWQmef3r+c5/7XE7eoyQz24mvFIBAc/vnx/+MP/zxD+zWSxSKBcL/kh7s5royxEvzQuOke8WBMl4rtM5J/MY+kOtHhkd5LS/sXIjamunVC0WgBL7M5Zf0XOOCPLVGDwhiPKBYKNBOCzZm8U70v0wyXrZiGahkWPaTFiDQ/BLgDu8XedCzW57FPXffjaGhYV4D3gpM8losejda44lkaJ3IJPhrnZN1PVl73zbXkv8z37d4vY2OjmDnjp1YvHgRGhob+dls/CMT1BIEDfy7e62CPTGFnkW6ideMp8Rk/fhP93RY0RvmsXBhJ+eaEB9D+DPbAEHjcayEGLyKGFnj0ybN/0UpIQY65NgSEOc8QHAlKe7YvgOXfOES9G7cg9bqNpAhsX1ou03/kPL3NxDvr6ntPqXLjE1epOFMIDK1bWPsXbESCivYiJHxyUD2PRkp/xrz/qQ0BjNDaFrSiM9c+BmcfPLJ0yZ9pgDhny/5Z/zp3gexoGoBqvJpUqnGWMgw+ECKAUJgtqcAVujdpuxaVFf70MWUve4zJhYZPgNgFFmmqClmkOeBv0TCfGaxpZSTGI/PX0oCELKFLHZO7MJLzv5bJhCi2vVyAQSanx/96Ef45Y+vQmd1J2pQXSSEoox1A4QVyd34RhiQBn8yFo55Sg3u48s0Ga5FNy2NZYNN3X5qPZjArfiZUzeaWjEF7M3sw8LndOCb3/gm6mrr+KJyAYSbb7sF37/0e6gdrkVNqs4Du/kUWVSvZJHbAftARg4MSdIPnoQ8c52gTnX8b4bKcngoeNcQkCQDLSCWfuIDCO8Y+S7dnBaYdxdWQHwAoft5PwsE8J5L+42u98CCJy+ZFK8Zt/mb8M/yb/5GIYHB3EEkW4HzL7iAvRgVgDB9UWt05lz1INDhxMXNIF7QuQsQqOVojCuXpksmyFZKRaxkl1x8CToPdOPshWejClVsBLyDkhh6o5t9Acj7NiHpKwDZybKF6ffmh66nDSrQg7cuoX458fiGRxRAnhUEqwJ/49J4vHNAMvidfyqVbW4AE1IQ3hi907g3Hu/YJ0CG7i/qopDI45GDD+OxqkfwyQs/gVWrVk07jWgSGW15ERd95iIMPzmGVy58FRrR4J1QWM6eLHw1x2JLiuEOoaSw3RbDG2tvRF/m/VOTj0r41z5S8E6KdAfDp+IDFBNMBfYt5mjtq3bkjUGajgb6eTQzhmt2/BLtZ7QG4SRbbN1VIy6GT8I2lMty18/uxDtP/Ee0ptqM06u3VsRghN3PIr84UFpk243397wuxR/TzPDzfG+DeVXkPE6bxNAJVwyYrOWQp47Nng+G7+i7DVsWbMT3vvt91NXWl2lLyAAAIABJREFUFwEEVwhJwn+8IiLm+robr8O1P7gW59avRU/tEjbG3i419yq3qp0y6GLpDdM89boEKDxtM2Wm/b8GZwpv/3v39H7JP3suFV9f+eBB9BaNawoZBDpNwDfrBg8rePeLWtcRU5CnsGghh8eHHsY947fjM5+9gOmew98XD4KGB8GViKtJUpSTsa20tFweBNlvGlpjV56NECW55ETydOWPaJJQy+1BsOXJ0dISD4J3sJquYSRsGeXVSIyPj0ee1Si2wTwI6apiJWcoEXaHhmrpwzpGYrK2LPCtW7fhK5d8BT0Hl+HVna9GCt4zyYB5Btwz1uZApgy7qE7fwLEBSngGLjjiekbZNHxiiuT+ZMBl4/PpgzyTbNi9+7D3j2/tn0KC+3unFW+83ulEnLasnnwFwvf3x0AnFvqZ7k2/96SYx4PDD+Kh5J/wsU9/FKeeeuo0uctE2srE6E5C4CKGT4zRFz53CSafymBd2+vQkGjkU5I4PlnJMfDylJ8AGm/MU1pq6kw09fs4o1ZskHzV6yED4/zkfduDg8Xa0AheBKerKBfwFIQ0vuHPl7chfJctEhidHMYvdv4ELacv4IoV6gch8iw6GfsbqZQ1TsrhBz+4Evdeey/et+KDaE23e/MfGCXvZw80ymnTW6/+Ahdb4V83JZspp3TxKVPmQ64sjg2ZSGnaMKaeK2s/zvVd5PPyZczGz5gzz04G47+972ZsnPc0vvXt/+I8D8n74Ln2FVWcvEnmcWucVtFNN9+EG358I86rfx16apbGhmJCYp86rIeV1Az/LXpjai+b69mbcd8tMXVIMHWFgGF/rfCKDZaEp0MkMsqHC/ovl8MjQxtw6/iN+D+f+TRe+MIXTiNUKqW+3yTSiQKv7KUxcifi9DyH/5LxHmAKw0xmonkQJKQkei7OoMmzydDSNcLEGjWNGp1J96G9Gy4pDMtBQtzm+4XXsIzJdqIXnWKu8fCzaO7oPxlT+O+yn+h5sXvFX09FYyo6aXjhWl6h/v+G5y4xOjoaCRAIdZhoKeqFA+WZ8ONq7NqbfjuZ+DiXKVHDfvWLX8XSg0txTtdrkExUA4m85+IzbpcLoR96amDU/FOvuUjyFJb03XECDuh/6T7y3alTKZATK+9b8pQPAuRcISBBNjCDC98NSQaOFUTCc1mS8RdzxydzI7QgplXAB7s7E3k8OPAAHkz9CR/7Px/FKac8J3DJF72Tv1Hld1Exe6kGKFo4BXBp4cQTGby2/e9Rn6xHPuHHkn1A5Y3Td7myp8STr+fxmIIB5hqTn8339UCX4fHxv1t8zRQk8FWo5+ExPBlTxnVKAnxO9NeEADYBGALAGKj5OpkAEN8nUUAqkcTI5BB+TgDhBQuYZZBit3EKjda8bC6NDSG5X/nDH+Le636L9yz/EDpSrYHsxGVdfB9DkhQyEZe24XiW5R9AJ9/1HdrnvmGeim6bMmVIYqzV8D2nQ5hiWxo13x7MERe8P3bxuiUK+M2+m7GpcSO++V/fDMosRQ+IvKMAgtU4+AO5+Te34IYfrcd59evQU78keDdPCAYSN2P6RdBLZsE03KEZLvquL6HIe4eeWXQb4/7m/GruE/Me3jwmkcjnsGFkA24dvRGf/syngxCDqafFyLgqscSomyAuCgAIuIvbC1GHQZlz+Q4BhEw2mpTIXA/ys83Qyt60ARLNAZXsmBAlxT1Pcx+2LX6+jk1fBPYwBJRN+ZugxSaDsHzN58r9BNxpdFj4WZFVDPRQTS8GLhEq+CQjMcdIVwyInrV1y1Z88eIvoftAD1656DVIJVJeMhltBAMgeGl13od+morZeT+RQSsypv718i25Xu5jXk/Kzvy23N87HXhKx7zCvD48lqkxTt0xfH1g1PwxUojhIQYI9+P/u+ATzBEQRtAkSym9jFs0UjFASkHCOry48wVcfNFFGPvz5BRACAI4U7L0DIsp52KjU2x4ppRjWDamDMKn3+AZphIM5rVYZlGLOu5ZRZvDmE15PgG44ewQfrnrp2g7vQ0f+tAH0dXZFUtyRXILu1aj5C4kVyR7CjHcedXdeM/yD6K1ymOJjDLmhonyo2OCeopzVOKMuWkI4+5vftc8gkYbfI36KL5mClxPjZ1Hnyjg1r03Y3PTM7js8ss4jirKk/7X5oKWigFS+lGKn/5+40034VdXXI91jevQXbekaL2W/hZH6TfyeTw4sgG3jd2Iz1544YxCDORxjKOLF+nwPrDU9wuwc1XFsFdjMoOa2hprjxu6zqwMi9p3Ls4bWXNSZRWnM+k+9F8srwYd/Aqe7qW1a/PgakIxmjJW55j88L1LTjQvLq4EmTv633C4dVbKHG1JijSobVu34ZKLvojFB3rwqq61AUDwsng1DuyjdJMXWTQPIGxI3Y9PXvjJACCYl4jBchEACRufOdn03c9e+FmMC0BI1PkhhuNEvj6WGWGA8DN0nNnGHgQqadXkIGjY/2idM0D45Z1474oPozXdFuS4HD9SJkHncVvvzdg87xl857vfiQQIcTtWAEIciKB1fMONN04BhNqlU6HEY0ANqF+BAMLwQ7ht/CYGCMR3Ef5ok+80pXISf58pYRjtEQ3VsqZ6SDumcpU5anIQNGPSeD7E+2Mre9fYA1oTR3UVAwOEbQQQLkHX/h68pnMtUslqT7FGJGCpN9BRdCHnLSQKPkB4AP904SexavWqaQklmgUhHoRwV7ligPAPqGeAkPcyuI+Dj5x2RzJDuKpEgOBK4KINL54yAgi3X3Un3rfiI2hPtXg5HcfbJ5HHrXvXY3PzM7j88ssPE0C4Aesaz0P3cQoQCjnPg3D7uOdBqACE6E3m8mDTt7RAqgIQDBkTEQmheBtFMmWkkgNaQzFrq2IgD8IXLvoiFh3oxtrOVyPJAMGraz5u1KsfYiAPggcQvBBD2IMQdimFt4WEh8JMihUPgueLIoBQqgehVIBwxy8IIHwY7VWtfiXLcbOKveWYyOP23puxaQYehDgehCkPwvENEHCMexA0JFea03o5AUJUkmKU1yYuPCbXltODwPYglZ7Gw2OOS0JIh+L9mUMhhkuw6EAPzu16DdIJAghTpXfH/gHMi9tKiIEAwuo1a6a9NilHF0CgL5ndHOUmFYDgpZIcSoihVIAgIYb2dAUgHGqIoQIQ7Fqv4AOE24/REINGz1UAgpcjRZWGRNAV9znqAcJ24kG46BLOQXjlovOQCghmjg8PQlSIYfWa1YcRIByfIQYqvpoND4IXYvgw2o0qhmMf5BpvyDkI67F5/jP4ziGGGCoAwQEQjvEQgxogJJLcPjzuc7R6EMjwk6dBlYNwtAMEqWuOI2nYvnUbvnTRF9EVAIQUCsk8klL0ezxo1zKFGEhUUe2eKx6EQwsxuDKASd6Sg0Dr/Hvf+x7u+MUdeN/Kj+B49iCYSYqUHS4loyQvV8JnVDa1qQJuuPEGXHvFDVjXcPzmIHCIwc9BuJByEM48vEmK5SIAKhdRkuQOEOuuDSDQ86gCwdYrR4iSXKyFsxli0FIta5I52YOQrrLLKYb+OZHNZiOIC8DNkyhmYc1BUHBKu7KSaaK3bNmKL1/8JSzu93gQUom0T3XKAc3jAB5MhRgeSv0Jn7zAq2KIyi+YVtbis7qZoQQJMRSVORYKuPizF2FceBCOxyoGw4NATIpcxdDZxUygUR+zzJH7f0QtRb/pkYR/vDLHu/D+EyhJ8XCGGIqKGOfWHpEqhuZncOnll3L5GAEETXmXhmXuxptuxK9+cGMFIIw8BAoxXHjBhTjjjDOmrYGSKwaK+lYU305Tvke6nvaBFQBm/SoGS5mjNpSqCTFo1lOQpFhTG2tEZUxSXRNXMqkdkwsolwsgiA6TMCnzJoRsBo2F5y7vsSKbn8TExIRBz+L9iW4iACEuuVCus7GeyYPlGqZYDWlZSnLc8uwWfPmSL6P74FK8euFaTlL0CEHKEGIwKcjmlhoNRmOGGB5K3o+PfeZjOPXUU4rY5+RiYc6SBRqebJ678QmeaBMg0Pc//7nP+0RJ00MMtlr9OSq2koYl7zfqJykSQGAmxQ6fSTEGhwYJRdIfxLzOt9F0QqEPbeorrrwSd13tAYSO5OEBCFz8myeyLyL9kgZk019AWD1LElQ5LuYqhpuYB+HSyy7jQwatS5GlrayUrqMP92OJAWQ3rr8J1//wJo8HocQqBi6dZqbU6eeicrz6rN3DCDGcf/75zKQY/jDngM8Q6GpBHQeARc9oDB8ZmKg5M42plgBITutx5E1Su69p98ygJQ7g+x7AyQmP3TEuli/r1/U8jZwESAnluEkpJ3NI80b3EnAdfYIBsrnsNL6c8LX0PBu9udhp+t8w986MiZLEHRiHqMT9Goe8aPAEEL74uX/G4v4lWNv1amZSLEeSIumXfMprscL9EKihS5k/pGj81i9IEHXjoX6MEAN5EKjMUZobyS01yFqqGEgJm+CO5HzxRRdbeBASQE0B1bVpZMeyyE1IJzxDkTL/K5CqTqCQKyCX8a+JeWfpnMl6for3WuUVohLMwD4UyI1YQLIqicxEDgniwS7x4xFpRecguIhPXEmKtJFFgZAHgasYVn64/CGGBFBdnwIRjbIECink8jmMj08imUuhqj5F8Q5kRr3mRT7pnkGHVaLQDvVy8iD03cxljpSkSEqOPqQL6GOTt3gcbSDixvXEg6DzIKSqk0g1JgOPJJGvFbLA5Oik39HU5aH0uY1LkkUBqdqk1zAqn0e6Lo3sZA75Mekc6Xqm4mH5PB4Y3oDbJ3yipDOm92LQ9BgQFsG4RDcx0K4SPzHYrvCQtr5fqhhsLILl8kiVUuboBAiZLHshbBUDJkV03ExrPAgyd7RXXA3nXARPxHDJB/lQX6VZqWJw5SAQk+IlF1OZYw9e41MtB01QFHslfAltzoaeOtR21iJJ/QYyBQzvHMHY7gwKGZ+HN9SK9xAew2iztqsGTUvrMLJ9BCO7JuhIV/KtipMU7URJmuSd8bHxaR4E2rgEEMYen/CYFI0QA404nUgivTyJpWf1YO9D+9H76F7S5J7Hx3dLkRGqbk2j/XmtGNg2gMFnRwy2S/+MTlTNTDzpnV+pdIBzSfzWW4xSud2V/Mrv3uRzIxMzA/eICLrpJZBOpNB8UiMaOxuw88E9yA8XkCqkvJMgXefzaXlQjQmYvWcU/D4ZPCOea63UJEVNuZW4Mel/v8cA4Q4vSbHMVQzJmiQWv6Id9SfUeD2RqFfJOLDv4X4MbhpB5/PbkJ2cxL77DiKbKfApmda/1z9pqk0ZAze/wVHJi1XzhRiiJK1CtzHfcZkjhRgUOQiJVAHzn9OMhS9vR87PaaK1OLk/gx337sbY7gmkSC6yPP0TlAeJjUZP/G+ft52E6Xsf6Drv+OFTedN6o7LvliQ6/lc7RnaNYGxoHIvWLMTAriEMPjaMfNZoOcL38b4rnhMCxt5s0fPidQm13H5wyAsx2HgQKP7siq1r1rjmZKxx52vDHho952J3FFDqYlLUAoSw9zZqK2hCMSxLR+6EBiCwt1jBgim9eQ4FmM8JgLCNqZapzLEb51AVQ6LGk32JIQa2MVUFtL24FYvOWoh0Ywr5iRySdWlk9o5j6/V96N94kO9LJoq576VtMJ+Ovc3J21Y6MLH2yHtdD7lNoBikBJLpJDr+pgM9r+nE7tt2YPfvDyA3qdGgxdeUHSCMj3NSjtmsiTbJ5y7+nA8QikMMJIt0MoXaU6ux8u3LsPv2Pdh+/04UaoDqbA0r0Uw+h+R4EktethjzX9qMbXdtx4ENA0jnU0hXeael3HgBeZJtXYr7HpAMGZlmiCsjhUIamCzkkBqj6/JIVdN30/yd3HjOa49b63Xm46Q25JEdz6G2oQbL/6EbicYknr7mGWT25FCVqEa62jsZ5ifzQJY8GylCOqxzOXt5LIeC39WLqbsJIEyWxoOgUZ5hgHC7z6S4kImSiqmrS18d/jeof0h9Eie+ZRGan9OEgS2jyE3m0bS0AdmDWTz902dRVZUGEehM7p9EguTttwslL0OBWq7QJNUmkaxO8FLPjRWAbOmA1vkOMURJsw4Q0kD7ixZg2d/3YHjHMCb6MryuJg9msPuhXuSGc7xuctk80jUpFLIF5CYLSKYTSNelGFTkxrNIjaeoVzmqatO8Ricz3kGD9n+6qsrrHpouIE8Jcbkc2l/Sgq6Xd2L3b/dg70P9qG+sRWY4h+y+PKgPXbqGe1KjMJFHju+T4D3EzR3TRIueR35UmktHezA8gOAmStIABE2i22wDBC7fq/K6+sZ9NACh3FUMNppwGqcGIGg8accVQLBRXRIKEoCw+MBSv8yREsKoWVNprmQyLPXLanHC25fyMbb3wT4MD4yg9aQWLFjRjN57DmDvk/1oXtaEif0TGOkbwfzFDUjUpTC4eQyJ6hzmdTd7SpT6re8axMT+DNpOWgDUJZDIAZnBCYwfzKB+cR1StSk0rmhExxmt2L1+N3beu49d86V+DjdAECQdF2IguaWSCdSdWo2T3rESe+7ei9xYHvNWNbErtqo+jcm9WQw+MYiuV3Si4cR6DD49iN3/sw9Ni2pRvYiaaxUw/NQEBjYNoPslXajuqkJ2MIuhbSOYGB5D6yktSFWlkRnLYu99e9nl2nF6G6oWkN1KYf+DAzwnPecsQoE80qMFFKqAA0/2c2ho6drF/O/e/+nDwb8OYcHJzajvqgdyBfRv6cfAI0PoeGE7mk9sQnY4h/Gd49hz/15MDnlubQYfhcPrQSAlesUVV+C2X9yJ96/4UJk9CAmk65NY8bZFqOusw9Zf78T4wCSWrOtGbXstnvnlJrSd1sI892QMe56/GNlcHoUckJ/Iou8PfRgdnsDCF3egtr2KAdz+x4bQ/+gACocAaq1r3PcgEFHS5QbVsgYgaEIMag9CGuh4cQuWrF2MLTduw8FHR3gd5DI5VDWmsOhlncgl8hjsHUHbsvkY/Msw+p8dQNvpC9Dc1YBEOoHB7YPY98AgGlc2ovXUeYQTMLpnBL0bDmB+9zxewxOjXkJ3brSAg88Oou0FC9B0cgNGNo6i77H9aD65EQN/HebnLzy9FfVLq5FGEuN7JrHrgb2o6arGohe1I0v9Dqh77mgee+7txeCOUQ4jRX3KCRDIGFVXVVtr6SsAwcuhqQAEfzWWm0kxrsyEAAK1exYehHO7zuOEEnIxl1rmmEglsPClLeg6px077+3F7nv38kmgrr0WNQuqMbF7HNU11Vj5luXoe7wP2+/fhRPOWY7a1lpsvn4HGhfXonX1AuRSeTQvbMT+jQew87e7ccqbT0ayMYnBZweR2TGBdEMV5q+ej5HeUaRbqtDUXY+dN+zGrnv3IzfhG6QSUEIUQFhTZqIkWty2HAQCCPWrahgg9N6zD6m6NNrOXIC+B/Zyktm8k5qw7ZbtqOupR9vprdhx706k8tXofEEb+rbsR3pBFZpr6rH1nh1YdlYP0vNTeHb9TmCsgK6z2tlD2//UAOYvnof9T+5Dw9J6NJ3UjL7HdqHl1DYUDiSw9Q87cMpbTsLkUAZ9d/ei7W/akapPYsfdu7Hob9uRrE5h2/rdmH9SE5pPbMSO+3dhfts8zFvViM237kD7yW1oObUZu+/sQ//jAxjdO45ChtFB0DBJkhS1vRg0HgRJOqJruczxl34OQlmrGAQgdKNhdR0m+yY5ll4zrwYDm4ex85Y9WPmmZRibHMPAxn6c8P+swL6n+zGwZQjdL+3EwLODmBiaRMfzWrHv6QOYt7CJ26o/fdWzmNg9AUgSZgnrNvZSzkHwqJa/890pquXZBQgFNvAEEJa9qRuje8eQG6D8lQRGN41hyz07sOjFnWh5SQsSVQnkd2Ww7cYdaOhuRNcrOrBvQz9qaqtQaChgeNMIFp7VgbGBMWQGM1iwshk7f9fLumTR2Z3Y+8h+jO2aQOdL2nBwyyDymRza1rRg7+/3Y7R3EovXLcTBxwYw0jeGJWctQt9jvcgeBDpf2oG+DX2YHJnE0tcsQf9fBjCxd5JBxO7f9WLXXX2cSxKV+VfOEAN5GWqq4xP0aJ6Pd4AghyxXsp/Wg+DK1SDQRvdyhYe4j0ZVtbWEcc6HGFwehK0+UVJXfzdes3Ad92LwonOlZRrTRl/8ynZ0vHgeG6f9jw5gxdlL0fr8BRynPviXg+j/6yBWvHYJ9vy5D9v/Zw9OWLscDa11eObqLahprEHz6kbUddWhqbsRE9vHsemWzTjhjSsxPpzBxp9vQk1VDVa+cSl7OJ65ZivmrZ6Hped0Yfdv9mDX3fuRLZMH4XAAhLgQAy3+dDKBhlNqsfKdy9F3bx+q6tJofF4TNl+7Hc1Nzeg8uw3Prt+Gmvm16DyrHdtu3oHWFQuw4H/Nw/i+cT6ppjNJbH9gFzrP6EQeOTx56UbM75mPJW/uxtDTQ9hxyy4vm7YqiZXvXIaGxdUY2zOCZHUVEiMJbPz9Jpzw+pXof2wAO2/Zjc5XtGPhmR3YdWsfmtc0Il2TxNZf7cKy87oxmR/Hk9c9jdaOVpz01pXY/5eDPOaGxbXY/OPtGNk6ihxVF0iIwVezhwsgEEggJSq9GN67kqoYWqa1yj50++sBhKVvX4R5JzVieOMwu61z/Xn0PboPhYkkTnjnUowSQHh6AMv+tgdb79iJ/Y/346R3r0DdvFokcgVUdVRjfO+E1w57Eth0zbMY2TaOAmV5l+uTyOM3e2/Cs82binoxHAmA0P7iFix/Qw8GNg4iu2+Ss1RGdo1jz5/2oa6zHsvethRNy2qw59e7+DBw4j+cjNrltdj0sx0Y2zmKQmMObasXYNnre5A5OInJ4SyqahPY+9hBNt6dL23HpvVbMfz4GE585zJkCpMY3T2CjtPaseO2Pcj2Z7H0Ld0Y+MsgqhurUNVehS0/3YLxA0mc+L4lKExmceDJfVj8sh5sv3UPRvaM44R3dOPA4wPYvn43kPHCbeFPOT0IFYCQ5Qqk2G6OvvA1iZMVgGCs1FJ6Mbg8CJSD0HVgideL4RCrGBIpoP2FLVj62i7s+3M/9ty5Bw0nNKLltBa0rpqPA0/0Y++G/Vh+3jLsfaIPO3+3F8vWLkFDSw223rEdi8/oRLqtBv1/PYCW5ywABhPYfMtWnPCmpZjYl8Ez/72DXZMr3r2Y3dh//cWzmP/ceVj52sXova0Xu+4+UDaAIO2eTcWgqWKg68NUy/Q9+k8Awrq2N4SSFKkMKIHGVXVY/rZl6L1nL2oaqtB4WjO2XL0dDU1NWPSqBQy6apvqsfAVrdh66zbMW9yEBWvmo/e+/ZjYM45sIouJgQmsfM0K5PMFPPmtpzB/yXx0v2UxxraOoPeePtQsrsN4/xiWvrIH6fZq7Lmnl3MIyL06OTqBk956IoY3j2Lr+u3oOnsh2k9pwfab96Dl+fOQqAO2/monel7ZhVRDApt/tQ3zuuehh+b7j3tR3V6Lup46Bghj28a8ZEkj4nMovRg0HgTJQWAPgt/NsfxJih5AWP62RajtqMGmn2zF6JYxL3kuXUDtvDqsfPdSDE+OYnDjAFa8bCl2/k8vBh4exPJ39CCR9/JDatprsfd3+zB+cAK5QhKDTx9EfpCEVFo4zxliCFUxaHkQyhliSFYl0PE3LehZuwgb12/B8J9HvJwjwo3jebQ8Zz4WrVuImo4a9G8YwNb127DsxT1oXNOETddtQ2IASLclgeYClr9mCQ4+MYiDjw8iU5vD2P4JtC+bj8Vnd2Hb7Tsw+OQIVr55CcaHJjDWN4qFL+zAjjt3I3MggyVv6sbAEwNIJarQcFI9tl+7A2P9Gax811JM9I5h6NkhLH55F7betAujeyex8p096H/8ILav7+UckagwfCGfw0NcxeDxIMQ1a9LkIMxqiCGb4xJ6mzGW2v3ZykHQtFaWKiVXn4XZBggaIrcZeRByuVxhGkItAGPjXrMmGw8CJaBxjWkM0QwpkXDNZ5RioSqGL3GZYw/O9QHCoVQx0HvUtlZhyZsWo6G7DqNbhjA2NIn6ngY09zSh9099DBJOWLcSE4Pj2PfkQSw8o4VPmb2/7cPis7ownptE3xP70P03i5Dvz2PL+m044e+XYaxvAs/8dDuStQUseUsXGloasP13ezB/ZRPanz8fu9YTQNh3SADBi5Eb7Z79MsdwDbAsUhsrGAOEmCoG4kGgKoZogFBggLDyrcux67f7UF1fzeDn2au3oX5BHbpe2Y4tN+/mzOolr+3AwWcOYnznBNpOa8XEUBaFkTzGh8ex/4n9WLl2JXsUnvzOXznBsPPcdjR3N2B87yRqFlZh34Z9qEpWo/mM+RjZMoqq6hSGtgxicOcQTnzHSmQTBQw8chBNJzQx8Nh22270/N0i1C+vw77f7ecyv9bTFmC0dxzVzZT/AOy8bTe6Tu9A/Yp6Ttib3EoGsBggkGymeBDa8MEPfgCdnZ3WEiENQJA1TsqBchDuuOourmLoKHMVg5eD0I3ajlps+el2jOwYI0I9TpylEBoZnJHJcQxu7MeJZ6/ASO84JnonWG69f9yHybEMFr+0AxMUekkkMNI3gd1/6EXhIBMDlMt/4LV75hDDJlx2+WVFZY60pm0lYGZ9e3TsvYAbb7oJ113pLnOkZMz2v1mA5X/fg7HBCeRGc2xsJwezOPBYP1qfMx/pphRGBybQ1NOIvXcfwNjeESx61SJMDk/6CbR57N2wF23Pb+Gco7Hd45yz1HfffrT0NGHxqxfh4LMDHHqgNb7rt3s5MXrJud0Y3jqMwW1j6DqrA/se68PBpwex+OzFyA9lkRnPoqGjHrvv2YPquip0/t1C7Fi/mwHCCgIIjxFA2INCLhogIJ/zmRTjiZI02fkk45KTFE3Hru/cEN3E3sgUJXOGZs//TmwVg1xPiZoFzxsnei6K2Iecy5lshtcScxx4kcTij09iRs+02TE66E5mPB6EuLWpAQiaayRUEchJRmyMne4jSYp1tXXFYzLkHRwY/WZNRXLy5U3nDkwCAAAV4klEQVRVNWa754CHKMTnwsDcZ5z0WAG8G3hESRFdA+mmDBDSlKVL9e5edjn9TCUadAM5OUn5BP/eJzqRe1IGtUnUwAQoPhkTXUP3I4Dw1S98Bd0HZ9aLgfpVUGlX3dJadL1oIeavbEQyDd6M+58ZQO99+5AdzmL5S7rRfEozJiYmkarNI9dfwLY7d2PBqnloWdWKPGUz53NIjSSxnWLqL+/GWP84Nt2wE5nMJBvOZS9djFQ6iUnkUNdYhd1392H3ffuRm5xpDsKf8PHPfBKrVp3KC54qJxgo0P9RVQDVqlL5YVx2bwFc+kKgzaxiIJl/4XNfwNifqcxxOlFSPplHXWsVmlfPw/D2CdSk06hZmMTgk8NI1VahfmUdRjaOYHRgGK3Pb0FVdTX6/3oQVY1VaFzcAOTAORpj+8fR/pwWDjHse2SYqwiq25NYcFIj0vUJVtQH/jqC6vEk5j2nkT02+fEsBv46xNUmJ/3vFRjuHcHEU+PI5jNcdTLel0Xj0kY0L2vgzPP9m/tR11HHSp2T8p4ZxVhfBi0r5yHVksTAnweQH8zRkAIPQpgoifIoCCB0dHSwgpG1GDZKms5rNCeiaK+88krccc3dTLVczhADV3KmgfnPbUSqPoGhx8eQGcoix8Q/BSRrgXmnNXJeQrohjSVnL8KBpw9ioncEuUFg31MjyI5NoOXEZjQsqmfDc2BjP0Z2jyGZp4qT8gIECjEwUdKll7LilcMCn8BCOkCUkeiFQF/4jG9MJENeMF9p3bR+Pa7/4Xp3u+dUAbVL0mg5eR6X8XqFrinm+Rjrn0BVUxXG901ipH8MC05uAIYK6N84hPpFjWjuqUM+DQzvGMHIpmGkW1NYcOJ8pKrTvNaGNg+h+8yFaH9lK3Y9vguT/RkU9idx4Ikh9ta0rGlCoqGA8b4calpqMbp7GMObR9DQ04jmJU0oVBcwum0UI8+OoL69AXUn1GL46WFMjmcxf1UjcnsyOPjMKK/fyL1uECVdcMEFTJQkulfWsKakkK4VYxw2jvJcqQTg0jzK0gx9xC6QLucDY4rqnnw970vdg7GezSDDzj0GjLwXkyyIDV8uGwB3sT3mY+leDN6TqaIxyX3EEOYKuSC5MApw8r7P5dmrwURJMXo10L0WwqVgjVsYKU3bF34vGbsAJHo/AgjmmEw50XWSOOmUpSGnMFkhj7vgAQTO/zPcrgnyIEQJjtzUYarlsPBpEs1kC3mwVxnsGTUTRISFLwuLAMKXP0dUy8vwykVrkYJfxcAWsrQyLEFRqYYkauZTl6sku7DHByeQGcswyKxuTCM1r4rcG8xIR/830T+JRHUSNfOqGYpSohERXkwMTSA5P8GKN9tHkBSgKszaBdVIVaV4caWqEhg7OInsYK7k8QayDzwIf8IniGp51WqvwtoHZgIQNGjf7MUg82CGGMI8CLxA/Cx/4iGgze3J0Sclonp7LhOkSgDiKPCIj4TnYMq4UI24Z7A8TiVSEgn+DsV+6WSZo9LVBFefe+XndG8QAAXqltTjlLeuwP7H+rHjlj2eaJK0cL11wPeg2DmzY3rrgorBvHXncSuY4/fq/adWtxliCKiWu7o8wOWv1yIl5HfP5FNKyj+lRFBOBmWO2Ry+f8X32YPw/sPAg8DKJZHj8kWq7EgYgJwVWNIDpwvPaEP3yzux/a4+9D6wFymfKILF5u8nr7zXK+sta3iBBhBUMWzEZd+5jBOtxBDRejblHZZ7VFla2HgQUdJ1P7hJQbXss0yS0aL1Q3uJiJL4/zzGDH597hxLsksgSTTvJBa2zB6fBpfNsqw87gn2gtQk0fO3XWh96QL85dZN2PvwAVRPVCNZSPEWIIBMTyGqg3ySnuutUK/Y1j+hMQWCt7YJoPM+8TaFf5UFtBFAGH0It415PAhRVMsaD4KcQoUAyJS1+bOZpBjW82L8TVp9OUR6IvZ1he9RpgNMLdEaJ725CBssEyCIzaDfmfbDPK2TUTPvY9qfQylzjHw/KsWmUm/KoTJ0sryfyMDkOIiTk8kXESfvKA9C+B3Dcye6K7ynTA+COV65Xuw0q1v//UTeh50HwUWewVUMAQ/CEpzbtQ6pBNVwl17mWAx0zHOJt0inrIW3EYX4mfWmry1M4yO2JZ/w2E2EiVFANMV0Dc+Yf/vSAI03YZ4i89o9/wmfpHbPq712z+amEOYsQt+2+uBwsybJQSgmSqpnGRt8hVE4cVZ/l1qQRMvqJoz1TmD46TEkSXEzp0F5hnEoOQgSU9Q0GAqSFP0qho6yVjEoZZAooL67GvXL6jC8aQJjOyd9IinPAE6FEjxOD99CGntD+RzbZcSD4FcxXP7dy4t6MdDX4lgS6W/CvGoLo1GzJiJKOu8INmsi7oLGpfWo66lm7+TorklU5SyevTKItegWuTwe8Hsx2IiSXMl3cUYmPFxNFQMDBDowEeCOaT+s8Wpoc63KxYOgyUGQtampYig6UETMu+3QLJdreRCymSx7i21hO0275zhuhrkBEPwqhkUHljCTIhEleVTLh26+IjxhYfzgMaD5n7B7zrafk3Qi8L/LJxH/VFbKPcz7Ty9z/MSMAQLF3MwQA41tCiDMvXbPBMzIM5dN5Lzy1hydxNhdUBaAYKNattH6ajw2ZpIiVzEQQOBeDGUkSlIaGAa4yQIyyHHogE60wcdnUFTe6tAvk14MfhWD2azJBRDMU2gcCKZmTdd+//ojChDoPfjUn/QrZXxq60MXWmnfJDKlBylJcdyjWo5LUtQCBFde07EMEDSellIAgouOmY0xbdOU542I+pQCEIhsznZgPPoBwpZtPtVyt9+LQQDCzJo1ed6A6I8Y9dK2paFrg2SRQ71D6HtmkiJ7EFZPm/RSPAh2gFBMtVymN5jxbdjtHQopRf3uUB90qB4EVy+GMEDwqJY/gtbqVvbQsBOfQzOle5cO5V3LKbNDeT6FGG7vvRlElCS9GKSKQQsQbKBNS5R0SGMv8UtHStZUxTAFED47oyoGDa3x8Q4QJKRRTqIkmzfiSAAEyR8pynkoxBx7y0WUVFqIoQfndq1FKkHdHKUHQIk79ii8XEuUJLX2rvIfmjs3QJh7IYbDOXWz7UF4/8oPo5WqGAyA4DUSnB2QcDhl6by3UcVwrAMEpywO0wWFQhYPUohhlHIQLqoAhBg5H0oOQtStjgRA0BAlUYjB5UGgfMKwzZAKOXovAioEAIMEU8oN8XM+5kSIYYpqeWZVDIdpLx7221YAwmEXMUfb47o5lj3EcNWdeO/KD6Mt1RZE+cmDcFwBhN712DT/GSZKOpQQw9HiQTj8KzfOA5rFg8MP43Y/SXEmPAgVD4KbKMlMirTF+7U8CDSrLg/CTAECjXl0dBT9/f1oamrCyMgIA4WhoSG0tbUxCBgYGEB7ezt27tzJ+T+U39ba2sqVcJRcnMjn89N5EACoPAi5XIA66IWj4iCC4OLqUGmQ27Zswxf9bo7crAkpFPzua6VWMRypDTvj54ZCDHFMipomJnFESXM9SXHGMnTcYPZCDHd63RyrWo1mTRHlD4f7hY/U/S0hBqliiBtaOYmSjtTrz8ZzqSnXQyNeu+cLKQfhzBdNe6wmth4kBPq19HFjd4UYJBFaTqFx95mLSYpaOdHYy0WURCcHG3+QlmrZ5kGge/T29jIPApVwDg8Pc14avW9HewdGx0YZIHR1dWHz5s2or68HMXQ2NjYxiGCvAwGEqMnUAARNQpEgL1vmclEVQyf1Ykj7/duPA3dsVBXDBf+E1WtWT5sW2cymuygqQhQGCHSj4iRFykE4vkIMDGCBoN0zlTl+8IMf5M3h8iC4ko5kH5ACoSTFw9OLYTbMTpme4VcxENXypZdfivq6ej48kGKij60ihMs1fa6POFcvlTn+6go3UVKZ3mZO3sbLQXgYdxBAsDApinGIkznJmxNxDYAQxYsjACH2PszUOcWD4AII4lWyARKJ90cdPEUXUjmlzdDSnhSipLhEPnp/TTKnplmTC0jR+zK3ClXFpeLLWGVMZLRtCYg2jwXZAQIIBAIaGxv5PiRTetd58+ax6MnDMH/efOzctZNBBMm1oaGBwQQ/m4iSzEmS2AS5GMI8COHJdOUX0PUmiIhbDNu3bceXPk88CEvLVsUwJ3d1zKDMEMNDyfvx8c98DKeuOnXawjABAru5KIHar882b00Lw2TBFBDxhc9/AeN/nowkSjqa5HUoYw2HGIQoaeHChU6AIKcGicuFny+nJ9qsP/jBD3AnESWRByHVevyEFYqUSB63UYhh3jP49qXfDkIMUkoV66L1GdwkLho3z1TF4BElrUN37dLjxslYJI885SBQFcN6XHD+BbE8CMw5UFtrZwvNZIsy6qMAguv0LHvABu7EOAposbnq5XnMORDZi8IjSgqYFGPOkqYHO/JePiOjyMlFlOQqc6TnxY1Z5k+YV21AWVN6KWBa5Bg1b/v378eePXuwePFiz+AT6Z6fdyDjod/J3qTfBVwPJPtMJjMNIJD7Q6iWKSZhQ4P0MJt3QACCTbDUzfGfP/fPWNTfg7Wdr0EyWYU81bwZPAOHYhSOqu/4IYaHkn/CJ87/OE5dtaqotlWMfBz1r+lJiAoxkCyIatkDCHOziuFwzxcVtYxkh/DLXT+DECW5qJY1PAiyxmluCCDc9cu78N5pIYbD/XZz6P4cYriFAcKl3/k2xzVJCQnjpM0wmNfEKWviQfj1lTdVAIIBEE4//fQiJkWRN/dZqK520omXrcwx5P0Jz6E2xKABJK5r5IBK1wW0zRFgg/atAAQt1XJMbj8bWlcYIo5zwNzB2hADeyN8+vK4ED+xzZrMulEHnDBokXsd9iRFTUyxmCiJAAKBEgIIh86DMIfUpXMo05IUiUlxzfQyR3EHEv11HBEJPSyWKOmzF2OMAQI1azq+Qwzads9aHgRxZXIvhl9SkuJH0J4qZzdH5zKaOxcwk+J6bJ63icschUnR9CDEGX8NUdL1N3hESesazzuOPQh5r4ph/CZnDgK5jm0hBu7maKEZpoWlcZ2bRElSrHOoAIETJx15EVqipDgqadkw5c5B0BAliVGP27RagMBEST4xVdyeYibFVNoa0jhiREmuPAUvSXErvnTxJVh0oAdnL1qHNHXjoc9xBBCIyngDMyne7zMpHjpAcHdz9D0ISZ9udu6YlsM2EuJXOJxJimzYcnmmWr6dqhiWe82ajpvKhYgQw2aqYvjud4NmTaSIaRbYWMW4hPUA4frj24MgvRgcSYqabo6HCyBEGSytB4GT79Jp60GoFIBgKw2nMZHOJCCr9SDEKSptFUNZAULaY/A8JgECCZqrGC76AhYdWMq9GNKJKp8W9vjwIHgsz9TN8X5sSD6AT174Cax5rke1bH60PAgqgEDdfbgu3/gcqzmhFNsmUkZKUsyO4Be7foKOM9rwgQ98QJWk6CJKkjinl6R4Be765Z14z/IPoS3dzqyGJlP0sSpixvM+777Zi+Hy73lljnIKdQEEjcfxhhspSfF6nNe0DktqlnFCc2n8EuWqKDHvE3dPze9d4yl+DnPtU7vnkYdwm8ODcKQAwtFEtawFCHHhXVOFzjZA4Ko2h0dZ40Fg8O4nMRaZhMNNlOTyINBgtm7dis9f/Hl07e3GKxeeg1SyymtqEl1gcdhOmUfuxgUu63z44AY8XvUwPnnRJxFV5jhjgHDR5zDy2Dhe1X4e6iiMIw2XfO0e1eXryMmkPE+WjgNMUZRMYDg7gl/tugqLzuw4PACBQwy34V1L/xFt6Ta/zNF/F9+LUZ43m6N3KVB7oyTu2ncrnm3ZDOrFUFdmgHDTjTfh6iuuxSvrz0EPJSkGDaf82fbzl7zOXl4uU/zPjM6NXhTyc+i7zKIhcNprC8bf8ynhp372jTnfJnyN1/gp+L3fXmyqHwZdL8/x02qZHtv82R9vLo9HRzfgnswduODCC3DmmWdOWxASW3edjA+HB2GmAEFTzq31IJg5CFG7pgIQvMqKqHzCWctBsFFUbt++HRd/7mIMPDuIFXXLUeBGCuaG9KbV3J5x6pFPiopjmvNefiNAvpXlfn536+Jnmjc3GgoGtwnfj6/PYV92H/IdOXzmgs9g9anRVMu06V1MinFJipd84RI8/j9PortqCVIJr6tcMHAaZ+S47O/vTYyhFM2JCR+wwrp4lm0ctQLP5Mfx7NAzOP3vTsd73/s+UJKiq8zR5UEQtzj97w9/+CNc/dOrcFLDSahNUZ6Hvxi4z7105/S6+dkAGZ8S/e8Wd3zz7+O1y/Ts0lR/wGCj8P29jmTGxzN+3jR72cxmvybzPkXPlDXsP7LI6yT/4Ln2OhMSQNg1uh1NKxvwX9/+Vtk9CL+5+Te44rIrsGBiPhqr5vmdQ6mjn6clvLGLjL0eiiwur1Vi8c9+h0Zqtxh4QPzG0p48pF+o/13xkhRdM/VdaREXlqXfv9EbQ0K6aPpgJMAnsiqmuh/KOvCWgr8m/Bbf+zJ9GG0ewoV+u+fwdqoABK+KrgIQdDkIJQEEKXOMIzhik0ZNJ2ZY10zfpzrN6359HTZv2swKa8pQTVlX+p3Xp5oU0HSLHeB+VsLRVn3qnGAqg1io4bmlHQiBiCVYRVtQiZfx6huEiOu8t/GMx9LlS3He2nVMZBFVtqJhPaO5I0BmGj4aw6233ooHHniA62AlC9c2brH9LsDF9+IWqPEfTfmPNyaSZfx9NNfYx+31qz/jjDPx4he/mBnGXOVGWh4Eeu7999+PO++8E5mJSW6cKAaDS5KovMhvvRy76qhMKuk13I4DCNwy2zfIsj6nTIqH1yiwwa2Ji7rqFZ+Uee3y1HmWvxhoGLuFPHl8WC7uieovW88w+zEcr41ZgvvKn3zyyXjjm97IgFarL1wlYCTHp//6NNavX48DBw54ucyB0fb2kSB6D5D57YYZIPj4KfjZmxN+K3+fy9Lzz+wB0GCN4lNlS7dxvsbXV1zml/e8VCJJDuH5oS1p4yz9sqTdm+g6+r3XRt2TpYf/fHmHxs5zxvoCWLSoC69d9zosXtw9bUmRrqBTNiUg2mLrmtO6WXYYt3Z57vIFaxMiug+Ny9aRVsq5y11ZYUuMdZVe0pi0FQqu/AKz8iBOljQnJCcbX4RWTpqwR1yFUawHQWtALDZB/Sd6FmXe04vYPhpDZB5a1QOIuVAFI0J9yqNuZZ5sLKaP/0TKtLbWnizjNureE8PXEXCg/wSwWF0jMxVe6PtxHALhx5Rz/myvQEpTlJQL3Lnk7dlHD+CRoiEPTlQZlEYGqmv8s7INkhWfZG2rzu7JMN/NtSTCXhGSr4sQx3XPqL+T4iR9IUot7h4qWRrAxqp7HB6fUuTkemed7vX2OBnRurr6SACgu8/U2nWNS/N3rcxde6pc99HOSzmfp5GT65pyzp3m3eLGEwsQXC9Q+XtFAhUJVCRQkUBFAhUJHLsSqACEY3duK29WkUBFAhUJVCRQkcAhS6ACEA5ZdJUvViRQkUBFAhUJVCRw7Erg/wfnavC7p0YhhgAAAABJRU5ErkJggg==;" vertex="1" parent="1">
                    <mxGeometry x="150" y="120" width="520" height="317" as="geometry"/>
                </mxCell>
            </root>
        </mxGraphModel>
    </diagram>
</mxfile>